<?xml version="1.0" encoding="UTF-8" standalone="no"?>
<!-- Created with Inkscape (http://www.inkscape.org/) -->

<svg
   width="55.451374mm"
   height="29.940252mm"
   viewBox="0 0 55.451374 29.940252"
   version="1.1"
   id="svg2585"
   xmlns:xlink="http://www.w3.org/1999/xlink"
   xmlns="http://www.w3.org/2000/svg"
   xmlns:svg="http://www.w3.org/2000/svg">
  <defs
     id="defs2582">
    <linearGradient
       xlink:href="#linear-gradient-38"
       id="linearGradient2338"
       gradientUnits="userSpaceOnUse"
       gradientTransform="rotate(90,-1175.85,743.93)"
       x1="-1790.8199"
       y1="-1087.23"
       x2="-1678.0601"
       y2="-1087.23" />
    <linearGradient
       id="linear-gradient-38"
       x1="-1790.8199"
       y1="-1087.23"
       x2="-1678.0601"
       y2="-1087.23"
       gradientTransform="rotate(90,-1175.85,743.93)"
       gradientUnits="userSpaceOnUse">
      <stop
         offset=".18"
         stop-color="#ed1c24"
         id="stop4-0" />
      <stop
         offset=".32"
         stop-color="#ed1c24"
         stop-opacity="0"
         id="stop6-2" />
    </linearGradient>
    <linearGradient
       id="linear-gradient-2-5"
       x1="-673.84003"
       y1="2575.0901"
       x2="-560.67999"
       y2="2575.0901"
       gradientTransform="rotate(-90,-141.10395,382.08765)"
       xlink:href="#linear-gradient-38" />
  </defs>
  <g
     id="layer1"
     transform="translate(-66.659909,-83.190894)">
    <g
       id="g2534"
       transform="matrix(0.26458333,0,0,0.26458333,-414.9924,-170.68211)"
       clip-path="none">
      <text
         class="cls-6"
         id="text158-0-0"
         x="566.83447"
         y="366.33627"
         style="font-size:9.44px;font-family:AstakhovFirstSimple, 'Astakhov First Simple';text-align:center;text-anchor:middle;white-space:pre;inline-size:254.851;fill:#ffffff"
         transform="translate(1360.44,622.29908)"
         xml:space="preserve"><tspan
           x="566.83447"
           y="366.33627"
           id="tspan209">ЕДИНОБОРСТВ</tspan></text>
      <path
         class="cls-5"
         d="m 1857.0082,999.53 v 20.28 l 8.14,-0.11 v -13.15 h 15.4 v -7.02 z"
         id="path116-4"
         style="fill:#ffffff" />
      <path
         class="cls-5"
         d="m 1912.5582,1005.47 c -0.22,-1.31 -0.66,-2.45 -1.33,-3.42 -0.67,-0.96 -1.62,-1.63 -2.83,-1.98 -1.22,-0.36 -2.86,-0.54 -4.92,-0.54 h -18.81 v 19.92 l 27.6,-0.35 c 0.12,-0.37 0.22,-0.75 0.29,-1.15 0.22,-1.24 0.33,-2.9 0.33,-4.99 v -2.15 c 0,-2.25 -0.11,-4.03 -0.33,-5.34 z m -7.63,7.86 c 0,1.35 -0.16,2.3 -0.49,2.86 -0.33,0.56 -1.05,0.84 -2.17,0.84 h -9.41 v -10.62 h 9.5 c 1.06,0 1.75,0.32 2.08,0.96 0.33,0.64 0.49,1.71 0.49,3.2 z"
         id="path118-4"
         style="fill:#ffffff" />
      <path
         class="cls-5"
         d="m 1948.4382,1010.92 c -0.11,-1.6 -0.35,-3.17 -0.73,-4.7 -0.37,-1.53 -0.89,-2.69 -1.57,-3.49 -0.67,-0.79 -1.6,-1.5 -2.8,-2.13 -1.2,-0.62 -2.63,-1.04 -4.29,-1.26 -1.65,-0.22 -3.69,-0.33 -6.13,-0.33 -2.44,0 -4.52,0.11 -6.18,0.33 -1.65,0.22 -3.08,0.64 -4.28,1.26 -1.2,0.63 -2.13,1.34 -2.78,2.13 -0.66,0.8 -1.17,1.96 -1.55,3.49 -0.37,1.53 -0.61,3.1 -0.72,4.7 -0.11,1.61 -0.17,3.74 -0.17,6.39 0,0.6 0,1.18 0.01,1.73 l 8.14,-0.11 v -5.64 c 0,-1.47 0.07,-2.62 0.23,-3.46 0.16,-0.85 0.49,-1.61 1.01,-2.3 0.51,-0.68 1.27,-1.16 2.27,-1.43 1,-0.26 2.34,-0.39 4.02,-0.39 3.15,0 5.19,0.54 6.11,1.63 0.92,1.1 1.38,3.08 1.38,5.95 v 5.45 l 8.18,-0.1 c 0.01,-0.43 0.01,-0.87 0.01,-1.33 0,-2.65 -0.05,-4.78 -0.16,-6.39 z"
         id="path120-2"
         style="fill:#ffffff" />
      <path
         class="cls-5"
         d="m 1965.1182,999.53 h -10.95 v 19.03 l 7.12,-0.09 v -8.32 l 2.99,8.28 7.57,-0.09 z m 18.82,0 -7.04,18.74 7.3,-0.09 3.11,-8.03 v 7.99 l 7.11,-0.09 v -18.52 z"
         id="path122-3"
         style="fill:#ffffff" />
      <polygon
         class="cls-5"
         points="594.62,436.6 586.48,436.81 586.48,449.99 594.62,449.99 "
         id="polygon124-9"
         style="fill:#ffffff"
         transform="translate(1272.2382,583.50001)" />
      <path
         class="cls-5"
         d="m 1886.3882,1020.2 v 13.9 h 8.19 v -11.28 h 10.01 c 2.19,0 3.94,-0.18 5.27,-0.56 1.33,-0.37 2.34,-1.04 3.04,-1.99 0.18,-0.25 0.35,-0.51 0.5,-0.78 z"
         id="path126-6"
         style="fill:#ffffff" />
      <path
         class="cls-5"
         d="m 1942.0482,1019.01 v 0.95 c 0,1.62 -0.08,2.89 -0.23,3.81 -0.16,0.92 -0.49,1.75 -1.01,2.48 -0.51,0.74 -1.27,1.24 -2.27,1.52 -1,0.28 -2.32,0.42 -3.98,0.42 -1.66,0 -3.02,-0.14 -4.02,-0.42 -1,-0.28 -1.76,-0.78 -2.27,-1.52 -0.52,-0.73 -0.85,-1.56 -1.01,-2.48 -0.16,-0.92 -0.23,-2.19 -0.23,-3.81 v -0.56 l -8.12,0.21 c 0.03,1.32 0.07,2.45 0.14,3.39 0.11,1.59 0.35,3.15 0.72,4.68 0.38,1.53 0.89,2.68 1.55,3.46 0.65,0.78 1.58,1.49 2.78,2.11 1.2,0.62 2.63,1.04 4.28,1.24 1.66,0.2 3.72,0.3 6.18,0.3 2.46,0 4.48,-0.1 6.13,-0.3 1.66,-0.2 3.09,-0.62 4.29,-1.24 1.2,-0.62 2.13,-1.33 2.8,-2.11 0.68,-0.78 1.2,-1.92 1.57,-3.44 0.38,-1.51 0.62,-3.07 0.73,-4.68 0.08,-1.14 0.13,-2.55 0.15,-4.23 z"
         id="path128-1"
         style="fill:#ffffff" />
      <polygon
         class="cls-5"
         points="724.18,434.77 717.07,434.96 717.07,451.55 724.18,451.55 "
         id="polygon130-4"
         style="fill:#ffffff"
         transform="translate(1272.2382,583.50001)" />
      <polygon
         class="cls-5"
         points="707.43,451.55 713.82,435.04 706.48,435.23 704.06,441.68 701.8,435.36 694.26,435.55 700.03,451.55 "
         id="polygon132-6"
         style="fill:#ffffff"
         transform="translate(1272.2382,583.50001)" />
      <polygon
         class="cls-5"
         points="691.05,435.64 683.93,435.82 683.93,451.55 691.05,451.55 "
         id="polygon134-6"
         style="fill:#ffffff"
         transform="translate(1272.2382,583.50001)" />
      <polygon
         class="cls-5"
         points="720.69,421.36 739.23,418.22 757.76,415.08 738.97,415.55 720.18,416.03 720.43,418.69 "
         id="polygon136-3"
         style="fill:#ffffff"
         transform="translate(1272.2382,583.50001)" />
      <polygon
         class="cls-5"
         points="720.59,427.82 731.99,425.89 743.38,423.96 731.83,424.25 720.27,424.54 720.43,426.18 "
         id="polygon138-1"
         style="fill:#ffffff"
         transform="translate(1272.2382,583.50001)" />
      <polygon
         class="cls-5"
         points="585.25,421.36 566.71,418.22 548.18,415.08 566.97,415.55 585.77,416.03 585.51,418.69 "
         id="polygon140-7"
         style="fill:#ffffff"
         transform="translate(1272.2382,583.50001)" />
      <polygon
         class="cls-5"
         points="585.35,427.82 573.95,425.89 562.56,423.96 574.11,424.25 585.67,424.54 585.51,426.18 "
         id="polygon142-2"
         style="fill:#ffffff"
         transform="translate(1272.2382,583.50001)" />
      <polygon
         class="cls-5"
         points="625.67,460.65 627.19,457.57 628.71,460.65 632.11,461.14 629.65,463.54 630.24,466.93 627.19,465.33 624.15,466.93 624.73,463.54 622.27,461.14 "
         id="polygon144-8"
         style="fill:#ffffff"
         transform="translate(1272.2382,583.50001)" />
      <polygon
         class="cls-5"
         points="639.73,460.65 641.25,457.57 642.77,460.65 646.17,461.14 643.71,463.54 644.29,466.93 641.25,465.33 638.21,466.93 638.79,463.54 636.33,461.14 "
         id="polygon146-3"
         style="fill:#ffffff"
         transform="translate(1272.2382,583.50001)" />
      <polygon
         class="cls-5"
         points="653.79,460.65 655.31,457.57 656.83,460.65 660.23,461.14 657.77,463.54 658.35,466.93 655.31,465.33 652.27,466.93 652.85,463.54 650.39,461.14 "
         id="polygon148-8"
         style="fill:#ffffff"
         transform="translate(1272.2382,583.50001)" />
      <polygon
         class="cls-5"
         points="667.85,460.65 669.37,457.57 670.89,460.65 674.29,461.14 671.83,463.54 672.41,466.93 669.37,465.33 666.33,466.93 666.91,463.54 664.45,461.14 "
         id="polygon150-7"
         style="fill:#ffffff"
         transform="translate(1272.2382,583.50001)" />
      <polygon
         class="cls-5"
         points="681.91,460.65 683.43,457.57 684.95,460.65 688.35,461.14 685.89,463.54 686.47,466.93 683.43,465.33 680.39,466.93 680.97,463.54 678.51,461.14 "
         id="polygon152-9"
         style="fill:#ffffff"
         transform="translate(1272.2382,583.50001)" />
      <text
         class="cls-6"
         id="text158-7"
         x="1927.3569"
         y="975.08093"
         style="font-style:normal;font-variant:normal;font-weight:normal;font-stretch:normal;font-size:9.44px;font-family:AstakhovFirstSimple, 'Astakhov First Simple';-inkscape-font-specification:'AstakhovFirstSimple, Astakhov First Simple, Normal';font-variant-ligatures:normal;font-variant-caps:normal;font-variant-numeric:normal;font-variant-east-asian:normal;text-align:center;text-anchor:middle;fill:#ffffff"><tspan
           id="tspan2111-1"
           x="1927.3569"
           y="975.08093">клуб</tspan></text>
      <g
         id="g2506"
         transform="matrix(1,0,0,1.0000884,-124.35022,157.78546)">
        <polygon
           class="cls-3"
           points="677.84,239.72 709.69,207.87 709.69,162.82 677.84,130.96 632.79,130.96 600.93,162.82 600.93,207.87 632.79,239.72 "
           id="polygon90-4"
           style="fill:none;stroke:url(#linearGradient2338);stroke-width:4px;stroke-miterlimit:10"
           transform="translate(1396.5884,672.9037)" />
        <path
           class="cls-17"
           d="m 2028.4684,801.6637 h 46.87 l 33.14,33.14 v 46.87 l -33.14,33.14 h -46.87 l -33.15,-33.14 v -46.87 z m 45.05,4.4 h -43.23 l -30.57,30.57 v 43.23 l 30.57,30.57 h 43.23 l 30.57,-30.57 v -43.23 z"
           id="path110-7"
           style="fill:url(#linear-gradient-2-5)" />
      </g>
    </g>
  </g>
</svg>
