<?xml version="1.0" encoding="UTF-8" standalone="no"?>
<svg
   enable-background="new 0 0 32 32"
   height="50"
   id="Слой_1"
   version="1.1"
   viewBox="0 0 50 50"
   width="50"
   xml:space="preserve"
   sodipodi:docname="arrow_shevron1.svg"
   inkscape:version="1.2.2 (732a01da63, 2022-12-09)"
   xmlns:inkscape="http://www.inkscape.org/namespaces/inkscape"
   xmlns:sodipodi="http://sodipodi.sourceforge.net/DTD/sodipodi-0.dtd"
   xmlns="http://www.w3.org/2000/svg"
   xmlns:svg="http://www.w3.org/2000/svg"><defs
     id="defs22" /><sodipodi:namedview
     id="namedview20"
     pagecolor="#ffffff"
     bordercolor="#000000"
     borderopacity="0.25"
     inkscape:showpageshadow="2"
     inkscape:pageopacity="0.0"
     inkscape:pagecheckerboard="true"
     inkscape:deskcolor="#d1d1d1"
     showgrid="true"
     showguides="true"
     inkscape:lockguides="false"
     inkscape:zoom="9.1592425"
     inkscape:cx="-7.5333741"
     inkscape:cy="18.778845"
     inkscape:window-width="1920"
     inkscape:window-height="1009"
     inkscape:window-x="-8"
     inkscape:window-y="-8"
     inkscape:window-maximized="1"
     inkscape:current-layer="Слой_1"><sodipodi:guide
       position="32.262493,52.074407"
       orientation="0,1"
       id="guide330"
       inkscape:locked="false"
       inkscape:label=""
       inkscape:color="rgb(0,134,229)" /><inkscape:grid
       type="xygrid"
       id="grid394"
       dotted="true"
       originx="0"
       originy="0" /><sodipodi:guide
       position="-4.8038907,45.960365"
       orientation="1,0"
       id="guide424"
       inkscape:locked="false" /><sodipodi:guide
       position="0,35"
       orientation="0,-1"
       id="guide426"
       inkscape:locked="false" /><sodipodi:guide
       position="16,39"
       orientation="1,0"
       id="guide2908"
       inkscape:locked="false" /></sodipodi:namedview><ellipse
     style="fill:none;fill-opacity:1;stroke:#ff6c00;stroke-width:2.92684;stroke-linejoin:miter;stroke-dasharray:none;stroke-opacity:1;paint-order:normal"
     id="path3279"
     cx="25"
     cy="25"
     rx="23.022039"
     ry="23" /><path
     d="m 37.051563,25.30625 c 0.615624,-0.610937 0.615624,-1.6 0,-2.209375 L 26.115625,12.315625 c -0.6,-0.59375 -1.63125,-0.595312 -2.232812,0 L 12.946875,23.095313 c -0.615625,0.610937 -0.615625,1.6 0,2.209375 0.617188,0.610937 1.615625,0.610937 2.232813,0 L 25,15.625 l 9.820312,9.68125 c 0.615625,0.609375 1.614063,0.609375 2.231251,0 z"
     fill="#121313"
     id="path4"
     style="stroke-width:1.5625;fill:#ff6c00;fill-opacity:1" /><path
     d="m 37.051563,34.68125 c 0.615624,-0.610938 0.615624,-1.6 0,-2.209375 L 26.115625,21.690625 c -0.6,-0.59375 -1.63125,-0.595313 -2.232812,0 L 12.946875,32.470312 c -0.615625,0.610938 -0.615625,1.6 0,2.209375 0.617188,0.610938 1.615625,0.610938 2.232813,0 L 25,25 l 9.820312,9.68125 c 0.615625,0.609375 1.614063,0.609375 2.231251,0 z"
     fill="#121313"
     id="path4-0"
     style="stroke-width:1.5625;fill:#ff6c00;fill-opacity:1" /></svg>
