<?xml version="1.0" encoding="UTF-8" standalone="no"?>
<svg
   enable-background="new 0 0 32 32"
   height="50"
   id="Слой_1"
   version="1.1"
   viewBox="0 0 50 50"
   width="50"
   xml:space="preserve"
   sodipodi:docname="arrow_shevron.svg"
   inkscape:version="1.2.2 (732a01da63, 2022-12-09)"
   xmlns:inkscape="http://www.inkscape.org/namespaces/inkscape"
   xmlns:sodipodi="http://sodipodi.sourceforge.net/DTD/sodipodi-0.dtd"
   xmlns="http://www.w3.org/2000/svg"
   xmlns:svg="http://www.w3.org/2000/svg"><defs
     id="defs22" /><sodipodi:namedview
     id="namedview20"
     pagecolor="#ffffff"
     bordercolor="#000000"
     borderopacity="0.25"
     inkscape:showpageshadow="2"
     inkscape:pageopacity="0.0"
     inkscape:pagecheckerboard="true"
     inkscape:deskcolor="#d1d1d1"
     showgrid="true"
     showguides="true"
     inkscape:lockguides="false"
     inkscape:zoom="12.953125"
     inkscape:cx="7.9131484"
     inkscape:cy="28.873341"
     inkscape:window-width="1920"
     inkscape:window-height="1009"
     inkscape:window-x="-8"
     inkscape:window-y="-8"
     inkscape:window-maximized="1"
     inkscape:current-layer="Слой_1"><sodipodi:guide
       position="32.262493,52.074407"
       orientation="0,1"
       id="guide330"
       inkscape:locked="false"
       inkscape:label=""
       inkscape:color="rgb(0,134,229)" /><inkscape:grid
       type="xygrid"
       id="grid394"
       dotted="true"
       originx="0"
       originy="0" /><sodipodi:guide
       position="-4.8038907,45.960365"
       orientation="1,0"
       id="guide424"
       inkscape:locked="false" /><sodipodi:guide
       position="0,35"
       orientation="0,-1"
       id="guide426"
       inkscape:locked="false" /><sodipodi:guide
       position="16,39"
       orientation="1,0"
       id="guide2908"
       inkscape:locked="false" /></sodipodi:namedview><path
     d="M 50,25 C 50,11.19375 38.80625,0 25,0 11.192188,0 0,11.192188 0,25 0,38.807812 11.192188,50 25,50 38.80625,50 50,38.807812 50,25 Z M 3.0765625,25 C 3.0765625,12.9375 12.9375,3.125 25,3.125 37.0625,3.125 46.875,12.9375 46.875,25 46.875,37.0625 37.0625,46.875 25,46.875 12.9375,46.875 3.0765625,37.0625 3.0765625,25 Z"
     fill="#121313"
     id="path2"
     style="stroke-width:1.5625" /><path
     d="m 37.051563,25.30625 c 0.615624,-0.610937 0.615624,-1.6 0,-2.209375 L 26.115625,12.315625 c -0.6,-0.59375 -1.63125,-0.595312 -2.232812,0 L 12.946875,23.095313 c -0.615625,0.610937 -0.615625,1.6 0,2.209375 0.617188,0.610937 1.615625,0.610937 2.232813,0 L 25,15.625 l 9.820312,9.68125 c 0.615625,0.609375 1.614063,0.609375 2.231251,0 z"
     fill="#121313"
     id="path4"
     style="stroke-width:1.5625" /><path
     d="m 37.051563,34.68125 c 0.615624,-0.610938 0.615624,-1.6 0,-2.209375 L 26.115625,21.690625 c -0.6,-0.59375 -1.63125,-0.595313 -2.232812,0 L 12.946875,32.470312 c -0.615625,0.610938 -0.615625,1.6 0,2.209375 0.617188,0.610938 1.615625,0.610938 2.232813,0 L 25,25 l 9.820312,9.68125 c 0.615625,0.609375 1.614063,0.609375 2.231251,0 z"
     fill="#121313"
     id="path4-0"
     style="stroke-width:1.5625" /><path
     style="fill:#ffffff;stroke-width:0.0852964"
     d="M 23.584442,46.785427 C 18.242406,46.403114 13.287691,44.138262 9.5070034,40.350483 5.9652758,36.802111 3.7465197,32.14422 3.2338469,27.181086 3.0873416,25.762783 3.1753556,22.786589 3.4013922,21.515544 3.8079267,19.229528 4.3985622,17.41018 5.3742059,15.43864 6.5093314,13.144828 7.7905689,11.358497 9.5745316,9.5824484 12.320144,6.8490169 15.852959,4.8168709 19.481014,3.8840427 c 2.090319,-0.5374525 2.953984,-0.6386655 5.46817,-0.6408136 2.447449,-0.00209 3.151163,0.069212 5.032485,0.5099092 3.913786,0.9167997 7.528158,2.9359417 10.404756,5.8125389 3.474875,3.4748758 5.582306,7.7468618 6.284484,12.7393198 0.16928,1.20357 0.145141,4.485767 -0.04172,5.672208 -0.565268,3.589111 -1.621194,6.318615 -3.562583,9.209064 -2.855341,4.251184 -7.180894,7.391608 -12.1593,8.827853 -2.143219,0.618308 -5.103653,0.930125 -7.322866,0.771305 z M 14.74567,35.01165 c 0.268124,-0.121656 1.265,-1.05127 3.539799,-3.300947 1.741611,-1.722378 3.962237,-3.918417 4.934728,-4.880089 l 1.768162,-1.748494 1.089266,1.066403 c 0.599095,0.586524 2.835706,2.788888 4.970248,4.894146 4.190905,4.133408 4.267827,4.196276 5.04313,4.121779 1.141677,-0.109703 1.801745,-1.350073 1.247477,-2.344203 -0.194083,-0.348103 -11.047896,-11.107851 -11.488872,-11.389304 -0.322772,-0.206008 -0.915288,-0.271822 -1.362653,-0.15136 -0.336296,0.09056 -0.967211,0.68578 -6.089463,5.744974 -3.467923,3.425229 -5.759491,5.751848 -5.829261,5.918422 -0.166366,0.397198 -0.141295,0.939365 0.06295,1.361281 0.377344,0.779487 1.285789,1.083404 2.114489,0.707392 z m -0.128446,-9.302106 c 0.273978,-0.07608 1.177582,-0.927775 5.316045,-5.010686 2.742278,-2.705467 5.011892,-4.92821 5.043586,-4.939428 0.03169,-0.01125 2.283861,2.172565 5.004814,4.852853 3.330344,3.28057 5.058695,4.924376 5.288373,5.029684 0.575444,0.263841 1.325541,0.158991 1.775855,-0.248231 0.525356,-0.475084 0.638373,-1.505086 0.228066,-2.078534 -0.263466,-0.368221 -11.114094,-11.069996 -11.423574,-11.26686 -0.128861,-0.08197 -0.41313,-0.17355 -0.631709,-0.203509 -0.855736,-0.117292 -0.678571,-0.268241 -6.897061,5.876425 -4.30516,4.254051 -5.713491,5.695054 -5.788724,5.923011 -0.144419,0.437593 -0.05783,1.072622 0.199217,1.461048 0.387994,0.586299 1.112887,0.818645 1.885112,0.604227 z"
     id="path3195" /><path
     style="fill:#ffffff;stroke-width:0.0772014"
     d="M 22.890229,46.743772 C 16.000074,45.981906 10.092794,42.310428 6.4345555,36.516285 3.7097517,32.200573 2.594026,26.858826 3.3577086,21.785304 3.9092045,18.121442 5.3566042,14.753856 7.7107071,11.657419 8.40688,10.741717 10.423392,8.6913842 11.348613,7.9584972 17.530039,3.0620605 25.845724,1.8163773 33.04222,4.7088116 c 6.87334,2.762551 11.915692,8.8094984 13.355432,16.0162594 0.324027,1.62195 0.41099,2.541907 0.409009,4.326799 -0.0024,2.181917 -0.232066,3.873768 -0.797491,5.875319 -1.672999,5.922263 -5.909825,10.983879 -11.462725,13.694194 -2.036488,0.993989 -4.064227,1.622143 -6.394454,1.980877 -1.151131,0.177215 -4.197833,0.259154 -5.261762,0.141512 z M 14.739256,35.00708 c 0.348315,-0.158024 1.163249,-0.944076 7.398657,-7.136445 1.496963,-1.48663 2.764997,-2.712521 2.817853,-2.724203 0.05286,-0.01168 2.232654,2.084223 4.843993,4.657566 2.611339,2.573343 4.936253,4.823673 5.166474,5.000733 0.402556,0.309599 0.439996,0.321928 0.977669,0.321928 0.496226,0 0.596718,-0.02615 0.893839,-0.232638 0.688058,-0.478161 0.898435,-1.444331 0.462965,-2.126192 -0.268748,-0.420806 -11.177568,-11.174017 -11.524433,-11.360042 -0.682416,-0.365984 -1.336253,-0.24309 -2.023054,0.38025 -1.095801,0.994546 -11.031894,10.869951 -11.132503,11.064506 -0.687684,1.329835 0.738758,2.780515 2.11854,2.154537 z m 0.04539,-9.381645 c 0.222443,-0.105556 3.564641,-3.347307 8.775808,-8.512061 l 1.442241,-1.429396 4.540871,4.474476 c 5.023586,4.950133 5.458104,5.367767 5.737493,5.514538 0.267912,0.140743 1.066709,0.128001 1.352629,-0.02158 0.323488,-0.169229 0.656475,-0.514216 0.781219,-0.80937 0.135455,-0.320501 0.134549,-0.961614 -0.0018,-1.278784 -0.09933,-0.231047 -1.950772,-2.094287 -8.925769,-8.982665 -2.818291,-2.783293 -2.80677,-2.774664 -3.625043,-2.715475 -0.345842,0.02502 -0.516801,0.08604 -0.776869,0.277295 -0.422551,0.310746 -10.8742,10.591213 -11.234853,11.050842 -0.466394,0.594388 -0.520892,1.188382 -0.166454,1.814245 0.408153,0.720713 1.319168,0.988713 2.100534,0.617931 z"
     id="path187" /></svg>
