<svg width="56" height="56" viewBox="0 0 56 56" fill="none" xmlns="http://www.w3.org/2000/svg">
<g clip-path="url(#clip0_7697_202793)">
<path d="M55.4872 52.9944L40.0092 37.4212C43.3237 33.4619 45.3187 28.3562 45.3187 22.7807C45.3187 10.1991 35.174 0 22.5932 0C10.0124 0 -0.186523 10.199 -0.186523 22.7798C-0.186523 35.3605 10.0125 45.5595 22.5932 45.5595C28.3358 45.5595 33.5674 43.4289 37.5609 39.9227L53.0117 55.4706C53.695 56.154 54.8037 56.154 55.4862 55.4706C56.1705 54.7864 56.1705 53.6786 55.4871 52.9944L55.4872 52.9944ZM22.5636 42.0001C11.9788 42.0001 3.31364 33.335 3.31364 22.7501C3.31364 12.1652 11.9788 3.50011 22.5636 3.50011C33.1485 3.50011 41.8136 12.1652 41.8136 22.7501C41.8136 33.335 33.1485 42.0001 22.5636 42.0001V42.0001ZM31.3136 21.0001H24.3136V14.0001C24.3136 13.0341 23.5296 12.2501 22.5636 12.2501C21.5976 12.2501 20.8136 13.0341 20.8136 14.0001V21.0001H13.8136C12.8476 21.0001 12.0636 21.7841 12.0636 22.7501C12.0636 23.7161 12.8476 24.5001 13.8136 24.5001H20.8136V31.5001C20.8136 32.4661 21.5976 33.2501 22.5636 33.2501C23.5296 33.2501 24.3136 32.4661 24.3136 31.5001V24.5001H31.3136C32.2796 24.5001 33.0636 23.7161 33.0636 22.7501C33.0636 21.7841 32.2805 21.0001 31.3136 21.0001Z" fill="white" fill-opacity="0.5"/>
</g>
<defs>
<clipPath id="clip0_7697_202793">
<rect width="56" height="56" fill="white"/>
</clipPath>
</defs>
</svg>
