<?xml version="1.0" encoding="utf-8"?>
<svg viewBox="556.5 1057.61 209.58 36.46" width="209.58" height="36.46" xmlns="http://www.w3.org/2000/svg">
  <defs>
    <style>
      .cls-1 {
        stroke: url(#linear-gradient-10);
      }

      .cls-1, .cls-2, .cls-3 {
        fill: none;
        stroke-miterlimit: 10;
        stroke-width: 4px;
      }

      .cls-2 {
        stroke: url(#linear-gradient-4);
      }

      .cls-4 {
        fill: #ed2024;
      }

      .cls-5, .cls-6, .cls-7, .cls-8 {
        fill: #fff;
      }

      .cls-9, .cls-10 {
        fill: #231f20;
      }

      .cls-11 {
        fill: #606161;
      }

      .cls-6, .cls-10, .cls-7, .cls-8, .cls-12, .cls-13 {
        font-family: AstakhovFirstSimple, 'Astakhov First Simple';
      }

      .cls-6, .cls-12 {
        font-size: 9.44px;
      }

      .cls-10 {
        font-size: 4.56px;
      }

      .cls-7 {
        font-size: 3.91px;
      }

      .cls-8 {
        font-size: 4.45px;
      }

      .cls-14 {
        fill: url(#linear-gradient-8);
      }

      .cls-15 {
        fill: url(#linear-gradient-9);
      }

      .cls-16 {
        fill: url(#linear-gradient-3);
      }

      .cls-17 {
        fill: url(#linear-gradient-2);
      }

      .cls-18 {
        fill: url(#linear-gradient-6);
      }

      .cls-19 {
        fill: url(#linear-gradient-7);
      }

      .cls-20 {
        fill: url(#linear-gradient-5);
      }

      .cls-3 {
        stroke: url(#linear-gradient);
      }

      .cls-21 {
        fill: url(#linear-gradient-14);
      }

      .cls-22 {
        fill: url(#linear-gradient-18);
      }

      .cls-23 {
        fill: url(#linear-gradient-22);
      }

      .cls-24 {
        fill: url(#linear-gradient-20);
      }

      .cls-25 {
        fill: url(#linear-gradient-21);
      }

      .cls-26 {
        fill: url(#linear-gradient-23);
      }

      .cls-27 {
        fill: url(#linear-gradient-15);
      }

      .cls-28 {
        fill: url(#linear-gradient-19);
      }

      .cls-29 {
        fill: url(#linear-gradient-16);
      }

      .cls-30 {
        fill: url(#linear-gradient-17);
      }

      .cls-31 {
        fill: url(#linear-gradient-13);
      }

      .cls-32 {
        fill: url(#linear-gradient-12);
      }

      .cls-33 {
        fill: url(#linear-gradient-11);
      }

      .cls-34 {
        fill: url(#linear-gradient-27);
      }

      .cls-35 {
        fill: url(#linear-gradient-24);
      }

      .cls-36 {
        fill: url(#linear-gradient-26);
      }

      .cls-37 {
        fill: url(#linear-gradient-25);
      }

      .cls-38 {
        fill: url(#linear-gradient-28);
      }

      .cls-39 {
        fill: url(#linear-gradient-29);
      }

      .cls-40 {
        fill: url(#linear-gradient-30);
      }

      .cls-13 {
        font-size: 4.4px;
      }
    </style>
  </defs>
  <g>
    <path class="cls-5" d="M593.08,1058.55v20.28l8.14-.11v-13.15h15.4v-7.02h-23.54Z"/>
    <path class="cls-5" d="M648.63,1064.49c-.22-1.31-.66-2.45-1.33-3.42-.67-.96-1.62-1.63-2.83-1.98-1.22-.36-2.86-.54-4.92-.54h-18.81v19.92l27.6-.35c.12-.37,.22-.75,.29-1.15,.22-1.24,.33-2.9,.33-4.99v-2.15c0-2.25-.11-4.03-.33-5.34Zm-7.63,7.86c0,1.35-.16,2.3-.49,2.86s-1.05,.84-2.17,.84h-9.41v-10.62h9.5c1.06,0,1.75,.32,2.08,.96s.49,1.71,.49,3.2v2.76Z"/>
    <path class="cls-5" d="M684.51,1069.94c-.11-1.6-.35-3.17-.73-4.7-.37-1.53-.89-2.69-1.57-3.49-.67-.79-1.6-1.5-2.8-2.13-1.2-.62-2.63-1.04-4.29-1.26-1.65-.22-3.69-.33-6.13-.33s-4.52,.11-6.18,.33c-1.65,.22-3.08,.64-4.28,1.26-1.2,.63-2.13,1.34-2.78,2.13-.66,.8-1.17,1.96-1.55,3.49-.37,1.53-.61,3.1-.72,4.7-.11,1.61-.17,3.74-.17,6.39,0,.6,0,1.18,.01,1.73l8.14-.11v-5.64c0-1.47,.07-2.62,.23-3.46,.16-.85,.49-1.61,1.01-2.3,.51-.68,1.27-1.16,2.27-1.43,1-.26,2.34-.39,4.02-.39,3.15,0,5.19,.54,6.11,1.63,.92,1.1,1.38,3.08,1.38,5.95v5.45l8.18-.1c.01-.43,.01-.87,.01-1.33,0-2.65-.05-4.78-.16-6.39Z"/>
    <path class="cls-5" d="M701.19,1058.55h-10.95v19.03l7.12-.09v-8.32l2.99,8.28,7.57-.09-6.73-18.81Zm18.82,0l-7.04,18.74,7.3-.09,3.11-8.03v7.99l7.11-.09v-18.52h-10.48Z"/>
    <polygon class="cls-5" points="594.8 1079.33 594.8 1092.51 602.94 1092.51 602.94 1079.12 594.8 1079.33"/>
    <path class="cls-5" d="M622.46,1079.22v13.9h8.19v-11.28h10.01c2.19,0,3.94-.18,5.27-.56,1.33-.37,2.34-1.04,3.04-1.99,.18-.25,.35-.51,.5-.78l-27.01,.71Z"/>
    <path class="cls-5" d="M678.13,1078.04v.95c0,1.62-.08,2.89-.23,3.81-.16,.92-.49,1.75-1.01,2.48-.51,.74-1.27,1.24-2.27,1.52-1,.28-2.32,.42-3.98,.42s-3.02-.14-4.02-.42c-1-.28-1.76-.78-2.27-1.52-.52-.73-.85-1.56-1.01-2.48-.16-.92-.23-2.19-.23-3.81v-.56l-8.12,.21c.03,1.32,.07,2.45,.14,3.39,.11,1.59,.35,3.15,.72,4.68,.38,1.53,.89,2.68,1.55,3.46,.65,.78,1.58,1.49,2.78,2.11,1.2,.62,2.63,1.04,4.28,1.24,1.66,.2,3.72,.3,6.18,.3s4.48-.1,6.13-.3c1.66-.2,3.09-.62,4.29-1.24,1.2-.62,2.13-1.33,2.8-2.11,.68-.78,1.2-1.92,1.57-3.44,.38-1.51,.62-3.07,.73-4.68,.08-1.14,.13-2.55,.15-4.23l-8.18,.22Z"/>
    <polygon class="cls-5" points="725.38 1077.48 725.38 1094.07 732.49 1094.07 732.49 1077.29 725.38 1077.48"/>
    <polygon class="cls-5" points="714.79 1077.75 712.37 1084.2 710.11 1077.88 702.57 1078.07 708.34 1094.07 715.74 1094.07 722.13 1077.56 714.79 1077.75"/>
    <polygon class="cls-5" points="692.24 1078.34 692.24 1094.07 699.36 1094.07 699.36 1078.16 692.24 1078.34"/>
  </g>
  <polygon class="cls-5" points="728.75 1061.22 729.01 1063.89 747.55 1060.75 766.08 1057.61 747.29 1058.08 728.49 1058.55 728.75 1061.22"/>
  <polygon class="cls-5" points="728.75 1068.7 728.91 1070.34 740.31 1068.41 751.7 1066.48 740.15 1066.77 728.59 1067.06 728.75 1068.7"/>
  <polygon class="cls-5" points="593.83 1061.22 593.57 1063.89 575.03 1060.75 556.5 1057.61 575.29 1058.08 594.08 1058.55 593.83 1061.22"/>
  <polygon class="cls-5" points="593.83 1068.7 593.67 1070.34 582.27 1068.41 570.88 1066.48 582.43 1066.77 593.99 1067.06 593.83 1068.7"/>
</svg>