<?xml version="1.0" encoding="utf-8"?>
<svg viewBox="1657.37 30 98.86 53.37" xmlns="http://www.w3.org/2000/svg" xmlns:xlink="http://www.w3.org/1999/xlink">
  <defs>
    <linearGradient id="linear-gradient-25" x1="-1889.69" y1="-2139.82" x2="-1836.49" y2="-2139.82" xlink:href="#linear-gradient"/>
    <linearGradient id="linear-gradient" x1="-1790.82" y1="-1087.23" x2="-1678.06" y2="-1087.23" gradientTransform="translate(-431.92 1919.78) rotate(90)" gradientUnits="userSpaceOnUse">
      <stop offset="0.18" stop-color="#ed1c24"/>
      <stop offset="0.32" stop-color="#ed1c24" stop-opacity="0"/>
    </linearGradient>
    <linearGradient id="linear-gradient-26" x1="-515.3" y1="3627.69" x2="-461.92" y2="3627.69" gradientTransform="translate(-1919.78 -431.92) rotate(-90)" xlink:href="#linear-gradient"/>
    <style>
      .cls-1 {
        stroke: url(#linear-gradient-10);
      }

      .cls-1, .cls-2, .cls-3 {
        fill: none;
        stroke-miterlimit: 10;
        stroke-width: 4px;
      }

      .cls-2 {
        stroke: url(#linear-gradient-4);
      }

      .cls-4 {
        fill: #ed2024;
      }

      .cls-5, .cls-6, .cls-7, .cls-8 {
        fill: #fff;
      }

      .cls-9, .cls-10 {
        fill: #231f20;
      }

      .cls-11 {
        fill: #606161;
      }

      .cls-6, .cls-10, .cls-7, .cls-8, .cls-12, .cls-13 {
        font-family: AstakhovFirstSimple, 'Astakhov First Simple';
      }

      .cls-6, .cls-12 {
        font-size: 9.44px;
      }

      .cls-10 {
        font-size: 4.56px;
      }

      .cls-7 {
        font-size: 3.91px;
      }

      .cls-8 {
        font-size: 4.45px;
      }

      .cls-14 {
        fill: url(#linear-gradient-8);
      }

      .cls-15 {
        fill: url(#linear-gradient-9);
      }

      .cls-16 {
        fill: url(#linear-gradient-3);
      }

      .cls-17 {
        fill: url(#linear-gradient-2);
      }

      .cls-18 {
        fill: url(#linear-gradient-6);
      }

      .cls-19 {
        fill: url(#linear-gradient-7);
      }

      .cls-20 {
        fill: url(#linear-gradient-5);
      }

      .cls-3 {
        stroke: url(#linear-gradient);
      }

      .cls-21 {
        fill: url(#linear-gradient-14);
      }

      .cls-22 {
        fill: url(#linear-gradient-18);
      }

      .cls-23 {
        fill: url(#linear-gradient-22);
      }

      .cls-24 {
        fill: url(#linear-gradient-20);
      }

      .cls-25 {
        fill: url(#linear-gradient-21);
      }

      .cls-26 {
        fill: url(#linear-gradient-23);
      }

      .cls-27 {
        fill: url(#linear-gradient-15);
      }

      .cls-28 {
        fill: url(#linear-gradient-19);
      }

      .cls-29 {
        fill: url(#linear-gradient-16);
      }

      .cls-30 {
        fill: url(#linear-gradient-17);
      }

      .cls-31 {
        fill: url(#linear-gradient-13);
      }

      .cls-32 {
        fill: url(#linear-gradient-12);
      }

      .cls-33 {
        fill: url(#linear-gradient-11);
      }

      .cls-34 {
        fill: url(#linear-gradient-27);
      }

      .cls-35 {
        fill: url(#linear-gradient-24);
      }

      .cls-36 {
        fill: url(#linear-gradient-26);
      }

      .cls-37 {
        fill: url(#linear-gradient-25);
      }

      .cls-38 {
        fill: url(#linear-gradient-28);
      }

      .cls-39 {
        fill: url(#linear-gradient-29);
      }

      .cls-40 {
        fill: url(#linear-gradient-30);
      }

      .cls-13 {
        font-size: 4.4px;
      }
    </style>
  </defs>
  <g>
    <path class="cls-9" d="M1674.63,48.88v9.57l3.84-.05v-6.2h7.26v-3.31h-11.1Z"/>
    <path class="cls-9" d="M1700.83,51.68c-.1-.62-.31-1.16-.63-1.61-.32-.45-.76-.77-1.33-.93-.58-.17-1.35-.25-2.32-.25h-8.87v9.4l13.02-.17c.06-.17,.1-.35,.14-.54,.1-.58,.16-1.37,.16-2.35v-1.01c0-1.06-.05-1.9-.16-2.52Zm-3.6,3.71c0,.64-.08,1.08-.23,1.35s-.5,.4-1.02,.4h-4.44v-5.01h4.48c.5,0,.83,.15,.98,.45s.23,.81,.23,1.51v1.3Z"/>
    <path class="cls-9" d="M1717.76,54.25c-.05-.75-.17-1.5-.34-2.22-.17-.72-.42-1.27-.74-1.65-.32-.37-.75-.71-1.32-1-.57-.29-1.24-.49-2.02-.59-.78-.1-1.74-.16-2.89-.16s-2.13,.05-2.92,.16c-.78,.1-1.45,.3-2.02,.59-.57,.3-1,.63-1.31,1-.31,.38-.55,.92-.73,1.65-.17,.72-.29,1.46-.34,2.22-.05,.76-.08,1.76-.08,3.01,0,.28,0,.56,0,.82l3.84-.05v-2.66c0-.69,.03-1.24,.11-1.63,.08-.4,.23-.76,.48-1.08,.24-.32,.6-.55,1.07-.67,.47-.12,1.1-.18,1.9-.18,1.49,0,2.45,.25,2.88,.77,.43,.52,.65,1.45,.65,2.81v2.57l3.86-.05c0-.2,0-.41,0-.63,0-1.25-.02-2.25-.08-3.01Z"/>
    <path class="cls-9" d="M1725.63,48.88h-5.17v8.98l3.36-.04v-3.92l1.41,3.91,3.57-.04-3.17-8.87Zm8.88,0l-3.32,8.84,3.44-.04,1.47-3.79v3.77l3.35-.04v-8.74h-4.94Z"/>
    <polygon class="cls-9" points="1675.44 58.68 1675.44 64.89 1679.28 64.89 1679.28 58.58 1675.44 58.68"/>
    <path class="cls-9" d="M1688.49,58.63v6.56h3.86v-5.32h4.72c1.03,0,1.86-.08,2.49-.26,.63-.17,1.1-.49,1.43-.94,.08-.12,.17-.24,.24-.37l-12.74,.33Z"/>
    <path class="cls-9" d="M1714.75,58.07v.45c0,.76-.04,1.36-.11,1.8-.08,.43-.23,.83-.48,1.17-.24,.35-.6,.58-1.07,.72-.47,.13-1.09,.2-1.88,.2s-1.42-.07-1.9-.2c-.47-.13-.83-.37-1.07-.72-.25-.34-.4-.74-.48-1.17-.08-.43-.11-1.03-.11-1.8v-.26l-3.83,.1c.01,.62,.03,1.16,.07,1.6,.05,.75,.17,1.49,.34,2.21,.18,.72,.42,1.26,.73,1.63,.31,.37,.75,.7,1.31,1,.57,.29,1.24,.49,2.02,.58,.78,.09,1.75,.14,2.92,.14s2.11-.05,2.89-.14c.78-.09,1.46-.29,2.02-.58s1-.63,1.32-1c.32-.37,.57-.91,.74-1.62,.18-.71,.29-1.45,.34-2.21,.04-.54,.06-1.2,.07-2l-3.86,.1Z"/>
    <polygon class="cls-9" points="1737.04 57.81 1737.04 65.63 1740.39 65.63 1740.39 57.72 1737.04 57.81"/>
    <polygon class="cls-9" points="1732.04 57.93 1730.9 60.98 1729.83 57.99 1726.28 58.08 1729 65.63 1732.49 65.63 1735.5 57.84 1732.04 57.93"/>
    <polygon class="cls-9" points="1721.4 58.21 1721.4 65.63 1724.76 65.63 1724.76 58.13 1721.4 58.21"/>
  </g>
  <polygon class="cls-9" points="1738.63 50.13 1738.75 51.39 1747.49 49.91 1756.23 48.43 1747.37 48.65 1738.5 48.88 1738.63 50.13"/>
  <polygon class="cls-9" points="1738.63 53.66 1738.7 54.44 1744.08 53.53 1749.45 52.62 1744 52.75 1738.55 52.89 1738.63 53.66"/>
  <polygon class="cls-9" points="1674.98 50.13 1674.86 51.39 1666.11 49.91 1657.37 48.43 1666.24 48.65 1675.1 48.88 1674.98 50.13"/>
  <polygon class="cls-9" points="1674.98 53.66 1674.9 54.44 1669.53 53.53 1664.15 52.62 1669.6 52.75 1675.05 52.89 1674.98 53.66"/>
  <path class="cls-37" d="M1718.92,83.29h-22.03l-15.58-15.58v-22.03l15.58-15.58h22.03l15.58,15.58v22.03l-15.58,15.58Zm-21.25-1.89h20.47l14.47-14.47v-20.47l-14.47-14.47h-20.47l-14.47,14.47v20.47l14.47,14.47Z"/>
  <g>
    <polygon class="cls-5" points="1694.64 68.47 1695.36 69.92 1696.96 70.16 1695.8 71.29 1696.08 72.89 1694.64 72.13 1693.21 72.89 1693.48 71.29 1692.32 70.16 1693.93 69.92 1694.64 68.47"/>
    <polygon class="cls-5" points="1701.27 68.47 1701.99 69.92 1703.6 70.16 1702.44 71.29 1702.71 72.89 1701.27 72.13 1699.84 72.89 1700.11 71.29 1698.95 70.16 1700.56 69.92 1701.27 68.47"/>
    <polygon class="cls-5" points="1707.91 68.47 1708.62 69.92 1710.23 70.16 1709.07 71.29 1709.34 72.89 1707.91 72.13 1706.47 72.89 1706.75 71.29 1705.59 70.16 1707.19 69.92 1707.91 68.47"/>
    <polygon class="cls-5" points="1714.54 68.47 1715.26 69.92 1716.86 70.16 1715.7 71.29 1715.97 72.89 1714.54 72.13 1713.1 72.89 1713.38 71.29 1712.22 70.16 1713.82 69.92 1714.54 68.47"/>
    <polygon class="cls-5" points="1721.17 68.47 1721.89 69.92 1723.49 70.16 1722.33 71.29 1722.6 72.89 1721.17 72.13 1719.74 72.89 1720.01 71.29 1718.85 70.16 1720.45 69.92 1721.17 68.47"/>
  </g>
  <text class="cls-8" style="font-size: 4.5px; white-space: pre;"><tspan x="1699.99" y="38.389">   клуб</tspan><tspan x="1691.85" y="44.989">ЕДИНОБОРСТВ</tspan></text>
  <path class="cls-36" d="M1696.85,30h22.11l15.63,15.63v22.11l-15.63,15.63h-22.11l-15.64-15.63v-22.11l15.64-15.63Zm21.25,2.07h-20.39l-14.42,14.42v20.39l14.42,14.42h20.39l14.42-14.42v-20.39l-14.42-14.42Z"/>
</svg>