<svg width="48" height="48" viewBox="0 0 48 48" fill="none" xmlns="http://www.w3.org/2000/svg">
<path fill-rule="evenodd" clip-rule="evenodd" d="M24 30C27.3137 30 30 27.3137 30 24C30 20.6863 27.3137 18 24 18C20.6863 18 18 20.6863 18 24C18 27.3137 20.6863 30 24 30ZM24 28C26.2091 28 28 26.2091 28 24C28 21.7909 26.2091 20 24 20C21.7909 20 20 21.7909 20 24C20 26.2091 21.7909 28 24 28Z" fill="white"/>
<path d="M30.5 16C29.6716 16 29 16.6716 29 17.5C29 18.3284 29.6716 19 30.5 19C31.3284 19 32 18.3284 32 17.5C32 16.6716 31.3284 16 30.5 16Z" fill="white"/>
<path fill-rule="evenodd" clip-rule="evenodd" d="M18 11C14.134 11 11 14.134 11 18V30C11 33.866 14.134 37 18 37H30C33.866 37 37 33.866 37 30V18C37 14.134 33.866 11 30 11H18ZM30 13H18C15.2386 13 13 15.2386 13 18V30C13 32.7614 15.2386 35 18 35H30C32.7614 35 35 32.7614 35 30V18C35 15.2386 32.7614 13 30 13Z" fill="white"/>
</svg>
