<?xml version="1.0" encoding="utf-8"?>
<svg viewBox="1249.57 1292.04 101.29 28.15" xmlns="http://www.w3.org/2000/svg">
  <defs>
    <style>
      .cls-1 {
        stroke: url(#linear-gradient-10);
      }

      .cls-1, .cls-2, .cls-3 {
        fill: none;
        stroke-miterlimit: 10;
        stroke-width: 4px;
      }

      .cls-2 {
        stroke: url(#linear-gradient-4);
      }

      .cls-4 {
        fill: #ed2024;
      }

      .cls-5, .cls-6, .cls-7, .cls-8 {
        fill: #fff;
      }

      .cls-9, .cls-10 {
        fill: #231f20;
      }

      .cls-11 {
        fill: #606161;
      }

      .cls-6, .cls-10, .cls-7, .cls-8, .cls-12, .cls-13 {
        font-family: AstakhovFirstSimple, 'Astakhov First Simple';
      }

      .cls-6, .cls-12 {
        font-size: 9.44px;
      }

      .cls-10 {
        font-size: 4.56px;
      }

      .cls-7 {
        font-size: 3.91px;
      }

      .cls-8 {
        font-size: 4.45px;
      }

      .cls-14 {
        fill: url(#linear-gradient-8);
      }

      .cls-15 {
        fill: url(#linear-gradient-9);
      }

      .cls-16 {
        fill: url(#linear-gradient-3);
      }

      .cls-17 {
        fill: url(#linear-gradient-2);
      }

      .cls-18 {
        fill: url(#linear-gradient-6);
      }

      .cls-19 {
        fill: url(#linear-gradient-7);
      }

      .cls-20 {
        fill: url(#linear-gradient-5);
      }

      .cls-3 {
        stroke: url(#linear-gradient);
      }

      .cls-21 {
        fill: url(#linear-gradient-14);
      }

      .cls-22 {
        fill: url(#linear-gradient-18);
      }

      .cls-23 {
        fill: url(#linear-gradient-22);
      }

      .cls-24 {
        fill: url(#linear-gradient-20);
      }

      .cls-25 {
        fill: url(#linear-gradient-21);
      }

      .cls-26 {
        fill: url(#linear-gradient-23);
      }

      .cls-27 {
        fill: url(#linear-gradient-15);
      }

      .cls-28 {
        fill: url(#linear-gradient-19);
      }

      .cls-29 {
        fill: url(#linear-gradient-16);
      }

      .cls-30 {
        fill: url(#linear-gradient-17);
      }

      .cls-31 {
        fill: url(#linear-gradient-13);
      }

      .cls-32 {
        fill: url(#linear-gradient-12);
      }

      .cls-33 {
        fill: url(#linear-gradient-11);
      }

      .cls-34 {
        fill: url(#linear-gradient-27);
      }

      .cls-35 {
        fill: url(#linear-gradient-24);
      }

      .cls-36 {
        fill: url(#linear-gradient-26);
      }

      .cls-37 {
        fill: url(#linear-gradient-25);
      }

      .cls-38 {
        fill: url(#linear-gradient-28);
      }

      .cls-39 {
        fill: url(#linear-gradient-29);
      }

      .cls-40 {
        fill: url(#linear-gradient-30);
      }

      .cls-13 {
        font-size: 4.4px;
      }
    </style>
  </defs>
  <g>
    <g>
      <path class="cls-9" d="M1267.25,1303.02v9.8l3.93-.05v-6.36h7.44v-3.39h-11.38Z"/>
      <path class="cls-9" d="M1294.1,1305.89c-.11-.63-.32-1.18-.64-1.65-.32-.46-.78-.79-1.37-.96-.59-.17-1.38-.26-2.38-.26h-9.09v9.63l13.34-.17c.06-.18,.11-.36,.14-.56,.11-.6,.16-1.4,.16-2.41v-1.04c0-1.09-.05-1.95-.16-2.58Zm-3.69,3.8c0,.65-.08,1.11-.24,1.38s-.51,.41-1.05,.41h-4.55v-5.13h4.59c.51,0,.85,.15,1.01,.46s.24,.83,.24,1.55v1.33Z"/>
      <path class="cls-9" d="M1311.44,1308.53c-.05-.77-.17-1.53-.35-2.27-.18-.74-.43-1.3-.76-1.69-.32-.38-.77-.73-1.35-1.03-.58-.3-1.27-.5-2.07-.61-.8-.11-1.78-.16-2.96-.16s-2.18,.05-2.99,.16c-.8,.11-1.49,.31-2.07,.61-.58,.3-1.03,.65-1.34,1.03-.32,.39-.57,.95-.75,1.69-.18,.74-.29,1.5-.35,2.27-.05,.78-.08,1.81-.08,3.09,0,.29,0,.57,0,.84l3.93-.05v-2.73c0-.71,.03-1.27,.11-1.67,.08-.41,.24-.78,.49-1.11,.25-.33,.61-.56,1.1-.69,.48-.13,1.13-.19,1.94-.19,1.52,0,2.51,.26,2.95,.79,.44,.53,.67,1.49,.67,2.88v2.63l3.95-.05c0-.21,0-.42,0-.64,0-1.28-.02-2.31-.08-3.09Z"/>
      <path class="cls-9" d="M1319.5,1303.02h-5.29v9.2l3.44-.04v-4.02l1.45,4,3.66-.04-3.25-9.09Zm9.1,0l-3.4,9.06,3.53-.04,1.5-3.88v3.86l3.44-.04v-8.95h-5.07Z"/>
      <polygon class="cls-9" points="1268.08 1313.07 1268.08 1319.44 1272.01 1319.44 1272.01 1312.96 1268.08 1313.07"/>
      <path class="cls-9" d="M1281.45,1313.01v6.72h3.96v-5.45h4.84c1.06,0,1.9-.09,2.55-.27,.64-.18,1.13-.5,1.47-.96,.09-.12,.17-.25,.24-.38l-13.06,.34Z"/>
      <path class="cls-9" d="M1308.36,1312.44v.46c0,.78-.04,1.4-.11,1.84-.08,.44-.24,.85-.49,1.2-.25,.36-.61,.6-1.1,.73-.48,.14-1.12,.2-1.92,.2s-1.46-.07-1.94-.2c-.48-.14-.85-.38-1.1-.73-.25-.35-.41-.75-.49-1.2-.08-.44-.11-1.06-.11-1.84v-.27l-3.92,.1c.01,.64,.03,1.18,.07,1.64,.05,.77,.17,1.52,.35,2.26,.18,.74,.43,1.3,.75,1.67,.31,.38,.76,.72,1.34,1.02,.58,.3,1.27,.5,2.07,.6,.8,.1,1.8,.14,2.99,.14s2.17-.05,2.96-.14c.8-.1,1.49-.3,2.07-.6s1.03-.64,1.35-1.02c.33-.38,.58-.93,.76-1.66,.18-.73,.3-1.48,.35-2.26,.04-.55,.06-1.23,.07-2.04l-3.95,.11Z"/>
      <polygon class="cls-9" points="1331.19 1312.17 1331.19 1320.19 1334.63 1320.19 1334.63 1312.08 1331.19 1312.17"/>
      <polygon class="cls-9" points="1326.08 1312.3 1324.91 1315.42 1323.81 1312.36 1320.17 1312.46 1322.96 1320.19 1326.54 1320.19 1329.62 1312.21 1326.08 1312.3"/>
      <polygon class="cls-9" points="1315.18 1312.59 1315.18 1320.19 1318.62 1320.19 1318.62 1312.5 1315.18 1312.59"/>
    </g>
    <polygon class="cls-9" points="1332.82 1304.31 1332.95 1305.6 1341.91 1304.08 1350.86 1302.57 1341.78 1302.79 1332.7 1303.02 1332.82 1304.31"/>
    <polygon class="cls-9" points="1332.82 1307.93 1332.9 1308.72 1338.41 1307.79 1343.91 1306.85 1338.33 1306.99 1332.75 1307.14 1332.82 1307.93"/>
    <polygon class="cls-9" points="1267.61 1304.31 1267.48 1305.6 1258.52 1304.08 1249.57 1302.57 1258.65 1302.79 1267.73 1303.02 1267.61 1304.31"/>
    <polygon class="cls-9" points="1267.61 1307.93 1267.53 1308.72 1262.02 1307.79 1256.52 1306.85 1262.1 1306.99 1267.68 1307.14 1267.61 1307.93"/>
    <g>
      <polygon class="cls-9" points="1297.14 1292.04 1297.51 1292.78 1298.33 1292.9 1297.74 1293.48 1297.88 1294.3 1297.14 1293.91 1296.41 1294.3 1296.55 1293.48 1295.95 1292.9 1296.78 1292.78 1297.14 1292.04"/>
      <polygon class="cls-9" points="1300.54 1292.04 1300.91 1292.78 1301.73 1292.9 1301.14 1293.48 1301.28 1294.3 1300.54 1293.91 1299.81 1294.3 1299.95 1293.48 1299.35 1292.9 1300.17 1292.78 1300.54 1292.04"/>
      <polygon class="cls-9" points="1303.94 1292.04 1304.31 1292.78 1305.13 1292.9 1304.53 1293.48 1304.67 1294.3 1303.94 1293.91 1303.2 1294.3 1303.34 1293.48 1302.75 1292.9 1303.57 1292.78 1303.94 1292.04"/>
      <polygon class="cls-9" points="1307.34 1292.04 1307.7 1292.78 1308.53 1292.9 1307.93 1293.48 1308.07 1294.3 1307.34 1293.91 1306.6 1294.3 1306.74 1293.48 1306.15 1292.9 1306.97 1292.78 1307.34 1292.04"/>
      <polygon class="cls-9" points="1310.73 1292.04 1311.1 1292.78 1311.92 1292.9 1311.33 1293.48 1311.47 1294.3 1310.73 1293.91 1310 1294.3 1310.14 1293.48 1309.54 1292.9 1310.37 1292.78 1310.73 1292.04"/>
    </g>
    <text class="cls-10" transform="translate(1285.12 1300.36)" style="white-space: pre;"><tspan x="0" y="0">клуб  ЕДИНОБОРСТВ</tspan></text>
  </g>
</svg>