<?xml version="1.0" encoding="utf-8"?>
<svg viewBox="548.18 128.76 209.58 113.15" xmlns="http://www.w3.org/2000/svg" xmlns:xlink="http://www.w3.org/1999/xlink">
  <defs>
    <linearGradient id="linear-gradient" x1="-1790.82" y1="-1087.23" x2="-1678.06" y2="-1087.23" gradientTransform="translate(-431.92 1919.78) rotate(90)" gradientUnits="userSpaceOnUse">
      <stop offset="0.18" stop-color="#ed1c24"/>
      <stop offset="0.32" stop-color="#ed1c24" stop-opacity="0"/>
    </linearGradient>
    <linearGradient id="linear-gradient-2" x1="-673.84" y1="2575.09" x2="-560.68" y2="2575.09" gradientTransform="translate(-1919.78 -431.92) rotate(-90)" xlink:href="#linear-gradient"/>
    <style>
      .cls-1 {
        stroke: url(#linear-gradient-10);
      }

      .cls-1, .cls-2, .cls-3 {
        fill: none;
        stroke-miterlimit: 10;
        stroke-width: 4px;
      }

      .cls-2 {
        stroke: url(#linear-gradient-4);
      }

      .cls-4 {
        fill: #ed2024;
      }

      .cls-5, .cls-6, .cls-7, .cls-8 {
        fill: #fff;
      }

      .cls-9, .cls-10 {
        fill: #231f20;
      }

      .cls-11 {
        fill: #606161;
      }

      .cls-6, .cls-10, .cls-7, .cls-8, .cls-12, .cls-13 {
        font-family: AstakhovFirstSimple, 'Astakhov First Simple';
      }

      .cls-6, .cls-12 {
        font-size: 9.44px;
      }

      .cls-10 {
        font-size: 4.56px;
      }

      .cls-7 {
        font-size: 3.91px;
      }

      .cls-8 {
        font-size: 4.45px;
      }

      .cls-14 {
        fill: url(#linear-gradient-8);
      }

      .cls-15 {
        fill: url(#linear-gradient-9);
      }

      .cls-16 {
        fill: url(#linear-gradient-3);
      }

      .cls-17 {
        fill: url(#linear-gradient-2);
      }

      .cls-18 {
        fill: url(#linear-gradient-6);
      }

      .cls-19 {
        fill: url(#linear-gradient-7);
      }

      .cls-20 {
        fill: url(#linear-gradient-5);
      }

      .cls-3 {
        stroke: url(#linear-gradient);
      }

      .cls-21 {
        fill: url(#linear-gradient-14);
      }

      .cls-22 {
        fill: url(#linear-gradient-18);
      }

      .cls-23 {
        fill: url(#linear-gradient-22);
      }

      .cls-24 {
        fill: url(#linear-gradient-20);
      }

      .cls-25 {
        fill: url(#linear-gradient-21);
      }

      .cls-26 {
        fill: url(#linear-gradient-23);
      }

      .cls-27 {
        fill: url(#linear-gradient-15);
      }

      .cls-28 {
        fill: url(#linear-gradient-19);
      }

      .cls-29 {
        fill: url(#linear-gradient-16);
      }

      .cls-30 {
        fill: url(#linear-gradient-17);
      }

      .cls-31 {
        fill: url(#linear-gradient-13);
      }

      .cls-32 {
        fill: url(#linear-gradient-12);
      }

      .cls-33 {
        fill: url(#linear-gradient-11);
      }

      .cls-34 {
        fill: url(#linear-gradient-27);
      }

      .cls-35 {
        fill: url(#linear-gradient-24);
      }

      .cls-36 {
        fill: url(#linear-gradient-26);
      }

      .cls-37 {
        fill: url(#linear-gradient-25);
      }

      .cls-38 {
        fill: url(#linear-gradient-28);
      }

      .cls-39 {
        fill: url(#linear-gradient-29);
      }

      .cls-40 {
        fill: url(#linear-gradient-30);
      }

      .cls-13 {
        font-size: 4.4px;
      }
    </style>
  </defs>
  <g>
    <g>
      <path class="cls-5" d="M584.77,168.77v20.28l8.14-.11v-13.15h15.4v-7.02h-23.54Z"/>
      <path class="cls-5" d="M640.32,174.71c-.22-1.31-.66-2.45-1.33-3.42-.67-.96-1.62-1.63-2.83-1.98-1.22-.36-2.86-.54-4.92-.54h-18.81v19.92l27.6-.35c.12-.37,.22-.75,.29-1.15,.22-1.24,.33-2.9,.33-4.99v-2.15c0-2.25-.11-4.03-.33-5.34Zm-7.63,7.86c0,1.35-.16,2.3-.49,2.86s-1.05,.84-2.17,.84h-9.41v-10.62h9.5c1.06,0,1.75,.32,2.08,.96s.49,1.71,.49,3.2v2.76Z"/>
      <path class="cls-5" d="M676.2,180.16c-.11-1.6-.35-3.17-.73-4.7-.37-1.53-.89-2.69-1.57-3.49-.67-.79-1.6-1.5-2.8-2.13-1.2-.62-2.63-1.04-4.29-1.26-1.65-.22-3.69-.33-6.13-.33s-4.52,.11-6.18,.33c-1.65,.22-3.08,.64-4.28,1.26-1.2,.63-2.13,1.34-2.78,2.13-.66,.8-1.17,1.96-1.55,3.49-.37,1.53-.61,3.1-.72,4.7-.11,1.61-.17,3.74-.17,6.39,0,.6,0,1.18,.01,1.73l8.14-.11v-5.64c0-1.47,.07-2.62,.23-3.46,.16-.85,.49-1.61,1.01-2.3,.51-.68,1.27-1.16,2.27-1.43,1-.26,2.34-.39,4.02-.39,3.15,0,5.19,.54,6.11,1.63,.92,1.1,1.38,3.08,1.38,5.95v5.45l8.18-.1c.01-.43,.01-.87,.01-1.33,0-2.65-.05-4.78-.16-6.39Z"/>
      <path class="cls-5" d="M692.88,168.77h-10.95v19.03l7.12-.09v-8.32l2.99,8.28,7.57-.09-6.73-18.81Zm18.82,0l-7.04,18.74,7.3-.09,3.11-8.03v7.99l7.11-.09v-18.52h-10.48Z"/>
      <polygon class="cls-5" points="586.48 189.55 586.48 202.73 594.62 202.73 594.62 189.34 586.48 189.55"/>
      <path class="cls-5" d="M614.15,189.44v13.9h8.19v-11.28h10.01c2.19,0,3.94-.18,5.27-.56,1.33-.37,2.34-1.04,3.04-1.99,.18-.25,.35-.51,.5-.78l-27.01,.71Z"/>
      <path class="cls-5" d="M669.81,188.25v.95c0,1.62-.08,2.89-.23,3.81-.16,.92-.49,1.75-1.01,2.48-.51,.74-1.27,1.24-2.27,1.52-1,.28-2.32,.42-3.98,.42s-3.02-.14-4.02-.42c-1-.28-1.76-.78-2.27-1.52-.52-.73-.85-1.56-1.01-2.48-.16-.92-.23-2.19-.23-3.81v-.56l-8.12,.21c.03,1.32,.07,2.45,.14,3.39,.11,1.59,.35,3.15,.72,4.68,.38,1.53,.89,2.68,1.55,3.46,.65,.78,1.58,1.49,2.78,2.11,1.2,.62,2.63,1.04,4.28,1.24,1.66,.2,3.72,.3,6.18,.3s4.48-.1,6.13-.3c1.66-.2,3.09-.62,4.29-1.24s2.13-1.33,2.8-2.11c.68-.78,1.2-1.92,1.57-3.44,.38-1.51,.62-3.07,.73-4.68,.08-1.14,.13-2.55,.15-4.23l-8.18,.22Z"/>
      <polygon class="cls-5" points="717.07 187.7 717.07 204.29 724.18 204.29 724.18 187.51 717.07 187.7"/>
      <polygon class="cls-5" points="706.48 187.97 704.06 194.42 701.8 188.1 694.26 188.29 700.03 204.29 707.43 204.29 713.82 187.78 706.48 187.97"/>
      <polygon class="cls-5" points="683.93 188.56 683.93 204.29 691.05 204.29 691.05 188.38 683.93 188.56"/>
    </g>
    <polygon class="cls-5" points="720.43 171.44 720.69 174.11 739.23 170.97 757.76 167.82 738.97 168.3 720.18 168.77 720.43 171.44"/>
    <polygon class="cls-5" points="720.43 178.92 720.59 180.56 731.99 178.63 743.38 176.7 731.83 176.99 720.27 177.28 720.43 178.92"/>
    <polygon class="cls-5" points="585.51 171.44 585.25 174.11 566.71 170.97 548.18 167.82 566.97 168.3 585.77 168.77 585.51 171.44"/>
    <polygon class="cls-5" points="585.51 178.92 585.35 180.56 573.95 178.63 562.56 176.7 574.11 176.99 585.67 177.28 585.51 178.92"/>
    <polygon class="cls-3" points="709.69 207.87 709.69 162.82 677.84 130.96 632.79 130.96 600.93 162.82 600.93 207.87 632.79 239.72 677.84 239.72 709.69 207.87"/>
    <g>
      <polygon class="cls-5" points="627.19 210.31 628.71 213.39 632.11 213.89 629.65 216.28 630.24 219.67 627.19 218.07 624.15 219.67 624.73 216.28 622.27 213.89 625.67 213.39 627.19 210.31"/>
      <polygon class="cls-5" points="641.25 210.31 642.77 213.39 646.17 213.89 643.71 216.28 644.29 219.67 641.25 218.07 638.21 219.67 638.79 216.28 636.33 213.89 639.73 213.39 641.25 210.31"/>
      <polygon class="cls-5" points="655.31 210.31 656.83 213.39 660.23 213.89 657.77 216.28 658.35 219.67 655.31 218.07 652.27 219.67 652.85 216.28 650.39 213.89 653.79 213.39 655.31 210.31"/>
      <polygon class="cls-5" points="669.37 210.31 670.89 213.39 674.29 213.89 671.83 216.28 672.41 219.67 669.37 218.07 666.33 219.67 666.91 216.28 664.45 213.89 667.85 213.39 669.37 210.31"/>
      <polygon class="cls-5" points="683.43 210.31 684.95 213.39 688.35 213.89 685.89 216.28 686.47 219.67 683.43 218.07 680.39 219.67 680.97 216.28 678.51 213.89 681.91 213.39 683.43 210.31"/>
    </g>
    <text class="cls-6" transform="translate(645.86 146.38)" style="white-space: pre;"><tspan x="0" y="0">клуб</tspan><tspan x="-17.25" y="14">ЕДИНОБОРСТВ</tspan></text>
    <path class="cls-17" d="M631.88,128.76h46.87l33.14,33.14v46.87l-33.14,33.14h-46.87l-33.15-33.14v-46.87l33.15-33.14Zm45.05,4.4h-43.23l-30.57,30.57v43.23l30.57,30.57h43.23l30.57-30.57v-43.23l-30.57-30.57Z"/>
  </g>
</svg>