<?xml version="1.0" encoding="utf-8"?>
<svg viewBox="548.18 627.59 209.58 113.17" xmlns="http://www.w3.org/2000/svg" xmlns:xlink="http://www.w3.org/1999/xlink">
  <defs>
    <linearGradient id="linear-gradient-17" x1="-1172.67" y1="2575.09" x2="-1059.51" y2="2575.09" gradientTransform="translate(-1919.78 -431.92) rotate(-90)" gradientUnits="userSpaceOnUse">
      <stop offset="0.18" stop-color="#231f20"/>
      <stop offset="0.32" stop-color="#231f20" stop-opacity="0"/>
    </linearGradient>
    <linearGradient id="linear-gradient-18" x1="-1172.67" y1="2575.09" x2="-1059.51" y2="2575.09" gradientTransform="translate(3230.41 1800.27) rotate(90)" xlink:href="#linear-gradient-17"/>
    <style>
      .cls-1 {
        stroke: url(#linear-gradient-10);
      }

      .cls-1, .cls-2, .cls-3 {
        fill: none;
        stroke-miterlimit: 10;
        stroke-width: 4px;
      }

      .cls-2 {
        stroke: url(#linear-gradient-4);
      }

      .cls-4 {
        fill: #ed2024;
      }

      .cls-5, .cls-6, .cls-7, .cls-8 {
        fill: #fff;
      }

      .cls-9, .cls-10 {
        fill: #231f20;
      }

      .cls-11 {
        fill: #606161;
      }

      .cls-6, .cls-10, .cls-7, .cls-8, .cls-12, .cls-13 {
        font-family: AstakhovFirstSimple, 'Astakhov First Simple';
      }

      .cls-6, .cls-12 {
        font-size: 9.44px;
      }

      .cls-10 {
        font-size: 4.56px;
      }

      .cls-7 {
        font-size: 3.91px;
      }

      .cls-8 {
        font-size: 4.45px;
      }

      .cls-14 {
        fill: url(#linear-gradient-8);
      }

      .cls-15 {
        fill: url(#linear-gradient-9);
      }

      .cls-16 {
        fill: url(#linear-gradient-3);
      }

      .cls-17 {
        fill: url(#linear-gradient-2);
      }

      .cls-18 {
        fill: url(#linear-gradient-6);
      }

      .cls-19 {
        fill: url(#linear-gradient-7);
      }

      .cls-20 {
        fill: url(#linear-gradient-5);
      }

      .cls-3 {
        stroke: url(#linear-gradient);
      }

      .cls-21 {
        fill: url(#linear-gradient-14);
      }

      .cls-22 {
        fill: url(#linear-gradient-18);
      }

      .cls-23 {
        fill: url(#linear-gradient-22);
      }

      .cls-24 {
        fill: url(#linear-gradient-20);
      }

      .cls-25 {
        fill: url(#linear-gradient-21);
      }

      .cls-26 {
        fill: url(#linear-gradient-23);
      }

      .cls-27 {
        fill: url(#linear-gradient-15);
      }

      .cls-28 {
        fill: url(#linear-gradient-19);
      }

      .cls-29 {
        fill: url(#linear-gradient-16);
      }

      .cls-30 {
        fill: url(#linear-gradient-17);
      }

      .cls-31 {
        fill: url(#linear-gradient-13);
      }

      .cls-32 {
        fill: url(#linear-gradient-12);
      }

      .cls-33 {
        fill: url(#linear-gradient-11);
      }

      .cls-34 {
        fill: url(#linear-gradient-27);
      }

      .cls-35 {
        fill: url(#linear-gradient-24);
      }

      .cls-36 {
        fill: url(#linear-gradient-26);
      }

      .cls-37 {
        fill: url(#linear-gradient-25);
      }

      .cls-38 {
        fill: url(#linear-gradient-28);
      }

      .cls-39 {
        fill: url(#linear-gradient-29);
      }

      .cls-40 {
        fill: url(#linear-gradient-30);
      }

      .cls-13 {
        font-size: 4.4px;
      }
    </style>
  </defs>
  <path d="M584.77,667.6v20.28l8.14-.11v-13.15h15.4v-7.02h-23.54Z"/>
  <path d="M640.32,673.54c-.22-1.31-.66-2.45-1.33-3.42-.67-.96-1.62-1.63-2.83-1.98-1.22-.36-2.86-.54-4.92-.54h-18.81v19.92l27.6-.35c.12-.37,.22-.75,.29-1.15,.22-1.24,.33-2.9,.33-4.99v-2.15c0-2.25-.11-4.03-.33-5.34Zm-7.63,7.86c0,1.35-.16,2.3-.49,2.86s-1.05,.84-2.17,.84h-9.41v-10.62h9.5c1.06,0,1.75,.32,2.08,.96s.49,1.71,.49,3.2v2.76Z"/>
  <path d="M676.2,678.99c-.11-1.6-.35-3.17-.73-4.7-.37-1.53-.89-2.69-1.57-3.49-.67-.79-1.6-1.5-2.8-2.13-1.2-.62-2.63-1.04-4.29-1.26-1.65-.22-3.69-.33-6.13-.33s-4.52,.11-6.18,.33c-1.65,.22-3.08,.64-4.28,1.26-1.2,.63-2.13,1.34-2.78,2.13-.66,.8-1.17,1.96-1.55,3.49-.37,1.53-.61,3.1-.72,4.7-.11,1.61-.17,3.74-.17,6.39,0,.6,0,1.18,.01,1.73l8.14-.11v-5.64c0-1.47,.07-2.62,.23-3.46,.16-.85,.49-1.61,1.01-2.3,.51-.68,1.27-1.16,2.27-1.43,1-.26,2.34-.39,4.02-.39,3.15,0,5.19,.54,6.11,1.63,.92,1.1,1.38,3.08,1.38,5.95v5.45l8.18-.1c.01-.43,.01-.87,.01-1.33,0-2.65-.05-4.78-.16-6.39Z"/>
  <path d="M692.88,667.6h-10.95v19.03l7.12-.09v-8.32l2.99,8.28,7.57-.09-6.73-18.81Zm18.82,0l-7.04,18.74,7.3-.09,3.11-8.03v7.99l7.11-.09v-18.52h-10.48Z"/>
  <polygon points="586.48 688.38 586.48 701.56 594.62 701.56 594.62 688.17 586.48 688.38"/>
  <path d="M614.15,688.27v13.9h8.19v-11.28h10.01c2.19,0,3.94-.18,5.27-.56,1.33-.37,2.34-1.04,3.04-1.99,.18-.25,.35-.51,.5-.78l-27.01,.71Z"/>
  <path d="M669.81,687.09v.95c0,1.62-.08,2.89-.23,3.81-.16,.92-.49,1.75-1.01,2.48-.51,.74-1.27,1.24-2.27,1.52-1,.28-2.32,.42-3.98,.42s-3.02-.14-4.02-.42c-1-.28-1.76-.78-2.27-1.52-.52-.73-.85-1.56-1.01-2.48-.16-.92-.23-2.19-.23-3.81v-.56l-8.12,.21c.03,1.32,.07,2.45,.14,3.39,.11,1.59,.35,3.15,.72,4.68,.38,1.53,.89,2.68,1.55,3.46,.65,.78,1.58,1.49,2.78,2.11,1.2,.62,2.63,1.04,4.28,1.24,1.66,.2,3.72,.3,6.18,.3s4.48-.1,6.13-.3c1.66-.2,3.09-.62,4.29-1.24s2.13-1.33,2.8-2.11c.68-.78,1.2-1.92,1.57-3.44,.38-1.51,.62-3.07,.73-4.68,.08-1.14,.13-2.55,.15-4.23l-8.18,.22Z"/>
  <polygon points="717.07 686.53 717.07 703.12 724.18 703.12 724.18 686.34 717.07 686.53"/>
  <polygon points="706.48 686.8 704.06 693.25 701.8 686.93 694.26 687.12 700.03 703.12 707.43 703.12 713.82 686.61 706.48 686.8"/>
  <polygon points="683.93 687.39 683.93 703.12 691.05 703.12 691.05 687.21 683.93 687.39"/>
  <polygon points="720.43 670.27 720.69 672.94 739.23 669.8 757.76 666.66 738.97 667.13 720.18 667.6 720.43 670.27"/>
  <polygon points="720.43 677.75 720.59 679.4 731.99 677.46 743.38 675.53 731.83 675.82 720.27 676.11 720.43 677.75"/>
  <polygon points="585.51 670.27 585.25 672.94 566.71 669.8 548.18 666.66 566.97 667.13 585.77 667.6 585.51 670.27"/>
  <polygon points="585.51 677.75 585.35 679.4 573.95 677.46 562.56 675.53 574.11 675.82 585.67 676.11 585.51 677.75"/>
  <polygon points="627.19 709.14 628.71 712.23 632.11 712.72 629.65 715.12 630.24 718.5 627.19 716.91 624.15 718.5 624.73 715.12 622.27 712.72 625.67 712.23 627.19 709.14"/>
  <polygon points="641.25 709.14 642.77 712.23 646.17 712.72 643.71 715.12 644.29 718.5 641.25 716.91 638.21 718.5 638.79 715.12 636.33 712.72 639.73 712.23 641.25 709.14"/>
  <polygon points="655.31 709.14 656.83 712.23 660.23 712.72 657.77 715.12 658.35 718.5 655.31 716.91 652.27 718.5 652.85 715.12 650.39 712.72 653.79 712.23 655.31 709.14"/>
  <polygon points="669.37 709.14 670.89 712.23 674.29 712.72 671.83 715.12 672.41 718.5 669.37 716.91 666.33 718.5 666.91 715.12 664.45 712.72 667.85 712.23 669.37 709.14"/>
  <polygon points="683.43 709.14 684.95 712.23 688.35 712.72 685.89 715.12 686.47 718.5 683.43 716.91 680.39 718.5 680.97 715.12 678.51 712.72 681.91 712.23 683.43 709.14"/>
  <text class="cls-12" transform="matrix(1, 0, 0, 1, 645.859985, 645.219971)" style="white-space: pre;"><tspan x="0" y="0">клуб</tspan><tspan x="-17.25" y="14">ЕДИНОБОРСТВ</tspan></text>
  <path class="cls-30" d="M631.88,627.59h46.87l33.14,33.14v46.87l-33.14,33.14h-46.87l-33.15-33.14v-46.87l33.15-33.14Zm45.05,4.4h-43.23l-30.57,30.57v43.23l30.57,30.57h43.23l30.57-30.57v-43.23l-30.57-30.57Z"/>
  <path class="cls-22" d="M678.75,740.76h-46.87l-33.14-33.14v-46.87l33.14-33.14h46.87l33.15,33.14v46.87l-33.15,33.14Zm-45.05-4.4h43.23l30.57-30.57v-43.23l-30.57-30.57h-43.23l-30.57,30.57v43.23l30.57,30.57Z"/>
</svg>