<svg width="48" height="48" viewBox="0 0 48 48" fill="none" xmlns="http://www.w3.org/2000/svg">
<path d="M10.4417 23.548L16.2005 25.7208L18.4341 32.9634C18.5757 33.4266 19.1425 33.595 19.5092 33.2918L22.7178 30.6474C23.0511 30.3695 23.5345 30.3527 23.8845 30.6138L29.6767 34.8667C30.0767 35.1615 30.6434 34.9425 30.7434 34.454L34.9855 13.8293C35.0938 13.2988 34.5771 12.8524 34.0771 13.0461L10.4334 22.2679C9.85001 22.4952 9.85834 23.329 10.4417 23.548ZM18.0757 24.567L29.335 17.5601C29.535 17.4338 29.7434 17.7117 29.5683 17.8717L20.2759 26.605C19.9509 26.9082 19.7425 27.3209 19.6758 27.7672L19.3591 30.1337C19.3175 30.4537 18.8758 30.479 18.7924 30.1758L17.5757 25.8555C17.4423 25.367 17.6423 24.8365 18.0757 24.567Z" fill="white"/>
</svg>
