<?xml version="1.0" encoding="utf-8"?>
<svg viewBox="0 0 48 48" fill="none" xmlns="http://www.w3.org/2000/svg">
  <rect width="48" height="48" rx="24" fill="#FF6969"/>
  <path d="M10.4417 23.0274L16.2005 25.299L18.4341 32.8708C18.5757 33.3551 19.1425 33.5312 19.5092 33.2142L22.7178 30.4496C23.0511 30.159 23.5345 30.1414 23.8845 30.4144L29.6767 34.8606C30.0767 35.1688 30.6434 34.9399 30.7434 34.4292L34.9855 12.867C35.0938 12.3123 34.5771 11.8457 34.0771 12.0482L10.4334 21.6891C9.85001 21.9268 9.85834 22.7985 10.4417 23.0274ZM18.0757 24.0928L29.335 16.7674C29.535 16.6353 29.7434 16.9259 29.5683 17.0932L20.2759 26.2234C19.9509 26.5404 19.7425 26.9718 19.6758 27.4385L19.3591 29.9125C19.3175 30.2471 18.8758 30.2735 18.7924 29.9565L17.5757 25.4398C17.4423 24.9292 17.6423 24.3745 18.0757 24.0928Z" fill="white"/>
</svg>