<svg width="48" height="48" viewBox="0 0 48 48" fill="none" xmlns="http://www.w3.org/2000/svg">
<path d="M35.4283 19.0091C35.6037 18.4364 35.4283 18 34.5915 18H31.8653C31.1635 18 30.853 18.3682 30.6776 18.7773C30.6776 18.7773 29.2875 22.2 27.317 24.4364C26.6692 25.0773 26.3858 25.2818 26.0349 25.2818C25.8594 25.2818 25.576 25.0773 25.576 24.4909V19.0091C25.576 18.3136 25.414 18 24.8337 18H20.5284C20.0965 18 19.8401 18.3273 19.8401 18.6409C19.8401 19.2955 20.8523 19.4591 20.9198 21.3273V25.3909C20.9198 26.2909 20.7578 26.4545 20.4204 26.4545C19.5027 26.4545 17.2353 23.0045 15.8992 19.0773C15.6292 18.3136 15.3728 18 14.671 18H11.9312C11.162 18 11 18.3682 11 18.7773C11 19.5136 11.9312 23.1409 15.3188 27.9409C17.5727 31.2273 20.7578 33 23.6595 33C25.4005 33 25.6165 32.6045 25.6165 31.9227V29.4409C25.6165 28.6636 25.7784 28.5 26.3318 28.5C26.7367 28.5 27.425 28.7045 29.0445 30.2727C30.907 32.1545 31.2039 33 32.2567 33H34.9829C35.7657 33 36.1571 32.6045 35.9411 31.8273C35.6982 31.05 34.8075 29.9182 33.6333 28.5818C32.9989 27.8318 32.0407 27.0136 31.7438 26.5909C31.3389 26.0727 31.4604 25.8409 31.7438 25.3636C31.7438 25.3636 35.0774 20.6318 35.4283 19.0091Z" fill="white"/>
</svg>
