<?xml version="1.0" encoding="UTF-8"?>
<svg id="Layer_1" data-name="Layer 1" xmlns="http://www.w3.org/2000/svg" xmlns:xlink="http://www.w3.org/1999/xlink" viewBox="0 0 1756.23 1482.23">
  <defs>
    <style>
      .cls-1 {
        stroke: url(#linear-gradient-10);
      }

      .cls-1, .cls-2, .cls-3 {
        fill: none;
        stroke-miterlimit: 10;
        stroke-width: 4px;
      }

      .cls-2 {
        stroke: url(#linear-gradient-4);
      }

      .cls-4 {
        fill: #ed2024;
      }

      .cls-5, .cls-6, .cls-7, .cls-8 {
        fill: #fff;
      }

      .cls-9, .cls-10 {
        fill: #231f20;
      }

      .cls-11 {
        fill: #606161;
      }

      .cls-6, .cls-10, .cls-7, .cls-8, .cls-12, .cls-13 {
        font-family: AstakhovFirstSimple, 'Astakhov First Simple';
      }

      .cls-6, .cls-12 {
        font-size: 9.44px;
      }

      .cls-10 {
        font-size: 4.56px;
      }

      .cls-7 {
        font-size: 3.91px;
      }

      .cls-8 {
        font-size: 4.45px;
      }

      .cls-14 {
        fill: url(#linear-gradient-8);
      }

      .cls-15 {
        fill: url(#linear-gradient-9);
      }

      .cls-16 {
        fill: url(#linear-gradient-3);
      }

      .cls-17 {
        fill: url(#linear-gradient-2);
      }

      .cls-18 {
        fill: url(#linear-gradient-6);
      }

      .cls-19 {
        fill: url(#linear-gradient-7);
      }

      .cls-20 {
        fill: url(#linear-gradient-5);
      }

      .cls-3 {
        stroke: url(#linear-gradient);
      }

      .cls-21 {
        fill: url(#linear-gradient-14);
      }

      .cls-22 {
        fill: url(#linear-gradient-18);
      }

      .cls-23 {
        fill: url(#linear-gradient-22);
      }

      .cls-24 {
        fill: url(#linear-gradient-20);
      }

      .cls-25 {
        fill: url(#linear-gradient-21);
      }

      .cls-26 {
        fill: url(#linear-gradient-23);
      }

      .cls-27 {
        fill: url(#linear-gradient-15);
      }

      .cls-28 {
        fill: url(#linear-gradient-19);
      }

      .cls-29 {
        fill: url(#linear-gradient-16);
      }

      .cls-30 {
        fill: url(#linear-gradient-17);
      }

      .cls-31 {
        fill: url(#linear-gradient-13);
      }

      .cls-32 {
        fill: url(#linear-gradient-12);
      }

      .cls-33 {
        fill: url(#linear-gradient-11);
      }

      .cls-34 {
        fill: url(#linear-gradient-27);
      }

      .cls-35 {
        fill: url(#linear-gradient-24);
      }

      .cls-36 {
        fill: url(#linear-gradient-26);
      }

      .cls-37 {
        fill: url(#linear-gradient-25);
      }

      .cls-38 {
        fill: url(#linear-gradient-28);
      }

      .cls-39 {
        fill: url(#linear-gradient-29);
      }

      .cls-40 {
        fill: url(#linear-gradient-30);
      }

      .cls-13 {
        font-size: 4.4px;
      }
    </style>
    <linearGradient id="linear-gradient" x1="-1790.82" y1="-1087.23" x2="-1678.06" y2="-1087.23" gradientTransform="translate(-431.92 1919.78) rotate(90)" gradientUnits="userSpaceOnUse">
      <stop offset=".18" stop-color="#ed1c24"/>
      <stop offset=".32" stop-color="#ed1c24" stop-opacity="0"/>
    </linearGradient>
    <linearGradient id="linear-gradient-2" x1="-673.84" y1="2575.09" x2="-560.68" y2="2575.09" gradientTransform="translate(-1919.78 -431.92) rotate(-90)" xlink:href="#linear-gradient"/>
    <linearGradient id="linear-gradient-3" x1="-921.1" y1="2575.09" x2="-807.93" y2="2575.09" gradientTransform="translate(-1919.78 -431.92) rotate(-90)" gradientUnits="userSpaceOnUse">
      <stop offset=".18" stop-color="#fff"/>
      <stop offset=".32" stop-color="#fff" stop-opacity="0"/>
    </linearGradient>
    <linearGradient id="linear-gradient-4" x1="-742.48" y1="-855.11" x2="-629.72" y2="-855.11" xlink:href="#linear-gradient"/>
    <linearGradient id="linear-gradient-5" x1="-1722.18" y1="2342.98" x2="-1609.02" y2="2342.98" gradientTransform="translate(-1919.78 -431.92) rotate(-90)" xlink:href="#linear-gradient"/>
    <linearGradient id="linear-gradient-6" x1="-1413.94" y1="2340.64" x2="-1300.78" y2="2340.64" gradientTransform="translate(-1919.78 -431.92) rotate(-90)" gradientUnits="userSpaceOnUse">
      <stop offset=".18" stop-color="#231f20"/>
      <stop offset=".32" stop-color="#231f20" stop-opacity="0"/>
    </linearGradient>
    <linearGradient id="linear-gradient-7" x1="-1413.94" y1="2340.64" x2="-1300.78" y2="2340.64" gradientTransform="translate(2761.49 2282.81) rotate(90)" xlink:href="#linear-gradient-6"/>
    <linearGradient id="linear-gradient-8" x1="-1563.62" y1="2340.64" x2="-1450.46" y2="2340.64" gradientTransform="translate(-1919.78 -431.92) rotate(-90)" gradientUnits="userSpaceOnUse">
      <stop offset=".18" stop-color="#fff"/>
      <stop offset=".32" stop-color="#fff" stop-opacity="0"/>
    </linearGradient>
    <linearGradient id="linear-gradient-9" x1="-1563.62" y1="2340.64" x2="-1450.46" y2="2340.64" gradientTransform="translate(2761.49 2582.16) rotate(90)" xlink:href="#linear-gradient-8"/>
    <linearGradient id="linear-gradient-10" x1="-742.48" y1="-1340.66" x2="-629.72" y2="-1340.66" xlink:href="#linear-gradient"/>
    <linearGradient id="linear-gradient-11" x1="-1722.18" y1="2828.53" x2="-1609.02" y2="2828.53" gradientTransform="translate(-1919.78 -431.92) rotate(-90)" xlink:href="#linear-gradient"/>
    <linearGradient id="linear-gradient-12" y1="2826.19" y2="2826.19" xlink:href="#linear-gradient-6"/>
    <linearGradient id="linear-gradient-13" x1="-1413.94" y1="1855.09" x2="-1300.78" y2="1855.09" gradientTransform="translate(2761.49 2282.81) rotate(90)" xlink:href="#linear-gradient-6"/>
    <linearGradient id="linear-gradient-14" y1="2826.19" y2="2826.19" xlink:href="#linear-gradient-8"/>
    <linearGradient id="linear-gradient-15" x1="-1563.62" y1="1855.09" x2="-1450.46" y2="1855.09" gradientTransform="translate(2761.49 2582.16) rotate(90)" xlink:href="#linear-gradient-8"/>
    <linearGradient id="linear-gradient-16" x1="-1272.72" y1="2575.09" x2="-1159.55" y2="2575.09" gradientTransform="translate(3230.41 1648.73) rotate(90)" xlink:href="#linear-gradient-8"/>
    <linearGradient id="linear-gradient-17" x1="-1172.67" y1="2575.09" x2="-1059.51" y2="2575.09" gradientTransform="translate(-1919.78 -431.92) rotate(-90)" gradientUnits="userSpaceOnUse">
      <stop offset=".18" stop-color="#231f20"/>
      <stop offset=".32" stop-color="#231f20" stop-opacity="0"/>
    </linearGradient>
    <linearGradient id="linear-gradient-18" x1="-1172.67" y1="2575.09" x2="-1059.51" y2="2575.09" gradientTransform="translate(3230.41 1800.27) rotate(90)" xlink:href="#linear-gradient-17"/>
    <linearGradient id="linear-gradient-19" x1="-1879.87" y1="-1939.91" x2="-1836.35" y2="-1939.91" xlink:href="#linear-gradient"/>
    <linearGradient id="linear-gradient-20" x1="-514.15" y1="3427.77" x2="-473.03" y2="3427.77" gradientTransform="translate(-1919.78 -431.92) rotate(-90)" xlink:href="#linear-gradient"/>
    <linearGradient id="linear-gradient-21" x1="-789.23" y1="3221.06" x2="-737.98" y2="3221.06" xlink:href="#linear-gradient-8"/>
    <linearGradient id="linear-gradient-22" x1="-1342.67" y1="1929.13" x2="-1291.42" y2="1929.13" gradientTransform="translate(3230.41 1648.73) rotate(90)" xlink:href="#linear-gradient-8"/>
    <linearGradient id="linear-gradient-23" x1="-1044.03" y1="3221.09" x2="-991.31" y2="3221.09" xlink:href="#linear-gradient-17"/>
    <linearGradient id="linear-gradient-24" x1="-1240.88" y1="1929.1" x2="-1188.15" y2="1929.1" gradientTransform="translate(3230.41 1800.27) rotate(90)" xlink:href="#linear-gradient-17"/>
    <linearGradient id="linear-gradient-25" x1="-1889.69" y1="-2139.82" x2="-1836.49" y2="-2139.82" xlink:href="#linear-gradient"/>
    <linearGradient id="linear-gradient-26" x1="-515.3" y1="3627.69" x2="-461.92" y2="3627.69" gradientTransform="translate(-1919.78 -431.92) rotate(-90)" xlink:href="#linear-gradient"/>
    <linearGradient id="linear-gradient-27" x1="-1889.69" y1="-1733.23" x2="-1836.49" y2="-1733.23" xlink:href="#linear-gradient"/>
    <linearGradient id="linear-gradient-28" x1="-515.3" y1="3221.1" x2="-461.92" y2="3221.1" gradientTransform="translate(-1919.78 -431.92) rotate(-90)" xlink:href="#linear-gradient"/>
    <linearGradient id="linear-gradient-29" x1="-1887.08" y1="-1947.44" x2="-1839.1" y2="-1947.44" xlink:href="#linear-gradient"/>
    <linearGradient id="linear-gradient-30" x1="-945.52" y1="-3236.02" x2="-897.54" y2="-3236.02" gradientTransform="translate(4751.54 -864.83) rotate(-90)" xlink:href="#linear-gradient"/>
  </defs>
  <rect class="cls-11" y="829.88" width="1081.91" height="652.35"/>
  <rect class="cls-9" x="543.58" y="-162.22" width="218.79" height="695.13" transform="translate(838.31 -467.63) rotate(90)"/>
  <g>
    <g>
      <path class="cls-5" d="M584.77,168.77v20.28l8.14-.11v-13.15h15.4v-7.02h-23.54Z"/>
      <path class="cls-5" d="M640.32,174.71c-.22-1.31-.66-2.45-1.33-3.42-.67-.96-1.62-1.63-2.83-1.98-1.22-.36-2.86-.54-4.92-.54h-18.81v19.92l27.6-.35c.12-.37,.22-.75,.29-1.15,.22-1.24,.33-2.9,.33-4.99v-2.15c0-2.25-.11-4.03-.33-5.34Zm-7.63,7.86c0,1.35-.16,2.3-.49,2.86s-1.05,.84-2.17,.84h-9.41v-10.62h9.5c1.06,0,1.75,.32,2.08,.96s.49,1.71,.49,3.2v2.76Z"/>
      <path class="cls-5" d="M676.2,180.16c-.11-1.6-.35-3.17-.73-4.7-.37-1.53-.89-2.69-1.57-3.49-.67-.79-1.6-1.5-2.8-2.13-1.2-.62-2.63-1.04-4.29-1.26-1.65-.22-3.69-.33-6.13-.33s-4.52,.11-6.18,.33c-1.65,.22-3.08,.64-4.28,1.26-1.2,.63-2.13,1.34-2.78,2.13-.66,.8-1.17,1.96-1.55,3.49-.37,1.53-.61,3.1-.72,4.7-.11,1.61-.17,3.74-.17,6.39,0,.6,0,1.18,.01,1.73l8.14-.11v-5.64c0-1.47,.07-2.62,.23-3.46,.16-.85,.49-1.61,1.01-2.3,.51-.68,1.27-1.16,2.27-1.43,1-.26,2.34-.39,4.02-.39,3.15,0,5.19,.54,6.11,1.63,.92,1.1,1.38,3.08,1.38,5.95v5.45l8.18-.1c.01-.43,.01-.87,.01-1.33,0-2.65-.05-4.78-.16-6.39Z"/>
      <path class="cls-5" d="M692.88,168.77h-10.95v19.03l7.12-.09v-8.32l2.99,8.28,7.57-.09-6.73-18.81Zm18.82,0l-7.04,18.74,7.3-.09,3.11-8.03v7.99l7.11-.09v-18.52h-10.48Z"/>
      <polygon class="cls-5" points="586.48 189.55 586.48 202.73 594.62 202.73 594.62 189.34 586.48 189.55"/>
      <path class="cls-5" d="M614.15,189.44v13.9h8.19v-11.28h10.01c2.19,0,3.94-.18,5.27-.56,1.33-.37,2.34-1.04,3.04-1.99,.18-.25,.35-.51,.5-.78l-27.01,.71Z"/>
      <path class="cls-5" d="M669.81,188.25v.95c0,1.62-.08,2.89-.23,3.81-.16,.92-.49,1.75-1.01,2.48-.51,.74-1.27,1.24-2.27,1.52-1,.28-2.32,.42-3.98,.42s-3.02-.14-4.02-.42c-1-.28-1.76-.78-2.27-1.52-.52-.73-.85-1.56-1.01-2.48-.16-.92-.23-2.19-.23-3.81v-.56l-8.12,.21c.03,1.32,.07,2.45,.14,3.39,.11,1.59,.35,3.15,.72,4.68,.38,1.53,.89,2.68,1.55,3.46,.65,.78,1.58,1.49,2.78,2.11,1.2,.62,2.63,1.04,4.28,1.24,1.66,.2,3.72,.3,6.18,.3s4.48-.1,6.13-.3c1.66-.2,3.09-.62,4.29-1.24s2.13-1.33,2.8-2.11c.68-.78,1.2-1.92,1.57-3.44,.38-1.51,.62-3.07,.73-4.68,.08-1.14,.13-2.55,.15-4.23l-8.18,.22Z"/>
      <polygon class="cls-5" points="717.07 187.7 717.07 204.29 724.18 204.29 724.18 187.51 717.07 187.7"/>
      <polygon class="cls-5" points="706.48 187.97 704.06 194.42 701.8 188.1 694.26 188.29 700.03 204.29 707.43 204.29 713.82 187.78 706.48 187.97"/>
      <polygon class="cls-5" points="683.93 188.56 683.93 204.29 691.05 204.29 691.05 188.38 683.93 188.56"/>
    </g>
    <polygon class="cls-5" points="720.43 171.44 720.69 174.11 739.23 170.97 757.76 167.82 738.97 168.3 720.18 168.77 720.43 171.44"/>
    <polygon class="cls-5" points="720.43 178.92 720.59 180.56 731.99 178.63 743.38 176.7 731.83 176.99 720.27 177.28 720.43 178.92"/>
    <polygon class="cls-5" points="585.51 171.44 585.25 174.11 566.71 170.97 548.18 167.82 566.97 168.3 585.77 168.77 585.51 171.44"/>
    <polygon class="cls-5" points="585.51 178.92 585.35 180.56 573.95 178.63 562.56 176.7 574.11 176.99 585.67 177.28 585.51 178.92"/>
    <polygon class="cls-3" points="709.69 207.87 709.69 162.82 677.84 130.96 632.79 130.96 600.93 162.82 600.93 207.87 632.79 239.72 677.84 239.72 709.69 207.87"/>
    <g>
      <polygon class="cls-5" points="627.19 210.31 628.71 213.39 632.11 213.89 629.65 216.28 630.24 219.67 627.19 218.07 624.15 219.67 624.73 216.28 622.27 213.89 625.67 213.39 627.19 210.31"/>
      <polygon class="cls-5" points="641.25 210.31 642.77 213.39 646.17 213.89 643.71 216.28 644.29 219.67 641.25 218.07 638.21 219.67 638.79 216.28 636.33 213.89 639.73 213.39 641.25 210.31"/>
      <polygon class="cls-5" points="655.31 210.31 656.83 213.39 660.23 213.89 657.77 216.28 658.35 219.67 655.31 218.07 652.27 219.67 652.85 216.28 650.39 213.89 653.79 213.39 655.31 210.31"/>
      <polygon class="cls-5" points="669.37 210.31 670.89 213.39 674.29 213.89 671.83 216.28 672.41 219.67 669.37 218.07 666.33 219.67 666.91 216.28 664.45 213.89 667.85 213.39 669.37 210.31"/>
      <polygon class="cls-5" points="683.43 210.31 684.95 213.39 688.35 213.89 685.89 216.28 686.47 219.67 683.43 218.07 680.39 219.67 680.97 216.28 678.51 213.89 681.91 213.39 683.43 210.31"/>
    </g>
    <text class="cls-6" transform="translate(645.86 146.38)"><tspan x="0" y="0">клуб</tspan><tspan x="-17.25" y="14">ЕДИНОБОРСТВ</tspan></text>
    <path class="cls-17" d="M631.88,128.76h46.87l33.14,33.14v46.87l-33.14,33.14h-46.87l-33.15-33.14v-46.87l33.15-33.14Zm45.05,4.4h-43.23l-30.57,30.57v43.23l30.57,30.57h43.23l30.57-30.57v-43.23l-30.57-30.57Z"/>
  </g>
  <rect class="cls-4" x="543.58" y="85.03" width="218.79" height="695.13" transform="translate(1085.57 -220.37) rotate(90)"/>
  <path class="cls-5" d="M584.77,416.03v20.28l8.14-.11v-13.15h15.4v-7.02h-23.54Z"/>
  <path class="cls-5" d="M640.32,421.97c-.22-1.31-.66-2.45-1.33-3.42-.67-.96-1.62-1.63-2.83-1.98-1.22-.36-2.86-.54-4.92-.54h-18.81v19.92l27.6-.35c.12-.37,.22-.75,.29-1.15,.22-1.24,.33-2.9,.33-4.99v-2.15c0-2.25-.11-4.03-.33-5.34Zm-7.63,7.86c0,1.35-.16,2.3-.49,2.86s-1.05,.84-2.17,.84h-9.41v-10.62h9.5c1.06,0,1.75,.32,2.08,.96s.49,1.71,.49,3.2v2.76Z"/>
  <path class="cls-5" d="M676.2,427.42c-.11-1.6-.35-3.17-.73-4.7-.37-1.53-.89-2.69-1.57-3.49-.67-.79-1.6-1.5-2.8-2.13-1.2-.62-2.63-1.04-4.29-1.26-1.65-.22-3.69-.33-6.13-.33s-4.52,.11-6.18,.33c-1.65,.22-3.08,.64-4.28,1.26-1.2,.63-2.13,1.34-2.78,2.13-.66,.8-1.17,1.96-1.55,3.49-.37,1.53-.61,3.1-.72,4.7-.11,1.61-.17,3.74-.17,6.39,0,.6,0,1.18,.01,1.73l8.14-.11v-5.64c0-1.47,.07-2.62,.23-3.46,.16-.85,.49-1.61,1.01-2.3,.51-.68,1.27-1.16,2.27-1.43,1-.26,2.34-.39,4.02-.39,3.15,0,5.19,.54,6.11,1.63,.92,1.1,1.38,3.08,1.38,5.95v5.45l8.18-.1c.01-.43,.01-.87,.01-1.33,0-2.65-.05-4.78-.16-6.39Z"/>
  <path class="cls-5" d="M692.88,416.03h-10.95v19.03l7.12-.09v-8.32l2.99,8.28,7.57-.09-6.73-18.81Zm18.82,0l-7.04,18.74,7.3-.09,3.11-8.03v7.99l7.11-.09v-18.52h-10.48Z"/>
  <polygon class="cls-5" points="586.48 436.81 586.48 449.99 594.62 449.99 594.62 436.6 586.48 436.81"/>
  <path class="cls-5" d="M614.15,436.7v13.9h8.19v-11.28h10.01c2.19,0,3.94-.18,5.27-.56,1.33-.37,2.34-1.04,3.04-1.99,.18-.25,.35-.51,.5-.78l-27.01,.71Z"/>
  <path class="cls-5" d="M669.81,435.51v.95c0,1.62-.08,2.89-.23,3.81-.16,.92-.49,1.75-1.01,2.48-.51,.74-1.27,1.24-2.27,1.52-1,.28-2.32,.42-3.98,.42s-3.02-.14-4.02-.42c-1-.28-1.76-.78-2.27-1.52-.52-.73-.85-1.56-1.01-2.48-.16-.92-.23-2.19-.23-3.81v-.56l-8.12,.21c.03,1.32,.07,2.45,.14,3.39,.11,1.59,.35,3.15,.72,4.68,.38,1.53,.89,2.68,1.55,3.46,.65,.78,1.58,1.49,2.78,2.11,1.2,.62,2.63,1.04,4.28,1.24,1.66,.2,3.72,.3,6.18,.3s4.48-.1,6.13-.3c1.66-.2,3.09-.62,4.29-1.24s2.13-1.33,2.8-2.11c.68-.78,1.2-1.92,1.57-3.44,.38-1.51,.62-3.07,.73-4.68,.08-1.14,.13-2.55,.15-4.23l-8.18,.22Z"/>
  <polygon class="cls-5" points="717.07 434.96 717.07 451.55 724.18 451.55 724.18 434.77 717.07 434.96"/>
  <polygon class="cls-5" points="706.48 435.23 704.06 441.68 701.8 435.36 694.26 435.55 700.03 451.55 707.43 451.55 713.82 435.04 706.48 435.23"/>
  <polygon class="cls-5" points="683.93 435.82 683.93 451.55 691.05 451.55 691.05 435.64 683.93 435.82"/>
  <polygon class="cls-5" points="720.43 418.69 720.69 421.36 739.23 418.22 757.76 415.08 738.97 415.55 720.18 416.03 720.43 418.69"/>
  <polygon class="cls-5" points="720.43 426.18 720.59 427.82 731.99 425.89 743.38 423.96 731.83 424.25 720.27 424.54 720.43 426.18"/>
  <polygon class="cls-5" points="585.51 418.69 585.25 421.36 566.71 418.22 548.18 415.08 566.97 415.55 585.77 416.03 585.51 418.69"/>
  <polygon class="cls-5" points="585.51 426.18 585.35 427.82 573.95 425.89 562.56 423.96 574.11 424.25 585.67 424.54 585.51 426.18"/>
  <polygon class="cls-5" points="627.19 457.57 628.71 460.65 632.11 461.14 629.65 463.54 630.24 466.93 627.19 465.33 624.15 466.93 624.73 463.54 622.27 461.14 625.67 460.65 627.19 457.57"/>
  <polygon class="cls-5" points="641.25 457.57 642.77 460.65 646.17 461.14 643.71 463.54 644.29 466.93 641.25 465.33 638.21 466.93 638.79 463.54 636.33 461.14 639.73 460.65 641.25 457.57"/>
  <polygon class="cls-5" points="655.31 457.57 656.83 460.65 660.23 461.14 657.77 463.54 658.35 466.93 655.31 465.33 652.27 466.93 652.85 463.54 650.39 461.14 653.79 460.65 655.31 457.57"/>
  <polygon class="cls-5" points="669.37 457.57 670.89 460.65 674.29 461.14 671.83 463.54 672.41 466.93 669.37 465.33 666.33 466.93 666.91 463.54 664.45 461.14 667.85 460.65 669.37 457.57"/>
  <polygon class="cls-5" points="683.43 457.57 684.95 460.65 688.35 461.14 685.89 463.54 686.47 466.93 683.43 465.33 680.39 466.93 680.97 463.54 678.51 461.14 681.91 460.65 683.43 457.57"/>
  <text class="cls-6" transform="translate(645.86 393.64)"><tspan x="0" y="0">клуб</tspan><tspan x="-17.25" y="14">ЕДИНОБОРСТВ</tspan></text>
  <path class="cls-16" d="M631.88,376.02h46.87l33.14,33.14v46.87l-33.14,33.14h-46.87l-33.15-33.14v-46.87l33.15-33.14Zm45.05,4.4h-43.23l-30.57,30.57v43.23l30.57,30.57h43.23l30.57-30.57v-43.23l-30.57-30.57Z"/>
  <g>
    <path class="cls-5" d="M352.65,1217.11v20.28l8.14-.11v-13.15h15.4v-7.02h-23.54Z"/>
    <path class="cls-5" d="M408.2,1223.05c-.22-1.31-.66-2.45-1.33-3.42-.67-.96-1.62-1.63-2.83-1.98-1.22-.36-2.86-.54-4.92-.54h-18.81v19.92l27.6-.35c.12-.37,.22-.75,.29-1.15,.22-1.24,.33-2.9,.33-4.99v-2.15c0-2.25-.11-4.03-.33-5.34Zm-7.63,7.86c0,1.35-.16,2.3-.49,2.86s-1.05,.84-2.17,.84h-9.41v-10.62h9.5c1.06,0,1.75,.32,2.08,.96s.49,1.71,.49,3.2v2.76Z"/>
    <path class="cls-5" d="M444.08,1228.5c-.11-1.6-.35-3.17-.73-4.7-.37-1.53-.89-2.69-1.57-3.49-.67-.79-1.6-1.5-2.8-2.13-1.2-.62-2.63-1.04-4.29-1.26-1.65-.22-3.69-.33-6.13-.33s-4.52,.11-6.18,.33c-1.65,.22-3.08,.64-4.28,1.26-1.2,.63-2.13,1.34-2.78,2.13-.66,.8-1.17,1.96-1.55,3.49-.37,1.53-.61,3.1-.72,4.7-.11,1.61-.17,3.74-.17,6.39,0,.6,0,1.18,.01,1.73l8.14-.11v-5.64c0-1.47,.07-2.62,.23-3.46,.16-.85,.49-1.61,1.01-2.3,.51-.68,1.27-1.16,2.27-1.43,1-.26,2.34-.39,4.02-.39,3.15,0,5.19,.54,6.11,1.63,.92,1.1,1.38,3.08,1.38,5.95v5.45l8.18-.1c.01-.43,.01-.87,.01-1.33,0-2.65-.05-4.78-.16-6.39Z"/>
    <path class="cls-5" d="M460.76,1217.11h-10.95v19.03l7.12-.09v-8.32l2.99,8.28,7.57-.09-6.73-18.81Zm18.82,0l-7.04,18.74,7.3-.09,3.11-8.03v7.99l7.11-.09v-18.52h-10.48Z"/>
    <polygon class="cls-5" points="354.37 1237.89 354.37 1251.07 362.51 1251.07 362.51 1237.68 354.37 1237.89"/>
    <path class="cls-5" d="M382.03,1237.78v13.9h8.19v-11.28h10.01c2.19,0,3.94-.18,5.27-.56,1.33-.37,2.34-1.04,3.04-1.99,.18-.25,.35-.51,.5-.78l-27.01,.71Z"/>
    <path class="cls-5" d="M437.7,1236.6v.95c0,1.62-.08,2.89-.23,3.81-.16,.92-.49,1.75-1.01,2.48-.51,.74-1.27,1.24-2.27,1.52-1,.28-2.32,.42-3.98,.42s-3.02-.14-4.02-.42c-1-.28-1.76-.78-2.27-1.52-.52-.73-.85-1.56-1.01-2.48-.16-.92-.23-2.19-.23-3.81v-.56l-8.12,.21c.03,1.32,.07,2.45,.14,3.39,.11,1.59,.35,3.15,.72,4.68,.38,1.53,.89,2.68,1.55,3.46,.65,.78,1.58,1.49,2.78,2.11,1.2,.62,2.63,1.04,4.28,1.24,1.66,.2,3.72,.3,6.18,.3s4.48-.1,6.13-.3c1.66-.2,3.09-.62,4.29-1.24s2.13-1.33,2.8-2.11c.68-.78,1.2-1.92,1.57-3.44,.38-1.51,.62-3.07,.73-4.68,.08-1.14,.13-2.55,.15-4.23l-8.18,.22Z"/>
    <polygon class="cls-5" points="484.95 1236.04 484.95 1252.63 492.06 1252.63 492.06 1235.85 484.95 1236.04"/>
    <polygon class="cls-5" points="474.36 1236.31 471.94 1242.76 469.68 1236.44 462.14 1236.63 467.91 1252.63 475.31 1252.63 481.7 1236.12 474.36 1236.31"/>
    <polygon class="cls-5" points="451.81 1236.9 451.81 1252.63 458.93 1252.63 458.93 1236.72 451.81 1236.9"/>
  </g>
  <polygon class="cls-5" points="488.32 1219.78 488.58 1222.45 507.11 1219.31 525.64 1216.17 506.85 1216.64 488.06 1217.11 488.32 1219.78"/>
  <polygon class="cls-5" points="488.32 1227.27 488.48 1228.91 499.87 1226.98 511.27 1225.04 499.71 1225.33 488.16 1225.62 488.32 1227.27"/>
  <polygon class="cls-5" points="353.39 1219.78 353.13 1222.45 334.6 1219.31 316.07 1216.17 334.86 1216.64 353.65 1217.11 353.39 1219.78"/>
  <polygon class="cls-5" points="353.39 1227.27 353.23 1228.91 341.84 1226.98 330.44 1225.04 342 1225.33 353.55 1225.62 353.39 1227.27"/>
  <polygon class="cls-2" points="477.58 1256.21 477.58 1211.16 445.72 1179.3 400.67 1179.3 368.81 1211.16 368.81 1256.21 400.67 1288.07 445.72 1288.07 477.58 1256.21"/>
  <g>
    <polygon class="cls-5" points="395.08 1258.65 396.6 1261.74 400 1262.23 397.54 1264.63 398.12 1268.02 395.08 1266.42 392.04 1268.02 392.62 1264.63 390.16 1262.23 393.56 1261.74 395.08 1258.65"/>
    <polygon class="cls-5" points="409.14 1258.65 410.66 1261.74 414.06 1262.23 411.6 1264.63 412.18 1268.02 409.14 1266.42 406.1 1268.02 406.68 1264.63 404.22 1262.23 407.62 1261.74 409.14 1258.65"/>
    <polygon class="cls-5" points="423.2 1258.65 424.72 1261.74 428.12 1262.23 425.66 1264.63 426.24 1268.02 423.2 1266.42 420.16 1268.02 420.74 1264.63 418.28 1262.23 421.68 1261.74 423.2 1258.65"/>
    <polygon class="cls-5" points="437.26 1258.65 438.78 1261.74 442.18 1262.23 439.72 1264.63 440.3 1268.02 437.26 1266.42 434.21 1268.02 434.8 1264.63 432.33 1262.23 435.73 1261.74 437.26 1258.65"/>
    <polygon class="cls-5" points="451.31 1258.65 452.84 1261.74 456.24 1262.23 453.78 1264.63 454.36 1268.02 451.31 1266.42 448.27 1268.02 448.85 1264.63 446.39 1262.23 449.79 1261.74 451.31 1258.65"/>
  </g>
  <text class="cls-6" transform="translate(413.74 1194.73)"><tspan x="0" y="0">клуб</tspan><tspan x="-17.25" y="14">ЕДИНОБОРСТВ</tspan></text>
  <path class="cls-20" d="M399.76,1177.1h46.87l33.14,33.14v46.87l-33.14,33.14h-46.87l-33.15-33.14v-46.87l33.15-33.14Zm45.05,4.4h-43.23l-30.57,30.57v43.23l30.57,30.57h43.23l30.57-30.57v-43.23l-30.57-30.57Z"/>
  <g>
    <path class="cls-5" d="M350.31,908.87v20.28l8.14-.11v-13.15h15.4v-7.02h-23.54Z"/>
    <path class="cls-5" d="M405.86,914.81c-.22-1.31-.66-2.45-1.33-3.42-.67-.96-1.62-1.63-2.83-1.98-1.22-.36-2.86-.54-4.92-.54h-18.81v19.92l27.6-.35c.12-.37,.22-.75,.29-1.15,.22-1.24,.33-2.9,.33-4.99v-2.15c0-2.25-.11-4.03-.33-5.34Zm-7.63,7.86c0,1.35-.16,2.3-.49,2.86s-1.05,.84-2.17,.84h-9.41v-10.62h9.5c1.06,0,1.75,.32,2.08,.96s.49,1.71,.49,3.2v2.76Z"/>
    <path class="cls-5" d="M441.74,920.26c-.11-1.6-.35-3.17-.73-4.7-.37-1.53-.89-2.69-1.57-3.49-.67-.79-1.6-1.5-2.8-2.13-1.2-.62-2.63-1.04-4.29-1.26-1.65-.22-3.69-.33-6.13-.33s-4.52,.11-6.18,.33c-1.65,.22-3.08,.64-4.28,1.26-1.2,.63-2.13,1.34-2.78,2.13-.66,.8-1.17,1.96-1.55,3.49-.37,1.53-.61,3.1-.72,4.7-.11,1.61-.17,3.74-.17,6.39,0,.6,0,1.18,.01,1.73l8.14-.11v-5.64c0-1.47,.07-2.62,.23-3.46,.16-.85,.49-1.61,1.01-2.3,.51-.68,1.27-1.16,2.27-1.43,1-.26,2.34-.39,4.02-.39,3.15,0,5.19,.54,6.11,1.63,.92,1.1,1.38,3.08,1.38,5.95v5.45l8.18-.1c.01-.43,.01-.87,.01-1.33,0-2.65-.05-4.78-.16-6.39Z"/>
    <path class="cls-5" d="M458.42,908.87h-10.95v19.03l7.12-.09v-8.32l2.99,8.28,7.57-.09-6.73-18.81Zm18.82,0l-7.04,18.74,7.3-.09,3.11-8.03v7.99l7.11-.09v-18.52h-10.48Z"/>
    <polygon class="cls-5" points="352.03 929.65 352.03 942.83 360.17 942.83 360.17 929.44 352.03 929.65"/>
    <path class="cls-5" d="M379.69,929.54v13.9h8.19v-11.28h10.01c2.19,0,3.94-.18,5.27-.56,1.33-.37,2.34-1.04,3.04-1.99,.18-.25,.35-.51,.5-.78l-27.01,.71Z"/>
    <path class="cls-5" d="M435.36,928.36v.95c0,1.62-.08,2.89-.23,3.81-.16,.92-.49,1.75-1.01,2.48-.51,.74-1.27,1.24-2.27,1.52-1,.28-2.32,.42-3.98,.42s-3.02-.14-4.02-.42c-1-.28-1.76-.78-2.27-1.52-.52-.73-.85-1.56-1.01-2.48-.16-.92-.23-2.19-.23-3.81v-.56l-8.12,.21c.03,1.32,.07,2.45,.14,3.39,.11,1.59,.35,3.15,.72,4.68,.38,1.53,.89,2.68,1.55,3.46,.65,.78,1.58,1.49,2.78,2.11,1.2,.62,2.63,1.04,4.28,1.24,1.66,.2,3.72,.3,6.18,.3s4.48-.1,6.13-.3c1.66-.2,3.09-.62,4.29-1.24,1.2-.62,2.13-1.33,2.8-2.11,.68-.78,1.2-1.92,1.57-3.44,.38-1.51,.62-3.07,.73-4.68,.08-1.14,.13-2.55,.15-4.23l-8.18,.22Z"/>
    <polygon class="cls-5" points="482.61 927.8 482.61 944.39 489.72 944.39 489.72 927.61 482.61 927.8"/>
    <polygon class="cls-5" points="472.02 928.07 469.6 934.52 467.34 928.2 459.8 928.39 465.57 944.39 472.97 944.39 479.36 927.88 472.02 928.07"/>
    <polygon class="cls-5" points="449.47 928.66 449.47 944.39 456.59 944.39 456.59 928.48 449.47 928.66"/>
  </g>
  <polygon class="cls-5" points="485.98 911.54 486.24 914.21 504.77 911.07 523.3 907.93 504.51 908.4 485.72 908.87 485.98 911.54"/>
  <polygon class="cls-5" points="485.98 919.03 486.14 920.67 497.53 918.74 508.92 916.8 497.37 917.09 485.82 917.38 485.98 919.03"/>
  <polygon class="cls-5" points="351.05 911.54 350.79 914.21 332.26 911.07 313.73 907.93 332.52 908.4 351.31 908.87 351.05 911.54"/>
  <polygon class="cls-5" points="351.05 919.03 350.89 920.67 339.5 918.74 328.1 916.8 339.66 917.09 351.21 917.38 351.05 919.03"/>
  <g>
    <polygon class="cls-5" points="392.74 950.42 394.26 953.5 397.66 953.99 395.2 956.39 395.78 959.78 392.74 958.18 389.7 959.78 390.28 956.39 387.82 953.99 391.22 953.5 392.74 950.42"/>
    <polygon class="cls-5" points="406.8 950.42 408.32 953.5 411.72 953.99 409.26 956.39 409.84 959.78 406.8 958.18 403.75 959.78 404.34 956.39 401.88 953.99 405.28 953.5 406.8 950.42"/>
    <polygon class="cls-5" points="420.86 950.42 422.38 953.5 425.78 953.99 423.32 956.39 423.9 959.78 420.86 958.18 417.81 959.78 418.39 956.39 415.93 953.99 419.33 953.5 420.86 950.42"/>
    <polygon class="cls-5" points="434.91 950.42 436.44 953.5 439.84 953.99 437.37 956.39 437.96 959.78 434.91 958.18 431.87 959.78 432.45 956.39 429.99 953.99 433.39 953.5 434.91 950.42"/>
    <polygon class="cls-5" points="448.97 950.42 450.49 953.5 453.89 953.99 451.43 956.39 452.01 959.78 448.97 958.18 445.93 959.78 446.51 956.39 444.05 953.99 447.45 953.5 448.97 950.42"/>
  </g>
  <text class="cls-6" transform="translate(411.4 886.49)"><tspan x="0" y="0">клуб</tspan><tspan x="-17.25" y="14">ЕДИНОБОРСТВ</tspan></text>
  <path class="cls-18" d="M397.42,868.87h46.87l33.14,33.14v46.87l-33.14,33.14h-46.87l-33.15-33.14v-46.87l33.15-33.14Zm45.05,4.4h-43.23l-30.57,30.57v43.23l30.57,30.57h43.23l30.57-30.57v-43.23l-30.57-30.57Z"/>
  <path class="cls-19" d="M444.29,982.03h-46.87l-33.14-33.14v-46.87l33.14-33.14h46.87l33.15,33.14v46.87l-33.15,33.14Zm-45.05-4.4h43.23l30.57-30.57v-43.23l-30.57-30.57h-43.23l-30.57,30.57v43.23l30.57,30.57Z"/>
  <g>
    <path class="cls-5" d="M350.31,1058.55v20.28l8.14-.11v-13.15h15.4v-7.02h-23.54Z"/>
    <path class="cls-5" d="M405.86,1064.49c-.22-1.31-.66-2.45-1.33-3.42-.67-.96-1.62-1.63-2.83-1.98-1.22-.36-2.86-.54-4.92-.54h-18.81v19.92l27.6-.35c.12-.37,.22-.75,.29-1.15,.22-1.24,.33-2.9,.33-4.99v-2.15c0-2.25-.11-4.03-.33-5.34Zm-7.63,7.86c0,1.35-.16,2.3-.49,2.86s-1.05,.84-2.17,.84h-9.41v-10.62h9.5c1.06,0,1.75,.32,2.08,.96s.49,1.71,.49,3.2v2.76Z"/>
    <path class="cls-5" d="M441.74,1069.94c-.11-1.6-.35-3.17-.73-4.7-.37-1.53-.89-2.69-1.57-3.49-.67-.79-1.6-1.5-2.8-2.13-1.2-.62-2.63-1.04-4.29-1.26-1.65-.22-3.69-.33-6.13-.33s-4.52,.11-6.18,.33c-1.65,.22-3.08,.64-4.28,1.26-1.2,.63-2.13,1.34-2.78,2.13-.66,.8-1.17,1.96-1.55,3.49-.37,1.53-.61,3.1-.72,4.7-.11,1.61-.17,3.74-.17,6.39,0,.6,0,1.18,.01,1.73l8.14-.11v-5.64c0-1.47,.07-2.62,.23-3.46,.16-.85,.49-1.61,1.01-2.3,.51-.68,1.27-1.16,2.27-1.43,1-.26,2.34-.39,4.02-.39,3.15,0,5.19,.54,6.11,1.63,.92,1.1,1.38,3.08,1.38,5.95v5.45l8.18-.1c.01-.43,.01-.87,.01-1.33,0-2.65-.05-4.78-.16-6.39Z"/>
    <path class="cls-5" d="M458.42,1058.55h-10.95v19.03l7.12-.09v-8.32l2.99,8.28,7.57-.09-6.73-18.81Zm18.82,0l-7.04,18.74,7.3-.09,3.11-8.03v7.99l7.11-.09v-18.52h-10.48Z"/>
    <polygon class="cls-5" points="352.03 1079.33 352.03 1092.51 360.17 1092.51 360.17 1079.12 352.03 1079.33"/>
    <path class="cls-5" d="M379.69,1079.22v13.9h8.19v-11.28h10.01c2.19,0,3.94-.18,5.27-.56,1.33-.37,2.34-1.04,3.04-1.99,.18-.25,.35-.51,.5-.78l-27.01,.71Z"/>
    <path class="cls-5" d="M435.36,1078.04v.95c0,1.62-.08,2.89-.23,3.81-.16,.92-.49,1.75-1.01,2.48-.51,.74-1.27,1.24-2.27,1.52-1,.28-2.32,.42-3.98,.42s-3.02-.14-4.02-.42c-1-.28-1.76-.78-2.27-1.52-.52-.73-.85-1.56-1.01-2.48-.16-.92-.23-2.19-.23-3.81v-.56l-8.12,.21c.03,1.32,.07,2.45,.14,3.39,.11,1.59,.35,3.15,.72,4.68,.38,1.53,.89,2.68,1.55,3.46,.65,.78,1.58,1.49,2.78,2.11,1.2,.62,2.63,1.04,4.28,1.24,1.66,.2,3.72,.3,6.18,.3s4.48-.1,6.13-.3c1.66-.2,3.09-.62,4.29-1.24,1.2-.62,2.13-1.33,2.8-2.11,.68-.78,1.2-1.92,1.57-3.44,.38-1.51,.62-3.07,.73-4.68,.08-1.14,.13-2.55,.15-4.23l-8.18,.22Z"/>
    <polygon class="cls-5" points="482.61 1077.48 482.61 1094.07 489.72 1094.07 489.72 1077.29 482.61 1077.48"/>
    <polygon class="cls-5" points="472.02 1077.75 469.6 1084.2 467.34 1077.88 459.8 1078.07 465.57 1094.07 472.97 1094.07 479.36 1077.56 472.02 1077.75"/>
    <polygon class="cls-5" points="449.47 1078.34 449.47 1094.07 456.59 1094.07 456.59 1078.16 449.47 1078.34"/>
  </g>
  <polygon class="cls-5" points="485.98 1061.22 486.24 1063.89 504.77 1060.75 523.3 1057.61 504.51 1058.08 485.72 1058.55 485.98 1061.22"/>
  <polygon class="cls-5" points="485.98 1068.7 486.14 1070.34 497.53 1068.41 508.92 1066.48 497.37 1066.77 485.82 1067.06 485.98 1068.7"/>
  <polygon class="cls-5" points="351.05 1061.22 350.79 1063.89 332.26 1060.75 313.73 1057.61 332.52 1058.08 351.31 1058.55 351.05 1061.22"/>
  <polygon class="cls-5" points="351.05 1068.7 350.89 1070.34 339.5 1068.41 328.1 1066.48 339.66 1066.77 351.21 1067.06 351.05 1068.7"/>
  <g>
    <polygon class="cls-5" points="392.74 1100.09 394.26 1103.17 397.66 1103.67 395.2 1106.07 395.78 1109.45 392.74 1107.85 389.7 1109.45 390.28 1106.07 387.82 1103.67 391.22 1103.17 392.74 1100.09"/>
    <polygon class="cls-5" points="406.8 1100.09 408.32 1103.17 411.72 1103.67 409.26 1106.07 409.84 1109.45 406.8 1107.85 403.75 1109.45 404.34 1106.07 401.88 1103.67 405.28 1103.17 406.8 1100.09"/>
    <polygon class="cls-5" points="420.86 1100.09 422.38 1103.17 425.78 1103.67 423.32 1106.07 423.9 1109.45 420.86 1107.85 417.81 1109.45 418.39 1106.07 415.93 1103.67 419.33 1103.17 420.86 1100.09"/>
    <polygon class="cls-5" points="434.91 1100.09 436.44 1103.17 439.84 1103.67 437.37 1106.07 437.96 1109.45 434.91 1107.85 431.87 1109.45 432.45 1106.07 429.99 1103.67 433.39 1103.17 434.91 1100.09"/>
    <polygon class="cls-5" points="448.97 1100.09 450.49 1103.17 453.89 1103.67 451.43 1106.07 452.01 1109.45 448.97 1107.85 445.93 1109.45 446.51 1106.07 444.05 1103.67 447.45 1103.17 448.97 1100.09"/>
  </g>
  <text class="cls-6" transform="translate(411.4 1036.17)"><tspan x="0" y="0">клуб</tspan><tspan x="-17.25" y="14">ЕДИНОБОРСТВ</tspan></text>
  <path class="cls-14" d="M397.42,1018.54h46.87l33.14,33.14v46.87l-33.14,33.14h-46.87l-33.15-33.14v-46.87l33.15-33.14Zm45.05,4.4h-43.23l-30.57,30.57v43.23l30.57,30.57h43.23l30.57-30.57v-43.23l-30.57-30.57Z"/>
  <path class="cls-15" d="M444.29,1131.71h-46.87l-33.14-33.14v-46.87l33.14-33.14h46.87l33.15,33.14v46.87l-33.15,33.14Zm-45.05-4.4h43.23l30.57-30.57v-43.23l-30.57-30.57h-43.23l-30.57,30.57v43.23l30.57,30.57Z"/>
  <g>
    <path class="cls-5" d="M838.2,1217.11v20.28l8.14-.11v-13.15h15.4v-7.02h-23.54Z"/>
    <path class="cls-5" d="M893.75,1223.05c-.22-1.31-.66-2.45-1.33-3.42-.67-.96-1.62-1.63-2.83-1.98-1.22-.36-2.86-.54-4.92-.54h-18.81v19.92l27.6-.35c.12-.37,.22-.75,.29-1.15,.22-1.24,.33-2.9,.33-4.99v-2.15c0-2.25-.11-4.03-.33-5.34Zm-7.63,7.86c0,1.35-.16,2.3-.49,2.86s-1.05,.84-2.17,.84h-9.41v-10.62h9.5c1.06,0,1.75,.32,2.08,.96,.33,.64,.49,1.71,.49,3.2v2.76Z"/>
    <path class="cls-5" d="M929.63,1228.5c-.11-1.6-.35-3.17-.73-4.7-.37-1.53-.89-2.69-1.57-3.49-.67-.79-1.6-1.5-2.8-2.13-1.2-.62-2.63-1.04-4.29-1.26-1.65-.22-3.69-.33-6.13-.33s-4.52,.11-6.18,.33c-1.65,.22-3.08,.64-4.28,1.26-1.2,.63-2.13,1.34-2.78,2.13-.66,.8-1.17,1.96-1.55,3.49-.37,1.53-.61,3.1-.72,4.7-.11,1.61-.17,3.74-.17,6.39,0,.6,0,1.18,.01,1.73l8.14-.11v-5.64c0-1.47,.07-2.62,.23-3.46,.16-.85,.49-1.61,1.01-2.3,.51-.68,1.27-1.16,2.27-1.43,1-.26,2.34-.39,4.02-.39,3.15,0,5.19,.54,6.11,1.63,.92,1.1,1.38,3.08,1.38,5.95v5.45l8.18-.1c.01-.43,.01-.87,.01-1.33,0-2.65-.05-4.78-.16-6.39Z"/>
    <path class="cls-5" d="M946.31,1217.11h-10.95v19.03l7.12-.09v-8.32l2.99,8.28,7.57-.09-6.73-18.81Zm18.82,0l-7.04,18.74,7.3-.09,3.11-8.03v7.99l7.11-.09v-18.52h-10.48Z"/>
    <polygon class="cls-5" points="839.92 1237.89 839.92 1251.07 848.06 1251.07 848.06 1237.68 839.92 1237.89"/>
    <path class="cls-5" d="M867.58,1237.78v13.9h8.19v-11.28h10.01c2.19,0,3.94-.18,5.27-.56,1.33-.37,2.34-1.04,3.04-1.99,.18-.25,.35-.51,.5-.78l-27.01,.71Z"/>
    <path class="cls-5" d="M923.25,1236.6v.95c0,1.62-.08,2.89-.23,3.81-.16,.92-.49,1.75-1.01,2.48-.51,.74-1.27,1.24-2.27,1.52-1,.28-2.32,.42-3.98,.42s-3.02-.14-4.02-.42c-1-.28-1.76-.78-2.27-1.52-.52-.73-.85-1.56-1.01-2.48-.16-.92-.23-2.19-.23-3.81v-.56l-8.12,.21c.03,1.32,.07,2.45,.14,3.39,.11,1.59,.35,3.15,.72,4.68,.38,1.53,.89,2.68,1.55,3.46,.65,.78,1.58,1.49,2.78,2.11,1.2,.62,2.63,1.04,4.28,1.24,1.66,.2,3.72,.3,6.18,.3s4.48-.1,6.13-.3c1.66-.2,3.09-.62,4.29-1.24s2.13-1.33,2.8-2.11c.68-.78,1.2-1.92,1.57-3.44,.38-1.51,.62-3.07,.73-4.68,.08-1.14,.13-2.55,.15-4.23l-8.18,.22Z"/>
    <polygon class="cls-5" points="970.5 1236.04 970.5 1252.63 977.61 1252.63 977.61 1235.85 970.5 1236.04"/>
    <polygon class="cls-5" points="959.91 1236.31 957.49 1242.76 955.23 1236.44 947.69 1236.63 953.46 1252.63 960.86 1252.63 967.25 1236.12 959.91 1236.31"/>
    <polygon class="cls-5" points="937.36 1236.9 937.36 1252.63 944.48 1252.63 944.48 1236.72 937.36 1236.9"/>
  </g>
  <polygon class="cls-5" points="973.87 1219.78 974.13 1222.45 992.66 1219.31 1011.2 1216.17 992.4 1216.64 973.61 1217.11 973.87 1219.78"/>
  <polygon class="cls-5" points="973.87 1227.27 974.03 1228.91 985.42 1226.98 996.82 1225.04 985.26 1225.33 973.71 1225.62 973.87 1227.27"/>
  <polygon class="cls-5" points="838.94 1219.78 838.69 1222.45 820.15 1219.31 801.62 1216.17 820.41 1216.64 839.2 1217.11 838.94 1219.78"/>
  <polygon class="cls-5" points="838.94 1227.27 838.78 1228.91 827.39 1226.98 816 1225.04 827.55 1225.33 839.1 1225.62 838.94 1227.27"/>
  <polygon class="cls-1" points="963.13 1256.21 963.13 1211.16 931.27 1179.3 886.22 1179.3 854.37 1211.16 854.37 1256.21 886.22 1288.07 931.27 1288.07 963.13 1256.21"/>
  <path class="cls-33" d="M885.31,1177.1h46.87l33.14,33.14v46.87l-33.14,33.14h-46.87l-33.15-33.14v-46.87l33.15-33.14Zm45.05,4.4h-43.23l-30.57,30.57v43.23l30.57,30.57h43.23l30.57-30.57v-43.23l-30.57-30.57Z"/>
  <g>
    <path class="cls-5" d="M835.86,908.87v20.28l8.14-.11v-13.15h15.4v-7.02h-23.54Z"/>
    <path class="cls-5" d="M891.41,914.81c-.22-1.31-.66-2.45-1.33-3.42-.67-.96-1.62-1.63-2.83-1.98-1.22-.36-2.86-.54-4.92-.54h-18.81v19.92l27.6-.35c.12-.37,.22-.75,.29-1.15,.22-1.24,.33-2.9,.33-4.99v-2.15c0-2.25-.11-4.03-.33-5.34Zm-7.63,7.86c0,1.35-.16,2.3-.49,2.86s-1.05,.84-2.17,.84h-9.41v-10.62h9.5c1.06,0,1.75,.32,2.08,.96s.49,1.71,.49,3.2v2.76Z"/>
    <path class="cls-5" d="M927.29,920.26c-.11-1.6-.35-3.17-.73-4.7-.37-1.53-.89-2.69-1.57-3.49-.67-.79-1.6-1.5-2.8-2.13-1.2-.62-2.63-1.04-4.29-1.26-1.65-.22-3.69-.33-6.13-.33s-4.52,.11-6.18,.33c-1.65,.22-3.08,.64-4.28,1.26-1.2,.63-2.13,1.34-2.78,2.13-.66,.8-1.17,1.96-1.55,3.49-.37,1.53-.61,3.1-.72,4.7-.11,1.61-.17,3.74-.17,6.39,0,.6,0,1.18,.01,1.73l8.14-.11v-5.64c0-1.47,.07-2.62,.23-3.46,.16-.85,.49-1.61,1.01-2.3,.51-.68,1.27-1.16,2.27-1.43,1-.26,2.34-.39,4.02-.39,3.15,0,5.19,.54,6.11,1.63,.92,1.1,1.38,3.08,1.38,5.95v5.45l8.18-.1c.01-.43,.01-.87,.01-1.33,0-2.65-.05-4.78-.16-6.39Z"/>
    <path class="cls-5" d="M943.97,908.87h-10.95v19.03l7.12-.09v-8.32l2.99,8.28,7.57-.09-6.73-18.81Zm18.82,0l-7.04,18.74,7.3-.09,3.11-8.03v7.99l7.11-.09v-18.52h-10.48Z"/>
    <polygon class="cls-5" points="837.58 929.65 837.58 942.83 845.72 942.83 845.72 929.44 837.58 929.65"/>
    <path class="cls-5" d="M865.24,929.54v13.9h8.19v-11.28h10.01c2.19,0,3.94-.18,5.27-.56,1.33-.37,2.34-1.04,3.04-1.99,.18-.25,.35-.51,.5-.78l-27.01,.71Z"/>
    <path class="cls-5" d="M920.91,928.36v.95c0,1.62-.08,2.89-.23,3.81-.16,.92-.49,1.75-1.01,2.48-.51,.74-1.27,1.24-2.27,1.52-1,.28-2.32,.42-3.98,.42s-3.02-.14-4.02-.42c-1-.28-1.76-.78-2.27-1.52-.52-.73-.85-1.56-1.01-2.48-.16-.92-.23-2.19-.23-3.81v-.56l-8.12,.21c.03,1.32,.07,2.45,.14,3.39,.11,1.59,.35,3.15,.72,4.68,.38,1.53,.89,2.68,1.55,3.46,.65,.78,1.58,1.49,2.78,2.11,1.2,.62,2.63,1.04,4.28,1.24,1.66,.2,3.72,.3,6.18,.3s4.48-.1,6.13-.3c1.66-.2,3.09-.62,4.29-1.24,1.2-.62,2.13-1.33,2.8-2.11,.68-.78,1.2-1.92,1.57-3.44,.38-1.51,.62-3.07,.73-4.68,.08-1.14,.13-2.55,.15-4.23l-8.18,.22Z"/>
    <polygon class="cls-5" points="968.16 927.8 968.16 944.39 975.27 944.39 975.27 927.61 968.16 927.8"/>
    <polygon class="cls-5" points="957.57 928.07 955.15 934.52 952.89 928.2 945.35 928.39 951.12 944.39 958.52 944.39 964.91 927.88 957.57 928.07"/>
    <polygon class="cls-5" points="935.02 928.66 935.02 944.39 942.14 944.39 942.14 928.48 935.02 928.66"/>
  </g>
  <polygon class="cls-5" points="971.53 911.54 971.79 914.21 990.32 911.07 1008.85 907.93 990.06 908.4 971.27 908.87 971.53 911.54"/>
  <polygon class="cls-5" points="971.53 919.03 971.69 920.67 983.08 918.74 994.48 916.8 982.92 917.09 971.37 917.38 971.53 919.03"/>
  <polygon class="cls-5" points="836.6 911.54 836.34 914.21 817.81 911.07 799.28 907.93 818.07 908.4 836.86 908.87 836.6 911.54"/>
  <polygon class="cls-5" points="836.6 919.03 836.44 920.67 825.05 918.74 813.66 916.8 825.21 917.09 836.76 917.38 836.6 919.03"/>
  <path class="cls-32" d="M882.97,868.87h46.87l33.14,33.14v46.87l-33.14,33.14h-46.87l-33.15-33.14v-46.87l33.15-33.14Zm45.05,4.4h-43.23l-30.57,30.57v43.23l30.57,30.57h43.23l30.57-30.57v-43.23l-30.57-30.57Z"/>
  <path class="cls-31" d="M929.84,982.03h-46.87l-33.14-33.14v-46.87l33.14-33.14h46.87l33.15,33.14v46.87l-33.15,33.14Zm-45.05-4.4h43.23l30.57-30.57v-43.23l-30.57-30.57h-43.23l-30.57,30.57v43.23l30.57,30.57Z"/>
  <g>
    <path class="cls-5" d="M835.86,1058.55v20.28l8.14-.11v-13.15h15.4v-7.02h-23.54Z"/>
    <path class="cls-5" d="M891.41,1064.49c-.22-1.31-.66-2.45-1.33-3.42-.67-.96-1.62-1.63-2.83-1.98-1.22-.36-2.86-.54-4.92-.54h-18.81v19.92l27.6-.35c.12-.37,.22-.75,.29-1.15,.22-1.24,.33-2.9,.33-4.99v-2.15c0-2.25-.11-4.03-.33-5.34Zm-7.63,7.86c0,1.35-.16,2.3-.49,2.86s-1.05,.84-2.17,.84h-9.41v-10.62h9.5c1.06,0,1.75,.32,2.08,.96s.49,1.71,.49,3.2v2.76Z"/>
    <path class="cls-5" d="M927.29,1069.94c-.11-1.6-.35-3.17-.73-4.7-.37-1.53-.89-2.69-1.57-3.49-.67-.79-1.6-1.5-2.8-2.13-1.2-.62-2.63-1.04-4.29-1.26-1.65-.22-3.69-.33-6.13-.33s-4.52,.11-6.18,.33c-1.65,.22-3.08,.64-4.28,1.26-1.2,.63-2.13,1.34-2.78,2.13-.66,.8-1.17,1.96-1.55,3.49-.37,1.53-.61,3.1-.72,4.7-.11,1.61-.17,3.74-.17,6.39,0,.6,0,1.18,.01,1.73l8.14-.11v-5.64c0-1.47,.07-2.62,.23-3.46,.16-.85,.49-1.61,1.01-2.3,.51-.68,1.27-1.16,2.27-1.43,1-.26,2.34-.39,4.02-.39,3.15,0,5.19,.54,6.11,1.63,.92,1.1,1.38,3.08,1.38,5.95v5.45l8.18-.1c.01-.43,.01-.87,.01-1.33,0-2.65-.05-4.78-.16-6.39Z"/>
    <path class="cls-5" d="M943.97,1058.55h-10.95v19.03l7.12-.09v-8.32l2.99,8.28,7.57-.09-6.73-18.81Zm18.82,0l-7.04,18.74,7.3-.09,3.11-8.03v7.99l7.11-.09v-18.52h-10.48Z"/>
    <polygon class="cls-5" points="837.58 1079.33 837.58 1092.51 845.72 1092.51 845.72 1079.12 837.58 1079.33"/>
    <path class="cls-5" d="M865.24,1079.22v13.9h8.19v-11.28h10.01c2.19,0,3.94-.18,5.27-.56,1.33-.37,2.34-1.04,3.04-1.99,.18-.25,.35-.51,.5-.78l-27.01,.71Z"/>
    <path class="cls-5" d="M920.91,1078.04v.95c0,1.62-.08,2.89-.23,3.81-.16,.92-.49,1.75-1.01,2.48-.51,.74-1.27,1.24-2.27,1.52-1,.28-2.32,.42-3.98,.42s-3.02-.14-4.02-.42c-1-.28-1.76-.78-2.27-1.52-.52-.73-.85-1.56-1.01-2.48-.16-.92-.23-2.19-.23-3.81v-.56l-8.12,.21c.03,1.32,.07,2.45,.14,3.39,.11,1.59,.35,3.15,.72,4.68,.38,1.53,.89,2.68,1.55,3.46,.65,.78,1.58,1.49,2.78,2.11,1.2,.62,2.63,1.04,4.28,1.24,1.66,.2,3.72,.3,6.18,.3s4.48-.1,6.13-.3c1.66-.2,3.09-.62,4.29-1.24,1.2-.62,2.13-1.33,2.8-2.11,.68-.78,1.2-1.92,1.57-3.44,.38-1.51,.62-3.07,.73-4.68,.08-1.14,.13-2.55,.15-4.23l-8.18,.22Z"/>
    <polygon class="cls-5" points="968.16 1077.48 968.16 1094.07 975.27 1094.07 975.27 1077.29 968.16 1077.48"/>
    <polygon class="cls-5" points="957.57 1077.75 955.15 1084.2 952.89 1077.88 945.35 1078.07 951.12 1094.07 958.52 1094.07 964.91 1077.56 957.57 1077.75"/>
    <polygon class="cls-5" points="935.02 1078.34 935.02 1094.07 942.14 1094.07 942.14 1078.16 935.02 1078.34"/>
  </g>
  <polygon class="cls-5" points="971.53 1061.22 971.79 1063.89 990.32 1060.75 1008.85 1057.61 990.06 1058.08 971.27 1058.55 971.53 1061.22"/>
  <polygon class="cls-5" points="971.53 1068.7 971.69 1070.34 983.08 1068.41 994.48 1066.48 982.92 1066.77 971.37 1067.06 971.53 1068.7"/>
  <polygon class="cls-5" points="836.6 1061.22 836.34 1063.89 817.81 1060.75 799.28 1057.61 818.07 1058.08 836.86 1058.55 836.6 1061.22"/>
  <polygon class="cls-5" points="836.6 1068.7 836.44 1070.34 825.05 1068.41 813.66 1066.48 825.21 1066.77 836.76 1067.06 836.6 1068.7"/>
  <path class="cls-21" d="M882.97,1018.54h46.87l33.14,33.14v46.87l-33.14,33.14h-46.87l-33.15-33.14v-46.87l33.15-33.14Zm45.05,4.4h-43.23l-30.57,30.57v43.23l30.57,30.57h43.23l30.57-30.57v-43.23l-30.57-30.57Z"/>
  <path class="cls-27" d="M929.84,1131.71h-46.87l-33.14-33.14v-46.87l33.14-33.14h46.87l33.15,33.14v46.87l-33.15,33.14Zm-45.05-4.4h43.23l30.57-30.57v-43.23l-30.57-30.57h-43.23l-30.57,30.57v43.23l30.57,30.57Z"/>
  <g>
    <path class="cls-5" d="M595.43,1215.11v20.28l8.14-.11v-13.15h15.4v-7.02h-23.54Z"/>
    <path class="cls-5" d="M650.98,1221.05c-.22-1.31-.66-2.45-1.33-3.42-.67-.96-1.62-1.63-2.83-1.98-1.22-.36-2.86-.54-4.92-.54h-18.81v19.92l27.6-.35c.12-.37,.22-.75,.29-1.15,.22-1.24,.33-2.9,.33-4.99v-2.15c0-2.25-.11-4.03-.33-5.34Zm-7.63,7.86c0,1.35-.16,2.3-.49,2.86s-1.05,.84-2.17,.84h-9.41v-10.62h9.5c1.06,0,1.75,.32,2.08,.96,.33,.64,.49,1.71,.49,3.2v2.76Z"/>
    <path class="cls-5" d="M686.86,1226.5c-.11-1.6-.35-3.17-.73-4.7-.37-1.53-.89-2.69-1.57-3.49-.67-.79-1.6-1.5-2.8-2.13-1.2-.62-2.63-1.04-4.29-1.26-1.65-.22-3.69-.33-6.13-.33s-4.52,.11-6.18,.33c-1.65,.22-3.08,.64-4.28,1.26-1.2,.63-2.13,1.34-2.78,2.13-.66,.8-1.17,1.96-1.55,3.49-.37,1.53-.61,3.1-.72,4.7-.11,1.61-.17,3.74-.17,6.39,0,.6,0,1.18,.01,1.73l8.14-.11v-5.64c0-1.47,.07-2.62,.23-3.46,.16-.85,.49-1.61,1.01-2.3,.51-.68,1.27-1.16,2.27-1.43,1-.26,2.34-.39,4.02-.39,3.15,0,5.19,.54,6.11,1.63,.92,1.1,1.38,3.08,1.38,5.95v5.45l8.18-.1c.01-.43,.01-.87,.01-1.33,0-2.65-.05-4.78-.16-6.39Z"/>
    <path class="cls-5" d="M703.54,1215.11h-10.95v19.03l7.12-.09v-8.32l2.99,8.28,7.57-.09-6.73-18.81Zm18.82,0l-7.04,18.74,7.3-.09,3.11-8.03v7.99l7.11-.09v-18.52h-10.48Z"/>
    <polygon class="cls-5" points="597.14 1235.89 597.14 1249.07 605.28 1249.07 605.28 1235.68 597.14 1235.89"/>
    <path class="cls-5" d="M624.81,1235.78v13.9h8.19v-11.28h10.01c2.19,0,3.94-.18,5.27-.56,1.33-.37,2.34-1.04,3.04-1.99,.18-.25,.35-.51,.5-.78l-27.01,.71Z"/>
    <path class="cls-5" d="M680.47,1234.6v.95c0,1.62-.08,2.89-.23,3.81-.16,.92-.49,1.75-1.01,2.48-.51,.74-1.27,1.24-2.27,1.52-1,.28-2.32,.42-3.98,.42s-3.02-.14-4.02-.42c-1-.28-1.76-.78-2.27-1.52-.52-.73-.85-1.56-1.01-2.48-.16-.92-.23-2.19-.23-3.81v-.56l-8.12,.21c.03,1.32,.07,2.45,.14,3.39,.11,1.59,.35,3.15,.72,4.68,.38,1.53,.89,2.68,1.55,3.46,.65,.78,1.58,1.49,2.78,2.11,1.2,.62,2.63,1.04,4.28,1.24,1.66,.2,3.72,.3,6.18,.3s4.48-.1,6.13-.3c1.66-.2,3.09-.62,4.29-1.24s2.13-1.33,2.8-2.11c.68-.78,1.2-1.92,1.57-3.44,.38-1.51,.62-3.07,.73-4.68,.08-1.14,.13-2.55,.15-4.23l-8.18,.22Z"/>
    <polygon class="cls-5" points="727.73 1234.04 727.73 1250.63 734.84 1250.63 734.84 1233.85 727.73 1234.04"/>
    <polygon class="cls-5" points="717.14 1234.31 714.72 1240.76 712.46 1234.44 704.92 1234.63 710.69 1250.63 718.09 1250.63 724.48 1234.12 717.14 1234.31"/>
    <polygon class="cls-5" points="694.59 1234.9 694.59 1250.63 701.71 1250.63 701.71 1234.72 694.59 1234.9"/>
  </g>
  <polygon class="cls-5" points="731.09 1217.78 731.35 1220.45 749.89 1217.31 768.42 1214.17 749.63 1214.64 730.84 1215.11 731.09 1217.78"/>
  <polygon class="cls-5" points="731.09 1225.27 731.25 1226.91 742.65 1224.98 754.04 1223.04 742.49 1223.33 730.94 1223.62 731.09 1225.27"/>
  <polygon class="cls-5" points="596.17 1217.78 595.91 1220.45 577.38 1217.31 558.84 1214.17 577.63 1214.64 596.43 1215.11 596.17 1217.78"/>
  <polygon class="cls-5" points="596.17 1225.27 596.01 1226.91 584.61 1224.98 573.22 1223.04 584.77 1223.33 596.33 1223.62 596.17 1225.27"/>
  <g>
    <polygon class="cls-5" points="657.28 1192.39 658.04 1193.93 659.74 1194.18 658.51 1195.37 658.8 1197.07 657.28 1196.27 655.76 1197.07 656.05 1195.37 654.82 1194.18 656.52 1193.93 657.28 1192.39"/>
    <polygon class="cls-5" points="664.31 1192.39 665.07 1193.93 666.77 1194.18 665.54 1195.37 665.83 1197.07 664.31 1196.27 662.79 1197.07 663.08 1195.37 661.85 1194.18 663.55 1193.93 664.31 1192.39"/>
    <polygon class="cls-5" points="671.34 1192.39 672.1 1193.93 673.8 1194.18 672.57 1195.37 672.86 1197.07 671.34 1196.27 669.82 1197.07 670.11 1195.37 668.88 1194.18 670.58 1193.93 671.34 1192.39"/>
    <polygon class="cls-5" points="678.37 1192.39 679.13 1193.93 680.83 1194.18 679.6 1195.37 679.89 1197.07 678.37 1196.27 676.84 1197.07 677.14 1195.37 675.91 1194.18 677.61 1193.93 678.37 1192.39"/>
    <polygon class="cls-5" points="685.4 1192.39 686.16 1193.93 687.86 1194.18 686.63 1195.37 686.92 1197.07 685.4 1196.27 683.87 1197.07 684.16 1195.37 682.93 1194.18 684.63 1193.93 685.4 1192.39"/>
  </g>
  <text class="cls-6" transform="translate(632.39 1209.61)"><tspan x="0" y="0" xml:space="preserve">клуб  ЕДИНОБОРСТВ</tspan></text>
  <g>
    <path class="cls-5" d="M593.08,908.87v20.28l8.14-.11v-13.15h15.4v-7.02h-23.54Z"/>
    <path class="cls-5" d="M648.63,914.81c-.22-1.31-.66-2.45-1.33-3.42-.67-.96-1.62-1.63-2.83-1.98-1.22-.36-2.86-.54-4.92-.54h-18.81v19.92l27.6-.35c.12-.37,.22-.75,.29-1.15,.22-1.24,.33-2.9,.33-4.99v-2.15c0-2.25-.11-4.03-.33-5.34Zm-7.63,7.86c0,1.35-.16,2.3-.49,2.86s-1.05,.84-2.17,.84h-9.41v-10.62h9.5c1.06,0,1.75,.32,2.08,.96s.49,1.71,.49,3.2v2.76Z"/>
    <path class="cls-5" d="M684.51,920.26c-.11-1.6-.35-3.17-.73-4.7-.37-1.53-.89-2.69-1.57-3.49-.67-.79-1.6-1.5-2.8-2.13-1.2-.62-2.63-1.04-4.29-1.26-1.65-.22-3.69-.33-6.13-.33s-4.52,.11-6.18,.33c-1.65,.22-3.08,.64-4.28,1.26-1.2,.63-2.13,1.34-2.78,2.13-.66,.8-1.17,1.96-1.55,3.49-.37,1.53-.61,3.1-.72,4.7-.11,1.61-.17,3.74-.17,6.39,0,.6,0,1.18,.01,1.73l8.14-.11v-5.64c0-1.47,.07-2.62,.23-3.46,.16-.85,.49-1.61,1.01-2.3,.51-.68,1.27-1.16,2.27-1.43,1-.26,2.34-.39,4.02-.39,3.15,0,5.19,.54,6.11,1.63,.92,1.1,1.38,3.08,1.38,5.95v5.45l8.18-.1c.01-.43,.01-.87,.01-1.33,0-2.65-.05-4.78-.16-6.39Z"/>
    <path class="cls-5" d="M701.19,908.87h-10.95v19.03l7.12-.09v-8.32l2.99,8.28,7.57-.09-6.73-18.81Zm18.82,0l-7.04,18.74,7.3-.09,3.11-8.03v7.99l7.11-.09v-18.52h-10.48Z"/>
    <polygon class="cls-5" points="594.8 929.65 594.8 942.83 602.94 942.83 602.94 929.44 594.8 929.65"/>
    <path class="cls-5" d="M622.46,929.54v13.9h8.19v-11.28h10.01c2.19,0,3.94-.18,5.27-.56,1.33-.37,2.34-1.04,3.04-1.99,.18-.25,.35-.51,.5-.78l-27.01,.71Z"/>
    <path class="cls-5" d="M678.13,928.36v.95c0,1.62-.08,2.89-.23,3.81-.16,.92-.49,1.75-1.01,2.48-.51,.74-1.27,1.24-2.27,1.52-1,.28-2.32,.42-3.98,.42s-3.02-.14-4.02-.42c-1-.28-1.76-.78-2.27-1.52-.52-.73-.85-1.56-1.01-2.48-.16-.92-.23-2.19-.23-3.81v-.56l-8.12,.21c.03,1.32,.07,2.45,.14,3.39,.11,1.59,.35,3.15,.72,4.68,.38,1.53,.89,2.68,1.55,3.46,.65,.78,1.58,1.49,2.78,2.11,1.2,.62,2.63,1.04,4.28,1.24,1.66,.2,3.72,.3,6.18,.3s4.48-.1,6.13-.3c1.66-.2,3.09-.62,4.29-1.24,1.2-.62,2.13-1.33,2.8-2.11,.68-.78,1.2-1.92,1.57-3.44,.38-1.51,.62-3.07,.73-4.68,.08-1.14,.13-2.55,.15-4.23l-8.18,.22Z"/>
    <polygon class="cls-5" points="725.38 927.8 725.38 944.39 732.49 944.39 732.49 927.61 725.38 927.8"/>
    <polygon class="cls-5" points="714.79 928.07 712.37 934.52 710.11 928.2 702.57 928.39 708.34 944.39 715.74 944.39 722.13 927.88 714.79 928.07"/>
    <polygon class="cls-5" points="692.24 928.66 692.24 944.39 699.36 944.39 699.36 928.48 692.24 928.66"/>
  </g>
  <polygon class="cls-5" points="728.75 911.54 729.01 914.21 747.55 911.07 766.08 907.93 747.29 908.4 728.49 908.87 728.75 911.54"/>
  <polygon class="cls-5" points="728.75 919.03 728.91 920.67 740.31 918.74 751.7 916.8 740.15 917.09 728.59 917.38 728.75 919.03"/>
  <polygon class="cls-5" points="593.83 911.54 593.57 914.21 575.03 911.07 556.5 907.93 575.29 908.4 594.08 908.87 593.83 911.54"/>
  <polygon class="cls-5" points="593.83 919.03 593.67 920.67 582.27 918.74 570.88 916.8 582.43 917.09 593.99 917.38 593.83 919.03"/>
  <g>
    <polygon class="cls-5" points="635.51 950.42 637.03 953.5 640.43 953.99 637.97 956.39 638.55 959.78 635.51 958.18 632.47 959.78 633.05 956.39 630.59 953.99 633.99 953.5 635.51 950.42"/>
    <polygon class="cls-5" points="649.57 950.42 651.09 953.5 654.49 953.99 652.03 956.39 652.61 959.78 649.57 958.18 646.53 959.78 647.11 956.39 644.65 953.99 648.05 953.5 649.57 950.42"/>
    <polygon class="cls-5" points="663.63 950.42 665.15 953.5 668.55 953.99 666.09 956.39 666.67 959.78 663.63 958.18 660.59 959.78 661.17 956.39 658.71 953.99 662.11 953.5 663.63 950.42"/>
    <polygon class="cls-5" points="677.69 950.42 679.21 953.5 682.61 953.99 680.15 956.39 680.73 959.78 677.69 958.18 674.65 959.78 675.23 956.39 672.77 953.99 676.17 953.5 677.69 950.42"/>
    <polygon class="cls-5" points="691.75 950.42 693.27 953.5 696.67 953.99 694.21 956.39 694.79 959.78 691.75 958.18 688.71 959.78 689.29 956.39 686.83 953.99 690.23 953.5 691.75 950.42"/>
  </g>
  <text class="cls-6" transform="translate(654.18 886.49)"><tspan x="0" y="0">клуб</tspan><tspan x="-17.25" y="14">ЕДИНОБОРСТВ</tspan></text>
  <g>
    <path class="cls-5" d="M593.08,1058.55v20.28l8.14-.11v-13.15h15.4v-7.02h-23.54Z"/>
    <path class="cls-5" d="M648.63,1064.49c-.22-1.31-.66-2.45-1.33-3.42-.67-.96-1.62-1.63-2.83-1.98-1.22-.36-2.86-.54-4.92-.54h-18.81v19.92l27.6-.35c.12-.37,.22-.75,.29-1.15,.22-1.24,.33-2.9,.33-4.99v-2.15c0-2.25-.11-4.03-.33-5.34Zm-7.63,7.86c0,1.35-.16,2.3-.49,2.86s-1.05,.84-2.17,.84h-9.41v-10.62h9.5c1.06,0,1.75,.32,2.08,.96s.49,1.71,.49,3.2v2.76Z"/>
    <path class="cls-5" d="M684.51,1069.94c-.11-1.6-.35-3.17-.73-4.7-.37-1.53-.89-2.69-1.57-3.49-.67-.79-1.6-1.5-2.8-2.13-1.2-.62-2.63-1.04-4.29-1.26-1.65-.22-3.69-.33-6.13-.33s-4.52,.11-6.18,.33c-1.65,.22-3.08,.64-4.28,1.26-1.2,.63-2.13,1.34-2.78,2.13-.66,.8-1.17,1.96-1.55,3.49-.37,1.53-.61,3.1-.72,4.7-.11,1.61-.17,3.74-.17,6.39,0,.6,0,1.18,.01,1.73l8.14-.11v-5.64c0-1.47,.07-2.62,.23-3.46,.16-.85,.49-1.61,1.01-2.3,.51-.68,1.27-1.16,2.27-1.43,1-.26,2.34-.39,4.02-.39,3.15,0,5.19,.54,6.11,1.63,.92,1.1,1.38,3.08,1.38,5.95v5.45l8.18-.1c.01-.43,.01-.87,.01-1.33,0-2.65-.05-4.78-.16-6.39Z"/>
    <path class="cls-5" d="M701.19,1058.55h-10.95v19.03l7.12-.09v-8.32l2.99,8.28,7.57-.09-6.73-18.81Zm18.82,0l-7.04,18.74,7.3-.09,3.11-8.03v7.99l7.11-.09v-18.52h-10.48Z"/>
    <polygon class="cls-5" points="594.8 1079.33 594.8 1092.51 602.94 1092.51 602.94 1079.12 594.8 1079.33"/>
    <path class="cls-5" d="M622.46,1079.22v13.9h8.19v-11.28h10.01c2.19,0,3.94-.18,5.27-.56,1.33-.37,2.34-1.04,3.04-1.99,.18-.25,.35-.51,.5-.78l-27.01,.71Z"/>
    <path class="cls-5" d="M678.13,1078.04v.95c0,1.62-.08,2.89-.23,3.81-.16,.92-.49,1.75-1.01,2.48-.51,.74-1.27,1.24-2.27,1.52-1,.28-2.32,.42-3.98,.42s-3.02-.14-4.02-.42c-1-.28-1.76-.78-2.27-1.52-.52-.73-.85-1.56-1.01-2.48-.16-.92-.23-2.19-.23-3.81v-.56l-8.12,.21c.03,1.32,.07,2.45,.14,3.39,.11,1.59,.35,3.15,.72,4.68,.38,1.53,.89,2.68,1.55,3.46,.65,.78,1.58,1.49,2.78,2.11,1.2,.62,2.63,1.04,4.28,1.24,1.66,.2,3.72,.3,6.18,.3s4.48-.1,6.13-.3c1.66-.2,3.09-.62,4.29-1.24,1.2-.62,2.13-1.33,2.8-2.11,.68-.78,1.2-1.92,1.57-3.44,.38-1.51,.62-3.07,.73-4.68,.08-1.14,.13-2.55,.15-4.23l-8.18,.22Z"/>
    <polygon class="cls-5" points="725.38 1077.48 725.38 1094.07 732.49 1094.07 732.49 1077.29 725.38 1077.48"/>
    <polygon class="cls-5" points="714.79 1077.75 712.37 1084.2 710.11 1077.88 702.57 1078.07 708.34 1094.07 715.74 1094.07 722.13 1077.56 714.79 1077.75"/>
    <polygon class="cls-5" points="692.24 1078.34 692.24 1094.07 699.36 1094.07 699.36 1078.16 692.24 1078.34"/>
  </g>
  <polygon class="cls-5" points="728.75 1061.22 729.01 1063.89 747.55 1060.75 766.08 1057.61 747.29 1058.08 728.49 1058.55 728.75 1061.22"/>
  <polygon class="cls-5" points="728.75 1068.7 728.91 1070.34 740.31 1068.41 751.7 1066.48 740.15 1066.77 728.59 1067.06 728.75 1068.7"/>
  <polygon class="cls-5" points="593.83 1061.22 593.57 1063.89 575.03 1060.75 556.5 1057.61 575.29 1058.08 594.08 1058.55 593.83 1061.22"/>
  <polygon class="cls-5" points="593.83 1068.7 593.67 1070.34 582.27 1068.41 570.88 1066.48 582.43 1066.77 593.99 1067.06 593.83 1068.7"/>
  <path class="cls-29" d="M678.75,489.18h-46.87l-33.14-33.14v-46.87l33.14-33.14h46.87l33.15,33.14v46.87l-33.15,33.14Zm-45.05-4.4h43.23l30.57-30.57v-43.23l-30.57-30.57h-43.23l-30.57,30.57v43.23l30.57,30.57Z"/>
  <rect class="cls-5" x="543.58" y="336.61" width="218.79" height="695.13" transform="translate(1337.15 31.2) rotate(90)"/>
  <path d="M584.77,667.6v20.28l8.14-.11v-13.15h15.4v-7.02h-23.54Z"/>
  <path d="M640.32,673.54c-.22-1.31-.66-2.45-1.33-3.42-.67-.96-1.62-1.63-2.83-1.98-1.22-.36-2.86-.54-4.92-.54h-18.81v19.92l27.6-.35c.12-.37,.22-.75,.29-1.15,.22-1.24,.33-2.9,.33-4.99v-2.15c0-2.25-.11-4.03-.33-5.34Zm-7.63,7.86c0,1.35-.16,2.3-.49,2.86s-1.05,.84-2.17,.84h-9.41v-10.62h9.5c1.06,0,1.75,.32,2.08,.96s.49,1.71,.49,3.2v2.76Z"/>
  <path d="M676.2,678.99c-.11-1.6-.35-3.17-.73-4.7-.37-1.53-.89-2.69-1.57-3.49-.67-.79-1.6-1.5-2.8-2.13-1.2-.62-2.63-1.04-4.29-1.26-1.65-.22-3.69-.33-6.13-.33s-4.52,.11-6.18,.33c-1.65,.22-3.08,.64-4.28,1.26-1.2,.63-2.13,1.34-2.78,2.13-.66,.8-1.17,1.96-1.55,3.49-.37,1.53-.61,3.1-.72,4.7-.11,1.61-.17,3.74-.17,6.39,0,.6,0,1.18,.01,1.73l8.14-.11v-5.64c0-1.47,.07-2.62,.23-3.46,.16-.85,.49-1.61,1.01-2.3,.51-.68,1.27-1.16,2.27-1.43,1-.26,2.34-.39,4.02-.39,3.15,0,5.19,.54,6.11,1.63,.92,1.1,1.38,3.08,1.38,5.95v5.45l8.18-.1c.01-.43,.01-.87,.01-1.33,0-2.65-.05-4.78-.16-6.39Z"/>
  <path d="M692.88,667.6h-10.95v19.03l7.12-.09v-8.32l2.99,8.28,7.57-.09-6.73-18.81Zm18.82,0l-7.04,18.74,7.3-.09,3.11-8.03v7.99l7.11-.09v-18.52h-10.48Z"/>
  <polygon points="586.48 688.38 586.48 701.56 594.62 701.56 594.62 688.17 586.48 688.38"/>
  <path d="M614.15,688.27v13.9h8.19v-11.28h10.01c2.19,0,3.94-.18,5.27-.56,1.33-.37,2.34-1.04,3.04-1.99,.18-.25,.35-.51,.5-.78l-27.01,.71Z"/>
  <path d="M669.81,687.09v.95c0,1.62-.08,2.89-.23,3.81-.16,.92-.49,1.75-1.01,2.48-.51,.74-1.27,1.24-2.27,1.52-1,.28-2.32,.42-3.98,.42s-3.02-.14-4.02-.42c-1-.28-1.76-.78-2.27-1.52-.52-.73-.85-1.56-1.01-2.48-.16-.92-.23-2.19-.23-3.81v-.56l-8.12,.21c.03,1.32,.07,2.45,.14,3.39,.11,1.59,.35,3.15,.72,4.68,.38,1.53,.89,2.68,1.55,3.46,.65,.78,1.58,1.49,2.78,2.11,1.2,.62,2.63,1.04,4.28,1.24,1.66,.2,3.72,.3,6.18,.3s4.48-.1,6.13-.3c1.66-.2,3.09-.62,4.29-1.24s2.13-1.33,2.8-2.11c.68-.78,1.2-1.92,1.57-3.44,.38-1.51,.62-3.07,.73-4.68,.08-1.14,.13-2.55,.15-4.23l-8.18,.22Z"/>
  <polygon points="717.07 686.53 717.07 703.12 724.18 703.12 724.18 686.34 717.07 686.53"/>
  <polygon points="706.48 686.8 704.06 693.25 701.8 686.93 694.26 687.12 700.03 703.12 707.43 703.12 713.82 686.61 706.48 686.8"/>
  <polygon points="683.93 687.39 683.93 703.12 691.05 703.12 691.05 687.21 683.93 687.39"/>
  <polygon points="720.43 670.27 720.69 672.94 739.23 669.8 757.76 666.66 738.97 667.13 720.18 667.6 720.43 670.27"/>
  <polygon points="720.43 677.75 720.59 679.4 731.99 677.46 743.38 675.53 731.83 675.82 720.27 676.11 720.43 677.75"/>
  <polygon points="585.51 670.27 585.25 672.94 566.71 669.8 548.18 666.66 566.97 667.13 585.77 667.6 585.51 670.27"/>
  <polygon points="585.51 677.75 585.35 679.4 573.95 677.46 562.56 675.53 574.11 675.82 585.67 676.11 585.51 677.75"/>
  <polygon points="627.19 709.14 628.71 712.23 632.11 712.72 629.65 715.12 630.24 718.5 627.19 716.91 624.15 718.5 624.73 715.12 622.27 712.72 625.67 712.23 627.19 709.14"/>
  <polygon points="641.25 709.14 642.77 712.23 646.17 712.72 643.71 715.12 644.29 718.5 641.25 716.91 638.21 718.5 638.79 715.12 636.33 712.72 639.73 712.23 641.25 709.14"/>
  <polygon points="655.31 709.14 656.83 712.23 660.23 712.72 657.77 715.12 658.35 718.5 655.31 716.91 652.27 718.5 652.85 715.12 650.39 712.72 653.79 712.23 655.31 709.14"/>
  <polygon points="669.37 709.14 670.89 712.23 674.29 712.72 671.83 715.12 672.41 718.5 669.37 716.91 666.33 718.5 666.91 715.12 664.45 712.72 667.85 712.23 669.37 709.14"/>
  <polygon points="683.43 709.14 684.95 712.23 688.35 712.72 685.89 715.12 686.47 718.5 683.43 716.91 680.39 718.5 680.97 715.12 678.51 712.72 681.91 712.23 683.43 709.14"/>
  <text class="cls-12" transform="translate(645.86 645.22)"><tspan x="0" y="0">клуб</tspan><tspan x="-17.25" y="14">ЕДИНОБОРСТВ</tspan></text>
  <path class="cls-30" d="M631.88,627.59h46.87l33.14,33.14v46.87l-33.14,33.14h-46.87l-33.15-33.14v-46.87l33.15-33.14Zm45.05,4.4h-43.23l-30.57,30.57v43.23l30.57,30.57h43.23l30.57-30.57v-43.23l-30.57-30.57Z"/>
  <path class="cls-22" d="M678.75,740.76h-46.87l-33.14-33.14v-46.87l33.14-33.14h46.87l33.15,33.14v46.87l-33.15,33.14Zm-45.05-4.4h43.23l30.57-30.57v-43.23l-30.57-30.57h-43.23l-30.57,30.57v43.23l30.57,30.57Z"/>
  <rect class="cls-4" x="1243.52" y="779.81" width="113.39" height="113.39" transform="translate(2136.72 -463.71) rotate(90)"/>
  <g>
    <path class="cls-5" d="M1482.36,55.65v7.37l2.96-.04v-4.78h5.6v-2.55h-8.55Z"/>
    <path class="cls-5" d="M1502.54,57.81c-.08-.48-.24-.89-.48-1.24-.24-.35-.59-.59-1.03-.72-.44-.13-1.04-.2-1.79-.2h-6.83v7.24l10.03-.13c.04-.13,.08-.27,.11-.42,.08-.45,.12-1.05,.12-1.81v-.78c0-.82-.04-1.46-.12-1.94Zm-2.77,2.86c0,.49-.06,.84-.18,1.04s-.38,.31-.79,.31h-3.42v-3.86h3.45c.39,0,.64,.12,.76,.35s.18,.62,.18,1.16v1Z"/>
    <path class="cls-5" d="M1515.58,59.79c-.04-.58-.13-1.15-.27-1.71-.13-.56-.32-.98-.57-1.27-.24-.29-.58-.55-1.02-.77-.44-.23-.96-.38-1.56-.46-.6-.08-1.34-.12-2.23-.12s-1.64,.04-2.25,.12c-.6,.08-1.12,.23-1.56,.46-.44,.23-.77,.49-1.01,.77-.24,.29-.43,.71-.56,1.27-.13,.56-.22,1.13-.26,1.71-.04,.58-.06,1.36-.06,2.32,0,.22,0,.43,0,.63l2.96-.04v-2.05c0-.53,.03-.95,.08-1.26,.06-.31,.18-.59,.37-.84,.19-.25,.46-.42,.82-.52,.36-.09,.85-.14,1.46-.14,1.14,0,1.89,.2,2.22,.59,.33,.4,.5,1.12,.5,2.16v1.98l2.97-.04c0-.16,0-.32,0-.48,0-.96-.02-1.74-.06-2.32Z"/>
    <path class="cls-5" d="M1521.64,55.65h-3.98v6.91l2.59-.03v-3.02l1.09,3.01,2.75-.03-2.45-6.83Zm6.84,0l-2.56,6.81,2.65-.03,1.13-2.92v2.9l2.58-.03v-6.73h-3.81Z"/>
    <polygon class="cls-5" points="1482.98 63.2 1482.98 67.99 1485.94 67.99 1485.94 63.13 1482.98 63.2"/>
    <path class="cls-5" d="M1493.03,63.16v5.05h2.98v-4.1h3.64c.8,0,1.43-.07,1.91-.2,.48-.13,.85-.38,1.1-.72,.07-.09,.13-.19,.18-.28l-9.81,.26Z"/>
    <path class="cls-5" d="M1513.26,62.73v.35c0,.59-.03,1.05-.08,1.38-.06,.33-.18,.64-.37,.9-.19,.27-.46,.45-.82,.55-.36,.1-.84,.15-1.45,.15s-1.1-.05-1.46-.15c-.36-.1-.64-.28-.82-.55-.19-.27-.31-.57-.37-.9-.06-.33-.08-.8-.08-1.38v-.2l-2.95,.08c.01,.48,.03,.89,.05,1.23,.04,.58,.13,1.14,.26,1.7,.14,.56,.32,.97,.56,1.26,.24,.28,.57,.54,1.01,.77,.44,.23,.96,.38,1.56,.45,.6,.07,1.35,.11,2.25,.11s1.63-.04,2.23-.11c.6-.07,1.12-.23,1.56-.45s.77-.48,1.02-.77c.25-.28,.44-.7,.57-1.25,.14-.55,.23-1.12,.27-1.7,.03-.41,.05-.93,.05-1.54l-2.97,.08Z"/>
    <polygon class="cls-5" points="1530.43 62.53 1530.43 68.56 1533.01 68.56 1533.01 62.46 1530.43 62.53"/>
    <polygon class="cls-5" points="1526.58 62.63 1525.7 64.97 1524.88 62.68 1522.14 62.74 1524.24 68.56 1526.93 68.56 1529.25 62.56 1526.58 62.63"/>
    <polygon class="cls-5" points="1518.39 62.84 1518.39 68.56 1520.97 68.56 1520.97 62.78 1518.39 62.84"/>
  </g>
  <polygon class="cls-5" points="1531.65 56.62 1531.75 57.59 1538.48 56.45 1545.21 55.31 1538.39 55.48 1531.56 55.65 1531.65 56.62"/>
  <polygon class="cls-5" points="1531.65 59.34 1531.71 59.94 1535.85 59.23 1539.99 58.53 1535.79 58.64 1531.59 58.74 1531.65 59.34"/>
  <polygon class="cls-5" points="1482.63 56.62 1482.53 57.59 1475.8 56.45 1469.06 55.31 1475.89 55.48 1482.72 55.65 1482.63 56.62"/>
  <polygon class="cls-5" points="1482.63 59.34 1482.57 59.94 1478.43 59.23 1474.29 58.53 1478.49 58.64 1482.68 58.74 1482.63 59.34"/>
  <path class="cls-28" d="M1517,83.43h-18.03l-12.75-12.75v-18.03l12.75-12.75h18.03l12.75,12.75v18.03l-12.75,12.75Zm-16.37-4h14.71l10.4-10.4v-14.71l-10.4-10.4h-14.71l-10.4,10.4v14.71l10.4,10.4Z"/>
  <path class="cls-24" d="M1499.47,41.11h17.03l12.04,12.04v17.03l-12.04,12.04h-17.03l-12.04-12.04v-17.03l12.04-12.04Zm16.37,1.6h-15.71l-11.11,11.11v15.71l11.11,11.11h15.71l11.11-11.11v-15.71l-11.11-11.11Z"/>
  <g>
    <g>
      <path class="cls-9" d="M1267.25,1303.02v9.8l3.93-.05v-6.36h7.44v-3.39h-11.38Z"/>
      <path class="cls-9" d="M1294.1,1305.89c-.11-.63-.32-1.18-.64-1.65-.32-.46-.78-.79-1.37-.96-.59-.17-1.38-.26-2.38-.26h-9.09v9.63l13.34-.17c.06-.18,.11-.36,.14-.56,.11-.6,.16-1.4,.16-2.41v-1.04c0-1.09-.05-1.95-.16-2.58Zm-3.69,3.8c0,.65-.08,1.11-.24,1.38s-.51,.41-1.05,.41h-4.55v-5.13h4.59c.51,0,.85,.15,1.01,.46s.24,.83,.24,1.55v1.33Z"/>
      <path class="cls-9" d="M1311.44,1308.53c-.05-.77-.17-1.53-.35-2.27-.18-.74-.43-1.3-.76-1.69-.32-.38-.77-.73-1.35-1.03-.58-.3-1.27-.5-2.07-.61-.8-.11-1.78-.16-2.96-.16s-2.18,.05-2.99,.16c-.8,.11-1.49,.31-2.07,.61-.58,.3-1.03,.65-1.34,1.03-.32,.39-.57,.95-.75,1.69-.18,.74-.29,1.5-.35,2.27-.05,.78-.08,1.81-.08,3.09,0,.29,0,.57,0,.84l3.93-.05v-2.73c0-.71,.03-1.27,.11-1.67,.08-.41,.24-.78,.49-1.11,.25-.33,.61-.56,1.1-.69,.48-.13,1.13-.19,1.94-.19,1.52,0,2.51,.26,2.95,.79,.44,.53,.67,1.49,.67,2.88v2.63l3.95-.05c0-.21,0-.42,0-.64,0-1.28-.02-2.31-.08-3.09Z"/>
      <path class="cls-9" d="M1319.5,1303.02h-5.29v9.2l3.44-.04v-4.02l1.45,4,3.66-.04-3.25-9.09Zm9.1,0l-3.4,9.06,3.53-.04,1.5-3.88v3.86l3.44-.04v-8.95h-5.07Z"/>
      <polygon class="cls-9" points="1268.08 1313.07 1268.08 1319.44 1272.01 1319.44 1272.01 1312.96 1268.08 1313.07"/>
      <path class="cls-9" d="M1281.45,1313.01v6.72h3.96v-5.45h4.84c1.06,0,1.9-.09,2.55-.27,.64-.18,1.13-.5,1.47-.96,.09-.12,.17-.25,.24-.38l-13.06,.34Z"/>
      <path class="cls-9" d="M1308.36,1312.44v.46c0,.78-.04,1.4-.11,1.84-.08,.44-.24,.85-.49,1.2-.25,.36-.61,.6-1.1,.73-.48,.14-1.12,.2-1.92,.2s-1.46-.07-1.94-.2c-.48-.14-.85-.38-1.1-.73-.25-.35-.41-.75-.49-1.2-.08-.44-.11-1.06-.11-1.84v-.27l-3.92,.1c.01,.64,.03,1.18,.07,1.64,.05,.77,.17,1.52,.35,2.26,.18,.74,.43,1.3,.75,1.67,.31,.38,.76,.72,1.34,1.02,.58,.3,1.27,.5,2.07,.6,.8,.1,1.8,.14,2.99,.14s2.17-.05,2.96-.14c.8-.1,1.49-.3,2.07-.6s1.03-.64,1.35-1.02c.33-.38,.58-.93,.76-1.66,.18-.73,.3-1.48,.35-2.26,.04-.55,.06-1.23,.07-2.04l-3.95,.11Z"/>
      <polygon class="cls-9" points="1331.19 1312.17 1331.19 1320.19 1334.63 1320.19 1334.63 1312.08 1331.19 1312.17"/>
      <polygon class="cls-9" points="1326.08 1312.3 1324.91 1315.42 1323.81 1312.36 1320.17 1312.46 1322.96 1320.19 1326.54 1320.19 1329.62 1312.21 1326.08 1312.3"/>
      <polygon class="cls-9" points="1315.18 1312.59 1315.18 1320.19 1318.62 1320.19 1318.62 1312.5 1315.18 1312.59"/>
    </g>
    <polygon class="cls-9" points="1332.82 1304.31 1332.95 1305.6 1341.91 1304.08 1350.86 1302.57 1341.78 1302.79 1332.7 1303.02 1332.82 1304.31"/>
    <polygon class="cls-9" points="1332.82 1307.93 1332.9 1308.72 1338.41 1307.79 1343.91 1306.85 1338.33 1306.99 1332.75 1307.14 1332.82 1307.93"/>
    <polygon class="cls-9" points="1267.61 1304.31 1267.48 1305.6 1258.52 1304.08 1249.57 1302.57 1258.65 1302.79 1267.73 1303.02 1267.61 1304.31"/>
    <polygon class="cls-9" points="1267.61 1307.93 1267.53 1308.72 1262.02 1307.79 1256.52 1306.85 1262.1 1306.99 1267.68 1307.14 1267.61 1307.93"/>
    <g>
      <polygon class="cls-9" points="1297.14 1292.04 1297.51 1292.78 1298.33 1292.9 1297.74 1293.48 1297.88 1294.3 1297.14 1293.91 1296.41 1294.3 1296.55 1293.48 1295.95 1292.9 1296.78 1292.78 1297.14 1292.04"/>
      <polygon class="cls-9" points="1300.54 1292.04 1300.91 1292.78 1301.73 1292.9 1301.14 1293.48 1301.28 1294.3 1300.54 1293.91 1299.81 1294.3 1299.95 1293.48 1299.35 1292.9 1300.17 1292.78 1300.54 1292.04"/>
      <polygon class="cls-9" points="1303.94 1292.04 1304.31 1292.78 1305.13 1292.9 1304.53 1293.48 1304.67 1294.3 1303.94 1293.91 1303.2 1294.3 1303.34 1293.48 1302.75 1292.9 1303.57 1292.78 1303.94 1292.04"/>
      <polygon class="cls-9" points="1307.34 1292.04 1307.7 1292.78 1308.53 1292.9 1307.93 1293.48 1308.07 1294.3 1307.34 1293.91 1306.6 1294.3 1306.74 1293.48 1306.15 1292.9 1306.97 1292.78 1307.34 1292.04"/>
      <polygon class="cls-9" points="1310.73 1292.04 1311.1 1292.78 1311.92 1292.9 1311.33 1293.48 1311.47 1294.3 1310.73 1293.91 1310 1294.3 1310.14 1293.48 1309.54 1292.9 1310.37 1292.78 1310.73 1292.04"/>
    </g>
    <text class="cls-10" transform="translate(1285.12 1300.36)"><tspan x="0" y="0" xml:space="preserve">клуб  ЕДИНОБОРСТВ</tspan></text>
  </g>
  <g>
    <g>
      <path class="cls-5" d="M1271.95,834.18v8.41l3.37-.05v-5.45h6.38v-2.91h-9.76Z"/>
      <path class="cls-5" d="M1294.97,836.64c-.09-.54-.27-1.02-.55-1.42-.28-.4-.67-.68-1.17-.82-.51-.15-1.19-.22-2.04-.22h-7.8v8.26l11.44-.15c.05-.15,.09-.31,.12-.48,.09-.51,.14-1.2,.14-2.07v-.89c0-.93-.05-1.67-.14-2.21Zm-3.16,3.26c0,.56-.07,.95-.2,1.19s-.44,.35-.9,.35h-3.9v-4.4h3.94c.44,0,.73,.13,.86,.4s.2,.71,.2,1.33v1.14Z"/>
      <path class="cls-5" d="M1309.84,838.9c-.05-.66-.15-1.31-.3-1.95-.15-.63-.37-1.11-.65-1.45-.28-.33-.66-.62-1.16-.88-.5-.26-1.09-.43-1.78-.52-.68-.09-1.53-.14-2.54-.14s-1.87,.05-2.56,.14c-.68,.09-1.28,.27-1.77,.52-.5,.26-.88,.56-1.15,.88-.27,.33-.48,.81-.64,1.45-.15,.63-.25,1.28-.3,1.95-.05,.67-.07,1.55-.07,2.65,0,.25,0,.49,0,.72l3.37-.05v-2.34c0-.61,.03-1.09,.1-1.43,.07-.35,.2-.67,.42-.95,.21-.28,.53-.48,.94-.59,.41-.11,.97-.16,1.67-.16,1.31,0,2.15,.22,2.53,.68,.38,.46,.57,1.28,.57,2.47v2.26l3.39-.04c0-.18,0-.36,0-.55,0-1.1-.02-1.98-.07-2.65Z"/>
      <path class="cls-5" d="M1316.75,834.18h-4.54v7.89l2.95-.04v-3.45l1.24,3.43,3.14-.04-2.79-7.8Zm7.8,0l-2.92,7.77,3.03-.04,1.29-3.33v3.31l2.95-.04v-7.68h-4.34Z"/>
      <polygon class="cls-5" points="1272.66 842.79 1272.66 848.26 1276.03 848.26 1276.03 842.71 1272.66 842.79"/>
      <path class="cls-5" d="M1284.12,842.75v5.76h3.39v-4.68h4.15c.91,0,1.63-.07,2.18-.23,.55-.15,.97-.43,1.26-.82,.07-.1,.15-.21,.21-.32l-11.2,.29Z"/>
      <path class="cls-5" d="M1307.2,842.26v.39c0,.67-.03,1.2-.1,1.58-.07,.38-.2,.73-.42,1.03-.21,.31-.53,.51-.94,.63-.41,.12-.96,.17-1.65,.17s-1.25-.06-1.67-.17c-.41-.12-.73-.32-.94-.63-.22-.3-.35-.65-.42-1.03-.07-.38-.1-.91-.1-1.58v-.23l-3.37,.09c.01,.55,.03,1.02,.06,1.41,.05,.66,.15,1.31,.3,1.94,.16,.63,.37,1.11,.64,1.43,.27,.32,.65,.62,1.15,.87,.5,.26,1.09,.43,1.77,.51,.69,.08,1.54,.12,2.56,.12s1.86-.04,2.54-.12c.69-.08,1.28-.26,1.78-.51s.88-.55,1.16-.87c.28-.32,.5-.8,.65-1.43,.16-.63,.26-1.27,.3-1.94,.03-.47,.05-1.06,.06-1.75l-3.39,.09Z"/>
      <polygon class="cls-5" points="1326.78 842.03 1326.78 848.9 1329.73 848.9 1329.73 841.95 1326.78 842.03"/>
      <polygon class="cls-5" points="1322.39 842.14 1321.39 844.81 1320.45 842.19 1317.33 842.27 1319.72 848.9 1322.79 848.9 1325.43 842.06 1322.39 842.14"/>
      <polygon class="cls-5" points="1313.04 842.38 1313.04 848.9 1316 848.9 1316 842.31 1313.04 842.38"/>
    </g>
    <polygon class="cls-5" points="1328.18 835.29 1328.28 836.39 1335.97 835.09 1343.65 833.79 1335.86 833.99 1328.07 834.18 1328.18 835.29"/>
    <polygon class="cls-5" points="1328.18 838.39 1328.24 839.07 1332.97 838.27 1337.69 837.47 1332.9 837.59 1328.11 837.71 1328.18 838.39"/>
    <polygon class="cls-5" points="1272.25 835.29 1272.15 836.39 1264.46 835.09 1256.78 833.79 1264.57 833.99 1272.36 834.18 1272.25 835.29"/>
    <polygon class="cls-5" points="1272.25 838.39 1272.19 839.07 1267.46 838.27 1262.74 837.47 1267.53 837.59 1272.32 837.71 1272.25 838.39"/>
    <g>
      <polygon class="cls-5" points="1297.58 824.76 1297.9 825.4 1298.6 825.5 1298.09 826 1298.21 826.7 1297.58 826.37 1296.95 826.7 1297.07 826 1296.56 825.5 1297.27 825.4 1297.58 824.76"/>
      <polygon class="cls-5" points="1300.49 824.76 1300.81 825.4 1301.51 825.5 1301 826 1301.12 826.7 1300.49 826.37 1299.86 826.7 1299.98 826 1299.47 825.5 1300.18 825.4 1300.49 824.76"/>
      <polygon class="cls-5" points="1303.41 824.76 1303.72 825.4 1304.43 825.5 1303.92 826 1304.04 826.7 1303.41 826.37 1302.78 826.7 1302.9 826 1302.39 825.5 1303.09 825.4 1303.41 824.76"/>
      <polygon class="cls-5" points="1306.32 824.76 1306.64 825.4 1307.34 825.5 1306.83 826 1306.95 826.7 1306.32 826.37 1305.69 826.7 1305.81 826 1305.3 825.5 1306.01 825.4 1306.32 824.76"/>
      <polygon class="cls-5" points="1309.24 824.76 1309.55 825.4 1310.26 825.5 1309.75 826 1309.87 826.7 1309.24 826.37 1308.61 826.7 1308.73 826 1308.22 825.5 1308.92 825.4 1309.24 824.76"/>
    </g>
    <text class="cls-7" transform="translate(1287.27 831.9)"><tspan x="0" y="0" xml:space="preserve">клуб  ЕДИНОБОРСТВ</tspan></text>
  </g>
  <g>
    <g>
      <path class="cls-4" d="M1266.06,1118.11v10.16l4.08-.06v-6.59h7.71v-3.52h-11.79Z"/>
      <path class="cls-4" d="M1293.88,1121.09c-.11-.66-.33-1.23-.67-1.71-.34-.48-.81-.82-1.42-.99-.61-.18-1.43-.27-2.46-.27h-9.42v9.98l13.82-.18c.06-.19,.11-.38,.15-.58,.11-.62,.17-1.45,.17-2.5v-1.08c0-1.13-.06-2.02-.17-2.67Zm-3.82,3.94c0,.68-.08,1.15-.25,1.43s-.53,.42-1.09,.42h-4.71v-5.32h4.76c.53,0,.88,.16,1.04,.48s.25,.86,.25,1.6v1.38Z"/>
      <path class="cls-4" d="M1311.85,1123.82c-.06-.8-.18-1.59-.37-2.35-.19-.77-.45-1.35-.79-1.75-.34-.4-.8-.75-1.4-1.07-.6-.31-1.32-.52-2.15-.63-.83-.11-1.85-.17-3.07-.17s-2.26,.06-3.1,.17c-.83,.11-1.54,.32-2.14,.63-.6,.32-1.07,.67-1.39,1.07-.33,.4-.59,.98-.78,1.75-.19,.77-.31,1.55-.36,2.35-.06,.81-.09,1.87-.09,3.2,0,.3,0,.59,0,.87l4.08-.06v-2.82c0-.74,.04-1.31,.12-1.73,.08-.43,.25-.81,.51-1.15,.26-.34,.64-.58,1.14-.72,.5-.13,1.17-.2,2.01-.2,1.58,0,2.6,.27,3.06,.82,.46,.55,.69,1.54,.69,2.98v2.73l4.1-.05c0-.22,0-.44,0-.67,0-1.33-.03-2.39-.08-3.2Z"/>
      <path class="cls-4" d="M1320.2,1118.11h-5.48v9.53l3.57-.05v-4.17l1.5,4.15,3.79-.05-3.37-9.42Zm9.43,0l-3.53,9.39,3.66-.05,1.56-4.02v4l3.56-.05v-9.28h-5.25Z"/>
      <polygon class="cls-4" points="1266.92 1128.52 1266.92 1135.12 1270.99 1135.12 1270.99 1128.41 1266.92 1128.52"/>
      <path class="cls-4" d="M1280.77,1128.46v6.96h4.1v-5.65h5.01c1.1,0,1.97-.09,2.64-.28,.67-.19,1.17-.52,1.52-1,.09-.13,.18-.26,.25-.39l-13.53,.36Z"/>
      <path class="cls-4" d="M1308.65,1127.87v.48c0,.81-.04,1.45-.12,1.91-.08,.46-.25,.88-.51,1.24-.26,.37-.64,.62-1.14,.76-.5,.14-1.16,.21-1.99,.21s-1.51-.07-2.01-.21c-.5-.14-.88-.39-1.14-.76-.26-.37-.43-.78-.51-1.24-.08-.46-.12-1.1-.12-1.91v-.28l-4.07,.11c.02,.66,.04,1.23,.07,1.7,.06,.8,.18,1.58,.36,2.34,.19,.77,.45,1.34,.78,1.73,.33,.39,.79,.75,1.39,1.06,.6,.31,1.32,.52,2.14,.62,.83,.1,1.86,.15,3.1,.15s2.24-.05,3.07-.15c.83-.1,1.55-.31,2.15-.62s1.07-.67,1.4-1.06c.34-.39,.6-.96,.79-1.72,.19-.76,.31-1.54,.37-2.34,.04-.57,.07-1.28,.08-2.12l-4.1,.11Z"/>
      <polygon class="cls-4" points="1332.31 1127.59 1332.31 1135.9 1335.87 1135.9 1335.87 1127.5 1332.31 1127.59"/>
      <polygon class="cls-4" points="1327.01 1127.73 1325.8 1130.96 1324.67 1127.79 1320.89 1127.89 1323.78 1135.9 1327.49 1135.9 1330.69 1127.63 1327.01 1127.73"/>
      <polygon class="cls-4" points="1315.72 1128.02 1315.72 1135.9 1319.28 1135.9 1319.28 1127.93 1315.72 1128.02"/>
    </g>
    <polygon class="cls-4" points="1334 1119.45 1334.13 1120.79 1343.41 1119.21 1352.69 1117.64 1343.28 1117.88 1333.87 1118.11 1334 1119.45"/>
    <polygon class="cls-4" points="1334 1123.2 1334.08 1124.02 1339.79 1123.05 1345.49 1122.08 1339.71 1122.23 1333.92 1122.37 1334 1123.2"/>
    <polygon class="cls-4" points="1266.43 1119.45 1266.3 1120.79 1257.02 1119.21 1247.74 1117.64 1257.15 1117.88 1266.56 1118.11 1266.43 1119.45"/>
    <polygon class="cls-4" points="1266.43 1123.2 1266.35 1124.02 1260.64 1123.05 1254.94 1122.08 1260.72 1122.23 1266.51 1122.37 1266.43 1123.2"/>
  </g>
  <rect class="cls-4" x="1243.52" y="274.99" width="113.39" height="113.39" transform="translate(1631.9 -968.53) rotate(90)"/>
  <path class="cls-5" d="M1269.33,324.18v9.18l3.69-.05v-5.96h6.97v-3.18h-10.66Z"/>
  <path class="cls-5" d="M1294.48,326.87c-.1-.59-.3-1.11-.6-1.55-.3-.43-.73-.74-1.28-.9-.55-.16-1.3-.24-2.23-.24h-8.52v9.02l12.5-.16c.05-.17,.1-.34,.13-.52,.1-.56,.15-1.31,.15-2.26v-.97c0-1.02-.05-1.83-.15-2.42Zm-3.46,3.56c0,.61-.07,1.04-.22,1.3s-.48,.38-.98,.38h-4.26v-4.81h4.3c.48,0,.79,.14,.94,.43s.22,.77,.22,1.45v1.25Z"/>
  <path class="cls-5" d="M1310.73,329.34c-.05-.72-.16-1.44-.33-2.13-.17-.69-.4-1.22-.71-1.58-.3-.36-.72-.68-1.27-.96-.54-.28-1.19-.47-1.94-.57-.75-.1-1.67-.15-2.78-.15s-2.05,.05-2.8,.15c-.75,.1-1.39,.29-1.94,.57-.54,.29-.96,.61-1.26,.96-.3,.36-.53,.89-.7,1.58-.17,.69-.28,1.4-.33,2.13-.05,.73-.08,1.69-.08,2.89,0,.27,0,.53,0,.78l3.69-.05v-2.55c0-.67,.03-1.19,.1-1.57,.07-.38,.22-.73,.46-1.04,.23-.31,.58-.53,1.03-.65,.45-.12,1.06-.18,1.82-.18,1.43,0,2.35,.24,2.77,.74,.42,.5,.62,1.39,.62,2.69v2.47l3.7-.05c0-.19,0-.39,0-.6,0-1.2-.02-2.16-.07-2.89Z"/>
  <path class="cls-5" d="M1318.29,324.18h-4.96v8.62l3.22-.04v-3.77l1.35,3.75,3.43-.04-3.05-8.52Zm8.52,0l-3.19,8.49,3.31-.04,1.41-3.64v3.62l3.22-.04v-8.39h-4.75Z"/>
  <polygon class="cls-5" points="1270.1 333.59 1270.1 339.56 1273.79 339.56 1273.79 333.5 1270.1 333.59"/>
  <path class="cls-5" d="M1282.63,333.54v6.29h3.71v-5.11h4.53c.99,0,1.78-.08,2.39-.25,.6-.17,1.06-.47,1.38-.9,.08-.11,.16-.23,.23-.35l-12.23,.32Z"/>
  <path class="cls-5" d="M1307.84,333v.43c0,.73-.04,1.31-.1,1.73-.07,.42-.22,.79-.46,1.12-.23,.34-.58,.56-1.03,.69-.45,.13-1.05,.19-1.8,.19s-1.37-.06-1.82-.19c-.45-.13-.8-.35-1.03-.69-.24-.33-.38-.71-.46-1.12-.07-.42-.1-.99-.1-1.73v-.25l-3.68,.1c.01,.6,.03,1.11,.06,1.54,.05,.72,.16,1.43,.33,2.12,.17,.69,.4,1.21,.7,1.57,.29,.35,.72,.67,1.26,.96,.54,.28,1.19,.47,1.94,.56,.75,.09,1.68,.14,2.8,.14s2.03-.05,2.78-.14c.75-.09,1.4-.28,1.94-.56s.96-.6,1.27-.96c.31-.35,.54-.87,.71-1.56,.17-.68,.28-1.39,.33-2.12,.04-.52,.06-1.15,.07-1.92l-3.7,.1Z"/>
  <polygon class="cls-5" points="1329.24 332.75 1329.24 340.27 1332.46 340.27 1332.46 332.67 1329.24 332.75"/>
  <polygon class="cls-5" points="1324.45 332.88 1323.35 335.8 1322.33 332.93 1318.91 333.02 1321.52 340.27 1324.88 340.27 1327.77 332.79 1324.45 332.88"/>
  <polygon class="cls-5" points="1314.23 333.14 1314.23 340.27 1317.46 340.27 1317.46 333.06 1314.23 333.14"/>
  <polygon class="cls-5" points="1330.77 325.39 1330.88 326.6 1339.28 325.17 1347.67 323.75 1339.16 323.97 1330.65 324.18 1330.77 325.39"/>
  <polygon class="cls-5" points="1330.77 328.78 1330.84 329.52 1336 328.65 1341.16 327.77 1335.93 327.9 1330.7 328.03 1330.77 328.78"/>
  <polygon class="cls-5" points="1269.66 325.39 1269.54 326.6 1261.15 325.17 1252.76 323.75 1261.27 323.97 1269.78 324.18 1269.66 325.39"/>
  <polygon class="cls-5" points="1269.66 328.78 1269.59 329.52 1264.43 328.65 1259.27 327.77 1264.5 327.9 1269.73 328.03 1269.66 328.78"/>
  <polygon class="cls-5" points="1288.54 342.99 1289.23 344.39 1290.77 344.61 1289.66 345.7 1289.92 347.23 1288.54 346.51 1287.16 347.23 1287.43 345.7 1286.31 344.61 1287.85 344.39 1288.54 342.99"/>
  <polygon class="cls-5" points="1294.91 342.99 1295.6 344.39 1297.14 344.61 1296.02 345.7 1296.29 347.23 1294.91 346.51 1293.53 347.23 1293.79 345.7 1292.68 344.61 1294.22 344.39 1294.91 342.99"/>
  <polygon class="cls-5" points="1301.27 342.99 1301.96 344.39 1303.5 344.61 1302.39 345.7 1302.65 347.23 1301.27 346.51 1299.9 347.23 1300.16 345.7 1299.05 344.61 1300.59 344.39 1301.27 342.99"/>
  <polygon class="cls-5" points="1307.64 342.99 1308.33 344.39 1309.87 344.61 1308.76 345.7 1309.02 347.23 1307.64 346.51 1306.26 347.23 1306.53 345.7 1305.41 344.61 1306.95 344.39 1307.64 342.99"/>
  <polygon class="cls-5" points="1314.01 342.99 1314.7 344.39 1316.24 344.61 1315.12 345.7 1315.39 347.23 1314.01 346.51 1312.63 347.23 1312.89 345.7 1311.78 344.61 1313.32 344.39 1314.01 342.99"/>
  <path class="cls-25" d="M1290.66,306.06h21.23l15.01,15.01v21.23l-15.01,15.01h-21.23l-15.01-15.01v-21.23l15.01-15.01Zm20.4,1.99h-19.58l-13.84,13.84v19.58l13.84,13.84h19.58l13.84-13.84v-19.58l-13.84-13.84Z"/>
  <path class="cls-23" d="M1311.89,357.31h-21.23l-15.01-15.01v-21.23l15.01-15.01h21.23l15.01,15.01v21.23l-15.01,15.01Zm-20.4-1.99h19.58l13.84-13.84v-19.58l-13.84-13.84h-19.58l-13.84,13.84v19.58l13.84,13.84Z"/>
  <g>
    <path d="M1268.44,578.03v9.45l3.79-.05v-6.13h7.18v-3.27h-10.97Z"/>
    <path d="M1294.32,580.8c-.1-.61-.31-1.14-.62-1.59-.31-.45-.75-.76-1.32-.92-.57-.17-1.33-.25-2.29-.25h-8.76v9.28l12.86-.16c.06-.17,.1-.35,.14-.54,.1-.58,.15-1.35,.15-2.33v-1c0-1.05-.05-1.88-.15-2.49Zm-3.56,3.66c0,.63-.07,1.07-.23,1.33s-.49,.39-1.01,.39h-4.38v-4.95h4.43c.49,0,.82,.15,.97,.45s.23,.8,.23,1.49v1.29Z"/>
    <path d="M1311.04,583.34c-.05-.75-.16-1.48-.34-2.19-.17-.71-.41-1.25-.73-1.63-.31-.37-.75-.7-1.3-.99-.56-.29-1.23-.48-2-.59-.77-.1-1.72-.15-2.86-.15s-2.11,.05-2.88,.15c-.77,.1-1.44,.3-1.99,.59-.56,.29-.99,.62-1.3,.99-.31,.37-.55,.91-.72,1.63-.17,.71-.28,1.44-.34,2.19-.05,.75-.08,1.74-.08,2.98,0,.28,0,.55,0,.81l3.79-.05v-2.63c0-.68,.03-1.22,.11-1.61,.07-.4,.23-.75,.47-1.07,.24-.32,.59-.54,1.06-.67,.47-.12,1.09-.18,1.87-.18,1.47,0,2.42,.25,2.85,.76,.43,.51,.64,1.44,.64,2.77v2.54l3.81-.05c0-.2,0-.41,0-.62,0-1.23-.02-2.23-.07-2.98Z"/>
    <path d="M1318.81,578.03h-5.1v8.87l3.32-.04v-3.88l1.39,3.86,3.53-.04-3.14-8.76Zm8.77,0l-3.28,8.73,3.4-.04,1.45-3.74v3.72l3.31-.04v-8.63h-4.88Z"/>
    <polygon points="1269.24 587.71 1269.24 593.86 1273.03 593.86 1273.03 587.62 1269.24 587.71"/>
    <path d="M1282.12,587.66v6.48h3.82v-5.26h4.66c1.02,0,1.84-.08,2.46-.26,.62-.17,1.09-.48,1.42-.93,.08-.12,.16-.24,.23-.36l-12.58,.33Z"/>
    <path d="M1308.06,587.11v.44c0,.75-.04,1.35-.11,1.78-.07,.43-.23,.82-.47,1.16-.24,.34-.59,.58-1.06,.71-.47,.13-1.08,.2-1.85,.2s-1.41-.07-1.87-.2c-.47-.13-.82-.36-1.06-.71-.24-.34-.4-.73-.47-1.16-.07-.43-.11-1.02-.11-1.78v-.26l-3.78,.1c.01,.62,.03,1.14,.07,1.58,.05,.74,.16,1.47,.34,2.18,.18,.71,.41,1.25,.72,1.61,.3,.36,.74,.69,1.3,.98,.56,.29,1.23,.48,1.99,.58,.77,.09,1.73,.14,2.88,.14s2.09-.05,2.86-.14c.77-.09,1.44-.29,2-.58s.99-.62,1.3-.98c.32-.36,.56-.89,.73-1.6,.18-.7,.29-1.43,.34-2.18,.04-.53,.06-1.19,.07-1.97l-3.81,.1Z"/>
    <polygon points="1330.08 586.85 1330.08 594.58 1333.39 594.58 1333.39 586.76 1330.08 586.85"/>
    <polygon points="1325.14 586.98 1324.02 589.98 1322.96 587.04 1319.45 587.13 1322.14 594.58 1325.59 594.58 1328.56 586.89 1325.14 586.98"/>
    <polygon points="1314.64 587.25 1314.64 594.58 1317.96 594.58 1317.96 587.17 1314.64 587.25"/>
    <polygon points="1331.65 579.28 1331.77 580.52 1340.4 579.06 1349.04 577.59 1340.28 577.81 1331.53 578.03 1331.65 579.28"/>
    <polygon points="1331.65 582.76 1331.72 583.53 1337.03 582.63 1342.34 581.73 1336.96 581.86 1331.57 582 1331.65 582.76"/>
    <polygon points="1268.78 579.28 1268.66 580.52 1260.03 579.06 1251.39 577.59 1260.15 577.81 1268.9 578.03 1268.78 579.28"/>
    <polygon points="1268.78 582.76 1268.71 583.53 1263.4 582.63 1258.09 581.73 1263.47 581.86 1268.85 582 1268.78 582.76"/>
    <polygon points="1288.2 597.39 1288.91 598.82 1290.5 599.05 1289.35 600.17 1289.62 601.75 1288.2 601 1286.79 601.75 1287.06 600.17 1285.91 599.05 1287.5 598.82 1288.2 597.39"/>
    <polygon points="1294.75 597.39 1295.46 598.82 1297.05 599.05 1295.9 600.17 1296.17 601.75 1294.75 601 1293.34 601.75 1293.61 600.17 1292.46 599.05 1294.05 598.82 1294.75 597.39"/>
    <polygon points="1301.31 597.39 1302.01 598.82 1303.6 599.05 1302.45 600.17 1302.72 601.75 1301.31 601 1299.89 601.75 1300.16 600.17 1299.01 599.05 1300.6 598.82 1301.31 597.39"/>
    <polygon points="1307.86 597.39 1308.56 598.82 1310.15 599.05 1309 600.17 1309.27 601.75 1307.86 601 1306.44 601.75 1306.71 600.17 1305.56 599.05 1307.15 598.82 1307.86 597.39"/>
    <polygon points="1314.41 597.39 1315.12 598.82 1316.7 599.05 1315.55 600.17 1315.82 601.75 1314.41 601 1312.99 601.75 1313.26 600.17 1312.11 599.05 1313.7 598.82 1314.41 597.39"/>
    <text class="cls-13" transform="translate(1296.9 567.6)"><tspan x="0" y="0">клуб</tspan><tspan x="-8.04" y="6.52">ЕДИНОБОРСТВ</tspan></text>
    <path class="cls-26" d="M1290.39,559.39h21.84l15.44,15.44v21.84l-15.44,15.44h-21.84l-15.44-15.44v-21.84l15.44-15.44Zm20.99,2.05h-20.14l-14.24,14.24v20.14l14.24,14.24h20.14l14.24-14.24v-20.14l-14.24-14.24Z"/>
    <path class="cls-35" d="M1312.23,612.12h-21.84l-15.44-15.44v-21.84l15.44-15.44h21.84l15.44,15.44v21.84l-15.44,15.44Zm-20.99-2.05h20.14l14.24-14.24v-20.14l-14.24-14.24h-20.14l-14.24,14.24v20.14l14.24,14.24Z"/>
  </g>
  <g>
    <path class="cls-9" d="M1674.63,48.88v9.57l3.84-.05v-6.2h7.26v-3.31h-11.1Z"/>
    <path class="cls-9" d="M1700.83,51.68c-.1-.62-.31-1.16-.63-1.61-.32-.45-.76-.77-1.33-.93-.58-.17-1.35-.25-2.32-.25h-8.87v9.4l13.02-.17c.06-.17,.1-.35,.14-.54,.1-.58,.16-1.37,.16-2.35v-1.01c0-1.06-.05-1.9-.16-2.52Zm-3.6,3.71c0,.64-.08,1.08-.23,1.35s-.5,.4-1.02,.4h-4.44v-5.01h4.48c.5,0,.83,.15,.98,.45s.23,.81,.23,1.51v1.3Z"/>
    <path class="cls-9" d="M1717.76,54.25c-.05-.75-.17-1.5-.34-2.22-.17-.72-.42-1.27-.74-1.65-.32-.37-.75-.71-1.32-1-.57-.29-1.24-.49-2.02-.59-.78-.1-1.74-.16-2.89-.16s-2.13,.05-2.92,.16c-.78,.1-1.45,.3-2.02,.59-.57,.3-1,.63-1.31,1-.31,.38-.55,.92-.73,1.65-.17,.72-.29,1.46-.34,2.22-.05,.76-.08,1.76-.08,3.01,0,.28,0,.56,0,.82l3.84-.05v-2.66c0-.69,.03-1.24,.11-1.63,.08-.4,.23-.76,.48-1.08,.24-.32,.6-.55,1.07-.67,.47-.12,1.1-.18,1.9-.18,1.49,0,2.45,.25,2.88,.77,.43,.52,.65,1.45,.65,2.81v2.57l3.86-.05c0-.2,0-.41,0-.63,0-1.25-.02-2.25-.08-3.01Z"/>
    <path class="cls-9" d="M1725.63,48.88h-5.17v8.98l3.36-.04v-3.92l1.41,3.91,3.57-.04-3.17-8.87Zm8.88,0l-3.32,8.84,3.44-.04,1.47-3.79v3.77l3.35-.04v-8.74h-4.94Z"/>
    <polygon class="cls-9" points="1675.44 58.68 1675.44 64.89 1679.28 64.89 1679.28 58.58 1675.44 58.68"/>
    <path class="cls-9" d="M1688.49,58.63v6.56h3.86v-5.32h4.72c1.03,0,1.86-.08,2.49-.26,.63-.17,1.1-.49,1.43-.94,.08-.12,.17-.24,.24-.37l-12.74,.33Z"/>
    <path class="cls-9" d="M1714.75,58.07v.45c0,.76-.04,1.36-.11,1.8-.08,.43-.23,.83-.48,1.17-.24,.35-.6,.58-1.07,.72-.47,.13-1.09,.2-1.88,.2s-1.42-.07-1.9-.2c-.47-.13-.83-.37-1.07-.72-.25-.34-.4-.74-.48-1.17-.08-.43-.11-1.03-.11-1.8v-.26l-3.83,.1c.01,.62,.03,1.16,.07,1.6,.05,.75,.17,1.49,.34,2.21,.18,.72,.42,1.26,.73,1.63,.31,.37,.75,.7,1.31,1,.57,.29,1.24,.49,2.02,.58,.78,.09,1.75,.14,2.92,.14s2.11-.05,2.89-.14c.78-.09,1.46-.29,2.02-.58s1-.63,1.32-1c.32-.37,.57-.91,.74-1.62,.18-.71,.29-1.45,.34-2.21,.04-.54,.06-1.2,.07-2l-3.86,.1Z"/>
    <polygon class="cls-9" points="1737.04 57.81 1737.04 65.63 1740.39 65.63 1740.39 57.72 1737.04 57.81"/>
    <polygon class="cls-9" points="1732.04 57.93 1730.9 60.98 1729.83 57.99 1726.28 58.08 1729 65.63 1732.49 65.63 1735.5 57.84 1732.04 57.93"/>
    <polygon class="cls-9" points="1721.4 58.21 1721.4 65.63 1724.76 65.63 1724.76 58.13 1721.4 58.21"/>
  </g>
  <polygon class="cls-9" points="1738.63 50.13 1738.75 51.39 1747.49 49.91 1756.23 48.43 1747.37 48.65 1738.5 48.88 1738.63 50.13"/>
  <polygon class="cls-9" points="1738.63 53.66 1738.7 54.44 1744.08 53.53 1749.45 52.62 1744 52.75 1738.55 52.89 1738.63 53.66"/>
  <polygon class="cls-9" points="1674.98 50.13 1674.86 51.39 1666.11 49.91 1657.37 48.43 1666.24 48.65 1675.1 48.88 1674.98 50.13"/>
  <polygon class="cls-9" points="1674.98 53.66 1674.9 54.44 1669.53 53.53 1664.15 52.62 1669.6 52.75 1675.05 52.89 1674.98 53.66"/>
  <path class="cls-37" d="M1718.92,83.29h-22.03l-15.58-15.58v-22.03l15.58-15.58h22.03l15.58,15.58v22.03l-15.58,15.58Zm-21.25-1.89h20.47l14.47-14.47v-20.47l-14.47-14.47h-20.47l-14.47,14.47v20.47l14.47,14.47Z"/>
  <g>
    <polygon class="cls-5" points="1694.64 68.47 1695.36 69.92 1696.96 70.16 1695.8 71.29 1696.08 72.89 1694.64 72.13 1693.21 72.89 1693.48 71.29 1692.32 70.16 1693.93 69.92 1694.64 68.47"/>
    <polygon class="cls-5" points="1701.27 68.47 1701.99 69.92 1703.6 70.16 1702.44 71.29 1702.71 72.89 1701.27 72.13 1699.84 72.89 1700.11 71.29 1698.95 70.16 1700.56 69.92 1701.27 68.47"/>
    <polygon class="cls-5" points="1707.91 68.47 1708.62 69.92 1710.23 70.16 1709.07 71.29 1709.34 72.89 1707.91 72.13 1706.47 72.89 1706.75 71.29 1705.59 70.16 1707.19 69.92 1707.91 68.47"/>
    <polygon class="cls-5" points="1714.54 68.47 1715.26 69.92 1716.86 70.16 1715.7 71.29 1715.97 72.89 1714.54 72.13 1713.1 72.89 1713.38 71.29 1712.22 70.16 1713.82 69.92 1714.54 68.47"/>
    <polygon class="cls-5" points="1721.17 68.47 1721.89 69.92 1723.49 70.16 1722.33 71.29 1722.6 72.89 1721.17 72.13 1719.74 72.89 1720.01 71.29 1718.85 70.16 1720.45 69.92 1721.17 68.47"/>
  </g>
  <text class="cls-8" transform="translate(1703.45 38.32)"><tspan x="0" y="0">клуб</tspan><tspan x="-8.14" y="6.6">ЕДИНОБОРСТВ</tspan></text>
  <path class="cls-36" d="M1696.85,30h22.11l15.63,15.63v22.11l-15.63,15.63h-22.11l-15.64-15.63v-22.11l15.64-15.63Zm21.25,2.07h-20.39l-14.42,14.42v20.39l14.42,14.42h20.39l14.42-14.42v-20.39l-14.42-14.42Z"/>
  <rect class="cls-9" x="1457.83" y="0" width="113.39" height="113.39" transform="translate(1571.21 -1457.83) rotate(90)"/>
  <rect class="cls-9" x="1243.52" y="0" width="113.39" height="113.39" transform="translate(1356.91 -1243.52) rotate(90)"/>
  <g>
    <g>
      <path class="cls-5" d="M1268.04,48.88v9.57l3.84-.05v-6.2h7.26v-3.31h-11.1Z"/>
      <path class="cls-5" d="M1294.25,51.68c-.1-.62-.31-1.16-.63-1.61-.32-.45-.76-.77-1.33-.93-.58-.17-1.35-.25-2.32-.25h-8.87v9.4l13.02-.17c.06-.17,.1-.35,.14-.54,.1-.58,.16-1.37,.16-2.35v-1.01c0-1.06-.05-1.9-.16-2.52Zm-3.6,3.71c0,.64-.08,1.08-.23,1.35s-.5,.4-1.02,.4h-4.44v-5.01h4.48c.5,0,.83,.15,.98,.45s.23,.81,.23,1.51v1.3Z"/>
      <path class="cls-5" d="M1311.17,54.25c-.05-.75-.17-1.5-.34-2.22-.17-.72-.42-1.27-.74-1.65-.32-.37-.75-.71-1.32-1-.57-.29-1.24-.49-2.02-.59-.78-.1-1.74-.16-2.89-.16s-2.13,.05-2.92,.16c-.78,.1-1.45,.3-2.02,.59-.57,.3-1,.63-1.31,1-.31,.38-.55,.92-.73,1.65-.17,.72-.29,1.46-.34,2.22-.05,.76-.08,1.76-.08,3.01,0,.28,0,.56,0,.82l3.84-.05v-2.66c0-.69,.03-1.24,.11-1.63,.08-.4,.23-.76,.48-1.08,.24-.32,.6-.55,1.07-.67,.47-.12,1.1-.18,1.9-.18,1.49,0,2.45,.25,2.88,.77,.43,.52,.65,1.45,.65,2.81v2.57l3.86-.05c0-.2,0-.41,0-.63,0-1.25-.02-2.25-.08-3.01Z"/>
      <path class="cls-5" d="M1319.04,48.88h-5.17v8.98l3.36-.04v-3.92l1.41,3.91,3.57-.04-3.17-8.87Zm8.88,0l-3.32,8.84,3.44-.04,1.47-3.79v3.77l3.35-.04v-8.74h-4.94Z"/>
      <polygon class="cls-5" points="1268.85 58.68 1268.85 64.89 1272.69 64.89 1272.69 58.58 1268.85 58.68"/>
      <path class="cls-5" d="M1281.9,58.63v6.56h3.86v-5.32h4.72c1.03,0,1.86-.08,2.49-.26,.63-.17,1.1-.49,1.43-.94,.08-.12,.17-.24,.24-.37l-12.74,.33Z"/>
      <path class="cls-5" d="M1308.16,58.07v.45c0,.76-.04,1.36-.11,1.8-.08,.43-.23,.83-.48,1.17-.24,.35-.6,.58-1.07,.72-.47,.13-1.09,.2-1.88,.2s-1.42-.07-1.9-.2c-.47-.13-.83-.37-1.07-.72-.25-.34-.4-.74-.48-1.17-.08-.43-.11-1.03-.11-1.8v-.26l-3.83,.1c.01,.62,.03,1.16,.07,1.6,.05,.75,.17,1.49,.34,2.21,.18,.72,.42,1.26,.73,1.63,.31,.37,.75,.7,1.31,1,.57,.29,1.24,.49,2.02,.58,.78,.09,1.75,.14,2.92,.14s2.11-.05,2.89-.14c.78-.09,1.46-.29,2.02-.58s1-.63,1.32-1c.32-.37,.57-.91,.74-1.62,.18-.71,.29-1.45,.34-2.21,.04-.54,.06-1.2,.07-2l-3.86,.1Z"/>
      <polygon class="cls-5" points="1330.45 57.81 1330.45 65.63 1333.8 65.63 1333.8 57.72 1330.45 57.81"/>
      <polygon class="cls-5" points="1325.45 57.93 1324.31 60.98 1323.25 57.99 1319.69 58.08 1322.41 65.63 1325.9 65.63 1328.92 57.84 1325.45 57.93"/>
      <polygon class="cls-5" points="1314.82 58.21 1314.82 65.63 1318.18 65.63 1318.18 58.13 1314.82 58.21"/>
    </g>
    <polygon class="cls-5" points="1332.04 50.13 1332.16 51.39 1340.9 49.91 1349.65 48.43 1340.78 48.65 1331.92 48.88 1332.04 50.13"/>
    <polygon class="cls-5" points="1332.04 53.66 1332.11 54.44 1337.49 53.53 1342.86 52.62 1337.41 52.75 1331.96 52.89 1332.04 53.66"/>
    <polygon class="cls-5" points="1268.39 50.13 1268.27 51.39 1259.53 49.91 1250.78 48.43 1259.65 48.65 1268.51 48.88 1268.39 50.13"/>
    <polygon class="cls-5" points="1268.39 53.66 1268.32 54.44 1262.94 53.53 1257.57 52.62 1263.02 52.75 1268.47 52.89 1268.39 53.66"/>
    <path class="cls-34" d="M1312.34,83.29h-22.03l-15.58-15.58v-22.03l15.58-15.58h22.03l15.58,15.58v22.03l-15.58,15.58Zm-21.25-1.89h20.47l14.47-14.47v-20.47l-14.47-14.47h-20.47l-14.47,14.47v20.47l14.47,14.47Z"/>
    <g>
      <polygon class="cls-5" points="1288.06 68.47 1288.77 69.92 1290.38 70.16 1289.22 71.29 1289.49 72.89 1288.06 72.13 1286.62 72.89 1286.89 71.29 1285.73 70.16 1287.34 69.92 1288.06 68.47"/>
      <polygon class="cls-5" points="1294.69 68.47 1295.4 69.92 1297.01 70.16 1295.85 71.29 1296.12 72.89 1294.69 72.13 1293.25 72.89 1293.53 71.29 1292.37 70.16 1293.97 69.92 1294.69 68.47"/>
      <polygon class="cls-5" points="1301.32 68.47 1302.04 69.92 1303.64 70.16 1302.48 71.29 1302.75 72.89 1301.32 72.13 1299.88 72.89 1300.16 71.29 1299 70.16 1300.6 69.92 1301.32 68.47"/>
      <polygon class="cls-5" points="1307.95 68.47 1308.67 69.92 1310.27 70.16 1309.11 71.29 1309.39 72.89 1307.95 72.13 1306.52 72.89 1306.79 71.29 1305.63 70.16 1307.23 69.92 1307.95 68.47"/>
      <polygon class="cls-5" points="1314.58 68.47 1315.3 69.92 1316.9 70.16 1315.74 71.29 1316.02 72.89 1314.58 72.13 1313.15 72.89 1313.42 71.29 1312.26 70.16 1313.87 69.92 1314.58 68.47"/>
    </g>
    <text class="cls-8" transform="translate(1296.86 38.32)"><tspan x="0" y="0">клуб</tspan><tspan x="-8.14" y="6.6">ЕДИНОБОРСТВ</tspan></text>
    <path class="cls-38" d="M1290.26,30h22.11l15.63,15.63v22.11l-15.63,15.63h-22.11l-15.64-15.63v-22.11l15.64-15.63Zm21.25,2.07h-20.39l-14.42,14.42v20.39l14.42,14.42h20.39l14.42-14.42v-20.39l-14.42-14.42Z"/>
  </g>
  <g>
    <g>
      <path class="cls-5" d="M1485.34,49.6v8.68l3.48-.05v-5.63h6.59v-3h-10.07Z"/>
      <path class="cls-5" d="M1509.11,52.14c-.09-.56-.28-1.05-.57-1.46-.29-.41-.69-.7-1.21-.85-.52-.15-1.22-.23-2.11-.23h-8.05v8.52l11.81-.15c.05-.16,.09-.32,.12-.49,.09-.53,.14-1.24,.14-2.13v-.92c0-.96-.05-1.72-.14-2.28Zm-3.26,3.36c0,.58-.07,.98-.21,1.22s-.45,.36-.93,.36h-4.03v-4.54h4.06c.45,0,.75,.14,.89,.41s.21,.73,.21,1.37v1.18Z"/>
      <path class="cls-5" d="M1524.46,54.48c-.05-.68-.15-1.36-.31-2.01-.16-.65-.38-1.15-.67-1.49-.29-.34-.68-.64-1.2-.91-.51-.27-1.13-.44-1.84-.54-.71-.09-1.58-.14-2.62-.14s-1.93,.05-2.64,.14c-.71,.09-1.32,.27-1.83,.54-.51,.27-.91,.57-1.19,.91-.28,.34-.5,.84-.66,1.49-.16,.65-.26,1.33-.31,2.01-.05,.69-.07,1.6-.07,2.73,0,.26,0,.5,0,.74l3.48-.05v-2.41c0-.63,.03-1.12,.1-1.48,.07-.36,.21-.69,.43-.98,.22-.29,.54-.5,.97-.61,.43-.11,1-.17,1.72-.17,1.35,0,2.22,.23,2.61,.7,.39,.47,.59,1.32,.59,2.55v2.33l3.5-.04c0-.18,0-.37,0-.57,0-1.13-.02-2.05-.07-2.73Z"/>
      <path class="cls-5" d="M1531.59,49.6h-4.68v8.14l3.05-.04v-3.56l1.28,3.54,3.24-.04-2.88-8.05Zm8.05,0l-3.01,8.02,3.12-.04,1.33-3.44v3.42l3.04-.04v-7.92h-4.48Z"/>
      <polygon class="cls-5" points="1486.07 58.49 1486.07 64.13 1489.56 64.13 1489.56 58.4 1486.07 58.49"/>
      <path class="cls-5" d="M1497.91,58.45v5.95h3.5v-4.83h4.28c.94,0,1.69-.08,2.25-.24,.57-.16,1-.44,1.3-.85,.08-.11,.15-.22,.21-.33l-11.56,.3Z"/>
      <path class="cls-5" d="M1521.73,57.94v.41c0,.69-.03,1.24-.1,1.63-.07,.39-.21,.75-.43,1.06-.22,.32-.54,.53-.97,.65-.43,.12-.99,.18-1.7,.18s-1.29-.06-1.72-.18c-.43-.12-.75-.33-.97-.65-.22-.31-.36-.67-.43-1.06-.07-.39-.1-.94-.1-1.63v-.24l-3.47,.09c.01,.56,.03,1.05,.06,1.45,.05,.68,.15,1.35,.31,2,.16,.65,.38,1.15,.66,1.48,.28,.33,.68,.64,1.19,.9,.51,.27,1.13,.44,1.83,.53,.71,.09,1.59,.13,2.64,.13s1.92-.04,2.62-.13c.71-.09,1.32-.27,1.84-.53s.91-.57,1.2-.9c.29-.33,.51-.82,.67-1.47,.16-.65,.27-1.31,.31-2,.03-.49,.06-1.09,.06-1.81l-3.5,.09Z"/>
      <polygon class="cls-5" points="1541.94 57.7 1541.94 64.8 1544.98 64.8 1544.98 57.62 1541.94 57.7"/>
      <polygon class="cls-5" points="1537.41 57.82 1536.38 60.58 1535.41 57.87 1532.18 57.95 1534.65 64.8 1537.82 64.8 1540.55 57.74 1537.41 57.82"/>
      <polygon class="cls-5" points="1527.76 58.07 1527.76 64.8 1530.81 64.8 1530.81 57.99 1527.76 58.07"/>
    </g>
    <polygon class="cls-5" points="1543.38 50.74 1543.49 51.89 1551.42 50.54 1559.35 49.2 1551.31 49.4 1543.27 49.6 1543.38 50.74"/>
    <polygon class="cls-5" points="1543.38 53.95 1543.45 54.65 1548.33 53.82 1553.2 53 1548.26 53.12 1543.32 53.24 1543.38 53.95"/>
    <polygon class="cls-5" points="1485.66 50.74 1485.55 51.89 1477.62 50.54 1469.69 49.2 1477.73 49.4 1485.77 49.6 1485.66 50.74"/>
    <polygon class="cls-5" points="1485.66 53.95 1485.59 54.65 1480.71 53.82 1475.84 53 1480.78 53.12 1485.72 53.24 1485.66 53.95"/>
    <path class="cls-39" d="M1525.46,80.68h-19.87l-14.05-14.05v-19.87l14.05-14.05h19.87l14.05,14.05v19.87l-14.05,14.05Zm-19.28-1.45h18.68l13.21-13.2v-18.68l-13.21-13.2h-18.68l-13.2,13.2v18.68l13.2,13.2Z"/>
    <path class="cls-40" d="M1505.59,32.7h19.87l14.05,14.05v19.87l-14.05,14.05h-19.87l-14.05-14.05v-19.87l14.05-14.05Zm19.28,1.45h-18.68l-13.21,13.2v18.68l13.21,13.2h18.68l13.2-13.2v-18.68l-13.2-13.2Z"/>
  </g>
</svg>